<?xml version="1.0" encoding="UTF-8"?>
<svg width="700pt" height="700pt" version="1.1" viewBox="0 0 700 700" xmlns="http://www.w3.org/2000/svg" xmlns:xlink="http://www.w3.org/1999/xlink">
 <defs>
  <symbol id="v" overflow="visible">
   <path d="m4.6406-0.28125c-0.24219 0.125-0.49219 0.21875-0.75 0.28125-0.25 0.0625-0.51562 0.09375-0.79688 0.09375-0.84375 0-1.5156-0.23438-2.0156-0.70312-0.49219-0.46875-0.73438-1.1094-0.73438-1.9219 0-0.80078 0.24219-1.4375 0.73438-1.9062 0.5-0.47656 1.1719-0.71875 2.0156-0.71875 0.28125 0 0.54688 0.039062 0.79688 0.10938 0.25781 0.0625 0.50781 0.15625 0.75 0.28125v1.0469c-0.24219-0.16406-0.48047-0.28516-0.71875-0.35938-0.23047-0.082031-0.47656-0.125-0.73438-0.125-0.46094 0-0.82422 0.15234-1.0938 0.45312-0.27344 0.29297-0.40625 0.69922-0.40625 1.2188 0 0.53125 0.13281 0.94922 0.40625 1.25 0.26953 0.29297 0.63281 0.4375 1.0938 0.4375 0.25781 0 0.50391-0.035156 0.73438-0.10938 0.23828-0.082031 0.47656-0.20703 0.71875-0.375z"/>
  </symbol>
  <symbol id="d" overflow="visible">
   <path d="m3.4062-2.7656c-0.11719-0.039063-0.22656-0.070313-0.32812-0.09375-0.10547-0.03125-0.21094-0.046875-0.3125-0.046875-0.3125 0-0.55469 0.10156-0.71875 0.29688-0.16797 0.19922-0.25 0.48438-0.25 0.85938v1.75h-1.2188v-3.7969h1.2188v0.625c0.15625-0.25 0.33203-0.42969 0.53125-0.54688 0.20703-0.11328 0.45312-0.17188 0.73438-0.17188 0.039062 0 0.082031 0.007813 0.125 0.015625 0.050781 0 0.11719 0.007812 0.20312 0.015625z"/>
  </symbol>
  <symbol id="b" overflow="visible">
   <path d="m4.375-1.9062v0.34375h-2.8438c0.03125 0.28125 0.13281 0.49609 0.3125 0.64062 0.17578 0.14844 0.42188 0.21875 0.73438 0.21875 0.25781 0 0.51953-0.035156 0.78125-0.10938 0.26953-0.082031 0.54688-0.20312 0.82812-0.35938v0.9375c-0.28125 0.11719-0.57031 0.19922-0.85938 0.25-0.28125 0.050781-0.57031 0.078125-0.85938 0.078125-0.6875 0-1.2266-0.17188-1.6094-0.51562-0.375-0.35156-0.5625-0.84375-0.5625-1.4688s0.1875-1.1133 0.5625-1.4688c0.375-0.35156 0.89062-0.53125 1.5469-0.53125 0.59375 0 1.0664 0.18359 1.4219 0.54688 0.36328 0.35547 0.54688 0.83594 0.54688 1.4375zm-1.25-0.40625c0-0.22656-0.070312-0.41016-0.20312-0.54688-0.13672-0.14453-0.3125-0.21875-0.53125-0.21875-0.23047 0-0.41797 0.070313-0.5625 0.20312-0.14844 0.125-0.24219 0.3125-0.28125 0.5625z"/>
  </symbol>
  <symbol id="l" overflow="visible">
   <path d="m2.2812-1.7031c-0.25 0-0.44531 0.042969-0.57812 0.125-0.125 0.085937-0.1875 0.21094-0.1875 0.375 0 0.15625 0.050781 0.28125 0.15625 0.375 0.10156 0.085937 0.25 0.125 0.4375 0.125 0.22656 0 0.41406-0.082031 0.5625-0.25 0.15625-0.16406 0.23438-0.36719 0.23438-0.60938v-0.14062zm1.8594-0.46875v2.1719h-1.2344v-0.5625c-0.15625 0.23047-0.33984 0.39844-0.54688 0.5-0.19922 0.10156-0.44531 0.15625-0.73438 0.15625-0.39844 0-0.71875-0.11328-0.96875-0.34375-0.24219-0.22656-0.35938-0.52344-0.35938-0.89062 0-0.44531 0.14844-0.76953 0.45312-0.96875 0.3125-0.20703 0.79688-0.3125 1.4531-0.3125h0.70312v-0.10938c0-0.1875-0.078125-0.32031-0.23438-0.40625-0.14844-0.09375-0.375-0.14062-0.6875-0.14062-0.26172 0-0.50781 0.027344-0.73438 0.078125-0.21875 0.054688-0.42969 0.13281-0.625 0.23438v-0.92188c0.25781-0.0625 0.51953-0.10938 0.78125-0.14062 0.26953-0.039063 0.53516-0.0625 0.79688-0.0625 0.67578 0 1.1641 0.13672 1.4688 0.40625 0.3125 0.27344 0.46875 0.71094 0.46875 1.3125z"/>
  </symbol>
  <symbol id="a" overflow="visible">
   <path d="m1.9062-4.875v1.0781h1.25v0.875h-1.25v1.6094c0 0.17969 0.03125 0.29688 0.09375 0.35938 0.070312 0.054687 0.21094 0.078125 0.42188 0.078125h0.625v0.875h-1.0312c-0.48047 0-0.82422-0.097656-1.0312-0.29688-0.19922-0.19531-0.29688-0.53516-0.29688-1.0156v-1.6094h-0.59375v-0.875h0.59375v-1.0781z"/>
  </symbol>
  <symbol id="f" overflow="visible">
   <path d="m3.1562-3.2344v-2.0312h1.2344v5.2656h-1.2344v-0.54688c-0.16797 0.21875-0.35156 0.38281-0.54688 0.48438-0.19922 0.10156-0.43359 0.15625-0.70312 0.15625-0.46094 0-0.83984-0.17969-1.1406-0.54688-0.30469-0.375-0.45312-0.85156-0.45312-1.4375 0-0.58203 0.14844-1.0625 0.45312-1.4375 0.30078-0.375 0.67969-0.5625 1.1406-0.5625 0.26953 0 0.50391 0.054687 0.70312 0.15625 0.19531 0.10547 0.37891 0.27344 0.54688 0.5zm-0.79688 2.4531c0.25781 0 0.45703-0.09375 0.59375-0.28125 0.13281-0.19531 0.20312-0.47266 0.20312-0.82812 0-0.36328-0.070312-0.64062-0.20312-0.82812-0.13672-0.1875-0.33594-0.28125-0.59375-0.28125-0.25 0-0.44922 0.09375-0.59375 0.28125-0.13672 0.1875-0.20312 0.46484-0.20312 0.82812 0 0.35547 0.066406 0.63281 0.20312 0.82812 0.14453 0.1875 0.34375 0.28125 0.59375 0.28125z"/>
  </symbol>
  <symbol id="k" overflow="visible">
   <path d="m2.6094-0.78125c0.25 0 0.44141-0.09375 0.57812-0.28125 0.14453-0.19531 0.21875-0.47266 0.21875-0.82812 0-0.36328-0.074219-0.64062-0.21875-0.82812-0.13672-0.1875-0.32812-0.28125-0.57812-0.28125-0.26172 0-0.46484 0.09375-0.60938 0.28125-0.13672 0.1875-0.20312 0.46484-0.20312 0.82812 0 0.35547 0.066406 0.63281 0.20312 0.82812 0.14453 0.1875 0.34766 0.28125 0.60938 0.28125zm-0.8125-2.4531c0.16406-0.22656 0.34766-0.39453 0.54688-0.5 0.20703-0.10156 0.44141-0.15625 0.70312-0.15625 0.46875 0 0.85156 0.1875 1.1562 0.5625 0.30078 0.375 0.45312 0.85547 0.45312 1.4375 0 0.58594-0.15234 1.0625-0.45312 1.4375-0.30469 0.36719-0.6875 0.54688-1.1562 0.54688-0.26172 0-0.49609-0.054688-0.70312-0.15625-0.19922-0.10156-0.38281-0.26562-0.54688-0.48438v0.54688h-1.2188v-5.2656h1.2188z"/>
  </symbol>
  <symbol id="e" overflow="visible">
   <path d="m0.078125-3.7969h1.2188l1.0156 2.5781 0.875-2.5781h1.2031l-1.5938 4.1562c-0.15625 0.42578-0.34375 0.72266-0.5625 0.89062-0.21094 0.16406-0.49219 0.25-0.84375 0.25h-0.70312v-0.79688h0.39062c0.19531 0 0.34375-0.039063 0.4375-0.10938 0.09375-0.0625 0.16406-0.17969 0.21875-0.34375l0.046875-0.10938z"/>
  </symbol>
  <symbol id="j" overflow="visible">
   <path d="m3.7031-0.92188h-2.0312l-0.32812 0.92188h-1.3125l1.875-5.0625h1.5625l1.8594 5.0625h-1.2969zm-1.7188-0.9375h1.3906l-0.6875-2.0156z"/>
  </symbol>
  <symbol id="i" overflow="visible">
   <path d="m4.0938-3.1562c0.15625-0.23828 0.33594-0.42188 0.54688-0.54688 0.21875-0.125 0.45312-0.1875 0.70312-0.1875 0.4375 0 0.76953 0.13672 1 0.40625 0.22656 0.27344 0.34375 0.66406 0.34375 1.1719v2.3125h-1.2344v-1.9844c0.007813-0.019531 0.015625-0.046875 0.015625-0.078125v-0.14062c0-0.26953-0.042969-0.46094-0.125-0.57812-0.074219-0.125-0.19922-0.1875-0.375-0.1875-0.23047 0-0.40625 0.09375-0.53125 0.28125s-0.19531 0.46484-0.20312 0.82812v1.8594h-1.2188v-1.9844c0-0.41406-0.039063-0.67969-0.10938-0.79688-0.074219-0.125-0.19922-0.1875-0.375-0.1875-0.24219 0-0.42188 0.10156-0.54688 0.29688-0.125 0.1875-0.1875 0.46094-0.1875 0.8125v1.8594h-1.2188v-3.7969h1.2188v0.5625c0.14453-0.21875 0.3125-0.37891 0.5-0.48438 0.19531-0.11328 0.41406-0.17188 0.65625-0.17188 0.25781 0 0.48828 0.070313 0.6875 0.20312 0.19531 0.125 0.34766 0.30469 0.45312 0.53125z"/>
  </symbol>
  <symbol id="h" overflow="visible">
   <path d="m4.3906-2.3125v2.3125h-1.2188v-1.7656c0-0.33203-0.007813-0.55469-0.015625-0.67188-0.011719-0.125-0.039062-0.21875-0.078125-0.28125-0.042969-0.082031-0.10547-0.14453-0.1875-0.1875-0.085937-0.039062-0.17969-0.0625-0.28125-0.0625-0.25 0-0.44922 0.10156-0.59375 0.29688-0.14844 0.1875-0.21875 0.46094-0.21875 0.8125v1.8594h-1.2188v-5.2656h1.2188v2.0312c0.17578-0.22656 0.36719-0.39453 0.57812-0.5 0.20703-0.10156 0.4375-0.15625 0.6875-0.15625 0.4375 0 0.76562 0.13672 0.98438 0.40625 0.22656 0.27344 0.34375 0.66406 0.34375 1.1719z"/>
  </symbol>
  <symbol id="u" overflow="visible">
   <path d="m3.5469-3.6719v0.92188c-0.26172-0.11328-0.51172-0.19531-0.75-0.25-0.24219-0.050781-0.46875-0.078125-0.6875-0.078125-0.23047 0-0.40234 0.03125-0.51562 0.09375-0.11719 0.054687-0.17188 0.13672-0.17188 0.25 0 0.10547 0.039063 0.18359 0.125 0.23438 0.09375 0.054688 0.25 0.089844 0.46875 0.10938l0.20312 0.03125c0.625 0.085937 1.0391 0.21484 1.25 0.39062 0.21875 0.17969 0.32812 0.46094 0.32812 0.84375 0 0.40625-0.15234 0.71484-0.45312 0.92188-0.29297 0.19922-0.73438 0.29688-1.3281 0.29688-0.25 0-0.51172-0.023438-0.78125-0.0625-0.26172-0.03125-0.53125-0.085938-0.8125-0.17188v-0.92188c0.23828 0.11719 0.48438 0.20312 0.73438 0.26562 0.25781 0.0625 0.51953 0.09375 0.78125 0.09375 0.23828 0 0.41406-0.03125 0.53125-0.09375 0.125-0.070313 0.1875-0.17188 0.1875-0.29688 0-0.11328-0.042969-0.19531-0.125-0.25-0.085938-0.050781-0.25-0.09375-0.5-0.125l-0.21875-0.015625c-0.53125-0.070313-0.90625-0.19531-1.125-0.375-0.21875-0.1875-0.32812-0.46875-0.32812-0.84375 0-0.39453 0.13281-0.69141 0.40625-0.89062 0.28125-0.19531 0.70703-0.29688 1.2812-0.29688 0.21875 0 0.44531 0.023437 0.6875 0.0625 0.25 0.03125 0.51953 0.085937 0.8125 0.15625z"/>
  </symbol>
  <symbol id="t" overflow="visible">
   <path d="m4.1562-4.8906v1.0625c-0.28125-0.125-0.55469-0.21875-0.8125-0.28125-0.26172-0.0625-0.51172-0.09375-0.75-0.09375-0.3125 0-0.54297 0.042969-0.6875 0.125-0.14844 0.085937-0.21875 0.21875-0.21875 0.40625 0 0.13672 0.046875 0.24219 0.14062 0.3125 0.10156 0.074219 0.28516 0.14062 0.54688 0.20312l0.5625 0.10938c0.5625 0.11719 0.95703 0.28906 1.1875 0.51562 0.23828 0.23047 0.35938 0.55469 0.35938 0.96875 0 0.5625-0.16797 0.98047-0.5 1.25-0.32422 0.27344-0.82812 0.40625-1.5156 0.40625-0.3125 0-0.63281-0.03125-0.95312-0.09375-0.32422-0.050781-0.64844-0.14062-0.96875-0.26562v-1.0938c0.32031 0.16797 0.63281 0.29688 0.9375 0.39062 0.30078 0.085938 0.58594 0.125 0.85938 0.125 0.28906 0 0.50781-0.046875 0.65625-0.14062 0.15625-0.09375 0.23438-0.22656 0.23438-0.40625 0-0.15625-0.054687-0.27344-0.15625-0.35938-0.10547-0.09375-0.30859-0.17188-0.60938-0.23438l-0.51562-0.125c-0.5-0.10156-0.87109-0.27344-1.1094-0.51562-0.23047-0.23828-0.34375-0.55469-0.34375-0.95312 0-0.50781 0.16016-0.89844 0.48438-1.1719 0.32031-0.26953 0.78906-0.40625 1.4062-0.40625 0.28125 0 0.56641 0.023438 0.85938 0.0625 0.28906 0.042969 0.59375 0.10938 0.90625 0.20312z"/>
  </symbol>
  <symbol id="g" overflow="visible">
   <path d="m0.54688-1.4844v-2.3125h1.2188v0.375c0 0.21094-0.007813 0.46875-0.015625 0.78125v0.625c0 0.30469 0.003906 0.52344 0.015625 0.65625 0.019531 0.13672 0.050781 0.23438 0.09375 0.29688 0.050781 0.074219 0.11328 0.13672 0.1875 0.1875 0.082031 0.042969 0.17578 0.0625 0.28125 0.0625 0.25 0 0.44531-0.097656 0.59375-0.29688 0.14453-0.19531 0.21875-0.46875 0.21875-0.8125v-1.875h1.2188v3.7969h-1.2188v-0.54688c-0.17969 0.21875-0.37109 0.38281-0.57812 0.48438-0.21094 0.10156-0.43359 0.15625-0.67188 0.15625-0.4375 0-0.77344-0.12891-1-0.39062-0.23047-0.26953-0.34375-0.66406-0.34375-1.1875z"/>
  </symbol>
  <symbol id="s" overflow="visible">
   <path d="m0.57812-3.7969h1.2188v3.7969h-1.2188zm0-1.4688h1.2188v0.98438h-1.2188z"/>
  </symbol>
  <symbol id="c" overflow="visible">
   <path d="m2.3906-3.0156c-0.27344 0-0.48047 0.10156-0.625 0.29688-0.13672 0.1875-0.20312 0.46484-0.20312 0.82812 0 0.36719 0.066406 0.64844 0.20312 0.84375 0.14453 0.1875 0.35156 0.28125 0.625 0.28125 0.25781 0 0.45703-0.09375 0.59375-0.28125 0.14453-0.19531 0.21875-0.47656 0.21875-0.84375 0-0.36328-0.074219-0.64062-0.21875-0.82812-0.13672-0.19531-0.33594-0.29688-0.59375-0.29688zm0-0.875c0.64453 0 1.1484 0.17969 1.5156 0.53125 0.375 0.35547 0.5625 0.84375 0.5625 1.4688s-0.1875 1.1172-0.5625 1.4688c-0.36719 0.34375-0.87109 0.51562-1.5156 0.51562-0.65625 0-1.1719-0.17188-1.5469-0.51562-0.36719-0.35156-0.54688-0.84375-0.54688-1.4688s0.17969-1.1133 0.54688-1.4688c0.375-0.35156 0.89062-0.53125 1.5469-0.53125z"/>
  </symbol>
  <symbol id="r" overflow="visible">
   <path d="m3.0781-5.2656v0.79688h-0.67188c-0.16797 0-0.28906 0.03125-0.35938 0.09375-0.0625 0.0625-0.09375 0.16797-0.09375 0.3125v0.26562h1.0312v0.875h-1.0312v2.9219h-1.2188v-2.9219h-0.60938v-0.875h0.60938v-0.26562c0-0.40625 0.11328-0.70703 0.34375-0.90625 0.22656-0.19531 0.58594-0.29688 1.0781-0.29688z"/>
  </symbol>
  <symbol id="q" overflow="visible">
   <path d="m0.64062-5.0625h1.4531l1.8438 3.4688v-3.4688h1.2344v5.0625h-1.4531l-1.8438-3.4688v3.4688h-1.2344z"/>
  </symbol>
  <symbol id="p" overflow="visible">
   <path d="m4.3906-2.3125v2.3125h-1.2188v-1.7656c0-0.33203-0.007813-0.55469-0.015625-0.67188-0.011719-0.125-0.039062-0.21875-0.078125-0.28125-0.042969-0.082031-0.10547-0.14453-0.1875-0.1875-0.085937-0.039062-0.17969-0.0625-0.28125-0.0625-0.25 0-0.44922 0.10156-0.59375 0.29688-0.14844 0.1875-0.21875 0.46094-0.21875 0.8125v1.8594h-1.2188v-3.7969h1.2188v0.5625c0.17578-0.22656 0.36719-0.39453 0.57812-0.5 0.20703-0.10156 0.4375-0.15625 0.6875-0.15625 0.4375 0 0.76562 0.13672 0.98438 0.40625 0.22656 0.27344 0.34375 0.66406 0.34375 1.1719z"/>
  </symbol>
  <symbol id="o" overflow="visible">
   <path d="m0.64062-5.0625h2.1562c0.64453 0 1.1406 0.14844 1.4844 0.4375 0.34375 0.28125 0.51562 0.6875 0.51562 1.2188s-0.17188 0.94531-0.51562 1.2344c-0.34375 0.28125-0.83984 0.42188-1.4844 0.42188h-0.85938v1.75h-1.2969zm1.2969 0.95312v1.4062h0.71875c0.25781 0 0.45703-0.054687 0.59375-0.17188 0.13281-0.125 0.20312-0.30078 0.20312-0.53125 0-0.22656-0.070313-0.39844-0.20312-0.51562-0.13672-0.125-0.33594-0.1875-0.59375-0.1875z"/>
  </symbol>
  <symbol id="n" overflow="visible">
   <path d="m0.57812-3.7969h1.2188v3.7344c0 0.5-0.125 0.88281-0.375 1.1562-0.24219 0.26953-0.58984 0.40625-1.0469 0.40625h-0.60938v-0.79688h0.21875c0.22656 0 0.38281-0.054687 0.46875-0.15625 0.082031-0.10547 0.125-0.30859 0.125-0.60938zm0-1.4688h1.2188v0.98438h-1.2188z"/>
  </symbol>
  <symbol id="m" overflow="visible">
   <path d="m3.6406-3.6719v0.98438c-0.15625-0.11328-0.32031-0.19531-0.48438-0.25-0.16797-0.050781-0.33984-0.078125-0.51562-0.078125-0.34375 0-0.60938 0.10156-0.79688 0.29688-0.1875 0.19922-0.28125 0.47656-0.28125 0.82812 0 0.35547 0.09375 0.63281 0.28125 0.82812 0.1875 0.19922 0.45312 0.29688 0.79688 0.29688 0.1875 0 0.36328-0.023437 0.53125-0.078125 0.17578-0.0625 0.33203-0.14844 0.46875-0.26562v1c-0.1875 0.074219-0.38281 0.125-0.57812 0.15625-0.1875 0.03125-0.38281 0.046875-0.57812 0.046875-0.6875 0-1.2266-0.17188-1.6094-0.51562-0.38672-0.35156-0.57812-0.84375-0.57812-1.4688s0.19141-1.1133 0.57812-1.4688c0.38281-0.35156 0.92188-0.53125 1.6094-0.53125 0.19531 0 0.39062 0.023437 0.57812 0.0625 0.19531 0.03125 0.39062 0.085937 0.57812 0.15625z"/>
  </symbol>
 </defs>
 <g>
  <path d="m696.31 148.1c-7.2305-30.961-25.559-57.609-53.004-77.066-20.645-14.637-39.016-20.047-39.785-20.27-2.0039-0.58203-4.1836 0.035156-5.6094 1.5508-0.17188 0.18359-15.449 16-52.633 24.344-27.734-44.785-75.156-58.949-77.211-59.543-2.0039-0.57813-4.1797 0.035156-5.6094 1.5508-0.19531 0.20703-20.012 20.738-69.543 27.344-30.695 2.4688-59.48-0.44141-84.805-13.094-5.8984-2.3828-12.281-1.6992-17.969 1.9297-8.2422 5.25-13.75 16.016-14.383 28.09-0.96484 18.441 16.25 28.629 33.223 36.164 0.074219 0.03125 0.14844 0.066407 0.22656 0.09375 21.93 8.5938 45.559 10.543 70.312 5.8125l9.0352 58.113c-66.754 28.441-133.83 87.918-191.93 142.3-20.238-9.3594-40.711-22.477-55.969-36.324-9.5859-8.7031-24.145-9.543-34.609-2.0039l-34.176 24.613c-5.4883 3.9531-8.5156 10.324-8.1055 17.043 0.42188 6.8789 4.3203 12.988 10.426 16.336 13.441 7.375 25.172 16.766 35.152 28.078l-102.71 37.66c-1.9453 0.71094-3.625 2.0039-4.8086 3.7031-1.1836 1.6953-1.8203 3.7148-1.8203 5.7891v88.539c0 15.109 12.25 27.359 27.359 27.359l108.09-0.003907v6.2891c0 15.109 12.25 27.359 27.359 27.359h169.65c21.941 0 42.59-11.68 53.887-30.484 15.594-25.953 42.582-69.887 71.77-113.01 0.85547 37.918 0.66406 72.477 0.44531 91.039-0.058594 5.0039 1.8438 9.7148 5.3555 13.27 3.5273 3.5703 8.2461 5.5391 13.285 5.5391h15.652c9.8008 0 17.973-7.6602 18.605-17.441l11.613-179.55c34.758-40.18 47.074-39.789 50.488-38.168 2.1523 1.0234 13.152 11.023 18.156 107.59 2.9141 56.254 2.5742 118.34 2.293 142.42-0.058593 5.0039 1.8438 9.7148 5.3555 13.266 3.5273 3.5703 8.2461 5.5352 13.285 5.5352h15.652c9.8008 0 17.973-7.6602 18.605-17.441l16.449-254.14c8.1953-9.5859 48.965-61.605 32.953-130.17zm-309.09-54.336c-1.2812-0.86328-2.8633-1.1602-4.3672-0.80859-24.613 5.707-47.992 4.3398-69.477-4.0547-23.98-10.668-26.867-18.816-26.523-25.379 0.44141-8.4219 4.0742-16 9.2578-19.301 2.5508-1.625 5.082-1.9961 7.5391-1.1133 4.3828 2.4453 39.387 20.77 90.734 13.918 43.867-5.8477 66.23-21.941 73.516-28.25 10.055 3.6211 43.766 17.703 65.621 50.129-1.6836 0.26953-3.3945 0.52344-5.1484 0.75781-29.398 2.0195-57.766-1.7891-84.809-13.094-5.8984-2.3828-12.281-1.6992-17.969 1.9297-8.2422 5.25-13.754 16.016-14.383 28.094-0.49219 9.3984 3.7422 16.648 10.258 22.5l10.582 73.145c0.39844 2.75 2.7539 4.7617 5.4922 4.7617 0.13281 0 0.26562-0.003906 0.39844-0.015625l32.84-2.3438c2.7227-0.19531 4.9023-2.3398 5.1367-5.0625l4.2422-48.73c11.301 0.80469 22.926 0.089844 34.812-2.1836l9.0352 58.113c-66.75 28.438-133.82 87.906-191.91 142.28-16.461-7.5859-33.426-17.785-47.863-29.387 6.0273-6.1133 12.719-13.375 19.73-21 28.035-30.469 62.93-68.387 98.184-81.871 2.4453-0.9375 3.9062-3.4531 3.5039-6.043l-5.4727-35.207v-0.003906l-10.574-68.027c-0.24219-1.5273-1.1055-2.8867-2.3828-3.75zm50.234 58.262-3.5312-24.402c3.4023 1.8594 6.957 3.5508 10.504 5.1289 0.074219 0.03125 0.14844 0.066406 0.22656 0.09375 7.9375 3.1094 16.102 5.3398 24.461 6.707l-1 11.492c-10.719-0.17969-20.992 0.15234-30.66 0.98047zm29.695 10.121-1.8945 21.742-22.957 1.6406-3.2539-22.484c8.875-0.73828 18.281-1.043 28.105-0.89844zm58.617 45.949 3.6797 23.668c-36.16 15.594-70.453 52.859-98.211 83.023-15.027 16.332-28.008 30.438-36.398 35.406-9.4453 5.6016-29.352 2.3867-51.586-6.3672 55.801-52.082 119.61-108.16 182.52-135.73zm-135.45-33.652 3.6797 23.668c-36.16 15.594-70.453 52.859-98.211 83.023-7.1758 7.7969-14.012 15.219-20.043 21.305-9.5898-8.4062-23.906-9.1484-34.242-1.707l-19.805 14.266c-4.5273-1.3398-9.1797-2.9375-13.918-4.8008 55.805-52.086 119.62-108.17 182.54-135.75zm-273.62 187.86c6.4727 8.793 12.055 18.547 16.695 29.27h-96.539zm25.383 62.164c-1.9453 0.71094-3.625 2.0039-4.8086 3.7031-1.1875 1.6953-1.8203 3.7188-1.8203 5.7891v71.137h-108.09c-8.9727 0-16.25-7.2734-16.25-16.246v-86.164h130.37c1.1094 0 2.2227-0.26172 3.1484-0.87109 2.293-1.5039 3.0938-4.2773 2.1992-6.6484-6.0117-15.934-13.828-30.074-23.363-42.375-0.24609-0.41406-0.55078-0.77344-0.88672-1.1016-11.797-14.914-26.16-27.082-43.043-36.344-2.7461-1.5039-4.4922-4.2266-4.6797-7.2773-0.17969-2.9336 1.1016-5.6133 3.5078-7.3477l34.176-24.613c6.3398-4.5664 14.828-4.0625 20.645 1.2148 21.059 19.109 50.383 36.344 77.301 45.75l-3.1641 2.2773c-5.4883 3.9531-8.5156 10.324-8.1055 17.043 0.42187 6.8789 4.3164 12.988 10.426 16.336 13.445 7.375 25.176 16.766 35.152 28.082zm110.07-28.516c6.4727 8.793 12.055 18.547 16.695 29.27h-96.539zm248.23 102.1c-0.25781 3.9531-3.5586 7.0469-7.5195 7.0469h-15.652c-2.0469 0-3.9609-0.79297-5.3867-2.2344-1.4102-1.4258-2.1719-3.3164-2.1484-5.3281 0.24609-21.125 0.45703-62.871-0.85156-106.8l42.188-57.027zm153.46-225.79c-0.85938 0.93359-1.375 2.1328-1.457 3.4023l-16.559 256.03c-0.25781 3.9531-3.5586 7.0469-7.5195 7.0469h-15.652c-2.0469 0-3.9609-0.79297-5.3828-2.2344-1.4102-1.4258-2.1719-3.3164-2.1484-5.3281 0.28125-24.188 0.62109-86.551-2.3086-143.12-4.9609-95.793-15.688-112.87-24.48-117.05-2.0547-0.97656-4.4648-1.6836-7.4102-1.6836-10.246 0-26.938 8.5547-57.387 43.961l-36.332 46.441c-39.297 53.961-79.762 119.6-100.38 153.92-9.3008 15.48-26.301 25.094-44.363 25.094h-169.65c-8.9609 0-16.246-7.2891-16.246-16.246l-0.003906-86.164h130.52c1.8242 0 3.5312-0.89453 4.5703-2.3984 1.0391-1.5 1.2734-3.4141 0.62891-5.1211-14.215-35.66-37.074-61.789-67.293-79.82-2.7461-1.5039-4.4922-4.2266-4.6797-7.2773-0.17969-2.9336 1.1016-5.6133 3.5078-7.3477l34.176-24.617c6.3359-4.5625 14.828-4.0625 20.645 1.2188 38.32 34.777 105.68 64.293 131.87 48.781 9.7969-5.8047 22.645-19.766 38.91-37.441 28.035-30.469 62.93-68.387 98.184-81.871 2.4453-0.9375 3.9062-3.4531 3.5039-6.043l-16.051-103.24c-0.23828-1.5273-1.0977-2.8828-2.3789-3.75-1.2773-0.86328-2.8594-1.1602-4.3672-0.80859-24.609 5.7031-47.988 4.3398-69.477-4.0547-8.8555-3.9414-14.828-7.5352-18.828-10.832-0.011719-0.007813-0.023438-0.019532-0.035156-0.027344-6.8086-5.625-7.8789-10.387-7.6602-14.52 0.44141-8.4219 4.0742-16 9.2578-19.301 2.5508-1.625 5.0859-1.9961 7.5391-1.1133 4.3828 2.4453 39.391 20.773 90.738 13.918 43.859-5.8477 66.223-21.938 73.512-28.246 13.305 4.8125 68.09 28.035 82.141 88.203 16.02 68.598-31.172 121.12-31.645 121.64z"/>
  <path d="m619.13 95.633c-1.9375-1.0547-4.3203-0.86328-6.0625 0.49219-17.977 13.949-36.48 20.914-54.867 20.727-1.5898-0.035156-3.1719 0.67578-4.2383 1.8984-1.0703 1.2227-1.5508 2.8477-1.3164 4.4531l14.855 102.68c0.39844 2.75 2.7539 4.7578 5.4922 4.7578 0.13281 0 0.26562-0.003906 0.39844-0.015625l32.84-2.3438c2.7227-0.19531 4.9023-2.3398 5.1367-5.0625l10.637-122.23c0.19141-2.1992-0.9375-4.3008-2.875-5.3594zm-9.2344 16.324-6.332 72.738c-10.723-0.17969-20.992 0.14844-30.66 0.98047l-8.375-57.902c15.34-1.0312 30.539-6.332 45.367-15.816zm-32.141 107.22-3.2539-22.484c8.8672-0.73828 18.273-1.0391 28.102-0.89844l-1.8945 21.742z"/>
  <use y="570.691406" xlink:href="#v"/>
  <use x="5.097656" y="570.691406" xlink:href="#d"/>
  <use x="8.519531" y="570.691406" xlink:href="#b"/>
  <use x="13.230469" y="570.691406" xlink:href="#l"/>
  <use x="17.917969" y="570.691406" xlink:href="#a"/>
  <use x="21.234375" y="570.691406" xlink:href="#b"/>
  <use x="25.945313" y="570.691406" xlink:href="#f"/>
  <use x="33.332031" y="570.691406" xlink:href="#k"/>
  <use x="38.304688" y="570.691406" xlink:href="#e"/>
  <use x="45.246094" y="570.691406" xlink:href="#j"/>
  <use x="50.621094" y="570.691406" xlink:href="#i"/>
  <use x="57.859375" y="570.691406" xlink:href="#b"/>
  <use x="62.566406" y="570.691406" xlink:href="#a"/>
  <use x="65.886719" y="570.691406" xlink:href="#h"/>
  <use x="70.832031" y="570.691406" xlink:href="#e"/>
  <use x="75.355469" y="570.691406" xlink:href="#u"/>
  <use x="79.488281" y="570.691406" xlink:href="#a"/>
  <use x="85.226563" y="570.691406" xlink:href="#t"/>
  <use x="90.226562" y="570.691406" xlink:href="#a"/>
  <use x="93.546875" y="570.691406" xlink:href="#g"/>
  <use x="98.492188" y="570.691406" xlink:href="#f"/>
  <use x="103.460938" y="570.691406" xlink:href="#s"/>
  <use x="105.84375" y="570.691406" xlink:href="#c"/>
  <use y="577.632812" xlink:href="#r"/>
  <use x="3.019531" y="577.632812" xlink:href="#d"/>
  <use x="6.445312" y="577.632812" xlink:href="#c"/>
  <use x="11.214844" y="577.632812" xlink:href="#i"/>
  <use x="20.871094" y="577.632812" xlink:href="#a"/>
  <use x="24.1875" y="577.632812" xlink:href="#h"/>
  <use x="29.132813" y="577.632812" xlink:href="#b"/>
  <use x="36.257812" y="577.632812" xlink:href="#q"/>
  <use x="42.070312" y="577.632812" xlink:href="#c"/>
  <use x="46.839844" y="577.632812" xlink:href="#g"/>
  <use x="51.785156" y="577.632812" xlink:href="#p"/>
  <use x="59.144531" y="577.632812" xlink:href="#o"/>
  <use x="64.234375" y="577.632812" xlink:href="#d"/>
  <use x="67.660156" y="577.632812" xlink:href="#c"/>
  <use x="72.429688" y="577.632812" xlink:href="#n"/>
  <use x="74.8125" y="577.632812" xlink:href="#b"/>
  <use x="79.519531" y="577.632812" xlink:href="#m"/>
  <use x="83.636719" y="577.632812" xlink:href="#a"/>
 </g>
</svg>
