<?xml version="1.0" encoding="UTF-8"?>
<svg width="700pt" height="700pt" version="1.1" viewBox="0 0 700 700" xmlns="http://www.w3.org/2000/svg" xmlns:xlink="http://www.w3.org/1999/xlink">
 <defs>
  <symbol id="v" overflow="visible">
   <path d="m14.656-0.875c-0.76172 0.39844-1.5547 0.69531-2.375 0.89062-0.8125 0.19531-1.6641 0.29688-2.5469 0.29688-2.6562 0-4.7617-0.73828-6.3125-2.2188-1.5547-1.4883-2.3281-3.5039-2.3281-6.0469 0-2.5508 0.77344-4.5664 2.3281-6.0469 1.5508-1.4883 3.6562-2.2344 6.3125-2.2344 0.88281 0 1.7344 0.10156 2.5469 0.29688 0.82031 0.19922 1.6133 0.49609 2.375 0.89062v3.2969c-0.76172-0.51953-1.5117-0.89844-2.25-1.1406-0.74219-0.23828-1.5234-0.35938-2.3438-0.35938-1.4688 0-2.625 0.46875-3.4688 1.4062-0.83594 0.9375-1.25 2.2344-1.25 3.8906 0 1.6484 0.41406 2.9375 1.25 3.875 0.84375 0.9375 2 1.4062 3.4688 1.4062 0.82031 0 1.6016-0.11719 2.3438-0.35938 0.73828-0.23828 1.4883-0.61719 2.25-1.1406z"/>
  </symbol>
  <symbol id="d" overflow="visible">
   <path d="m10.719-8.7031c-0.33594-0.15625-0.66797-0.26953-1-0.34375-0.32422-0.082031-0.65625-0.125-1-0.125-0.98047 0-1.7344 0.32031-2.2656 0.95312-0.53125 0.625-0.79688 1.5273-0.79688 2.7031v5.5156h-3.8125v-11.969h3.8125v1.9688c0.48828-0.78125 1.0508-1.3477 1.6875-1.7031 0.64453-0.36328 1.4102-0.54688 2.2969-0.54688 0.13281 0 0.27344 0.007812 0.42188 0.015625 0.14453 0.011719 0.36328 0.03125 0.65625 0.0625z"/>
  </symbol>
  <symbol id="b" overflow="visible">
   <path d="m13.781-6.0156v1.0938h-8.9375c0.09375 0.89844 0.41406 1.5703 0.96875 2.0156 0.55078 0.44922 1.3281 0.67188 2.3281 0.67188 0.80078 0 1.625-0.11719 2.4688-0.35938 0.84375-0.23828 1.7109-0.59766 2.6094-1.0781v2.9531c-0.90625 0.33594-1.8125 0.58984-2.7188 0.76562s-1.8125 0.26562-2.7188 0.26562c-2.1562 0-3.8398-0.54688-5.0469-1.6406-1.1992-1.1016-1.7969-2.6484-1.7969-4.6406 0-1.9453 0.58594-3.4766 1.7656-4.5938 1.1758-1.125 2.8008-1.6875 4.875-1.6875 1.875 0 3.375 0.57031 4.5 1.7031 1.1328 1.125 1.7031 2.6367 1.7031 4.5312zm-3.9375-1.2656c0-0.72656-0.21484-1.3125-0.64062-1.75-0.41797-0.44531-0.96875-0.67188-1.6562-0.67188-0.74219 0-1.3438 0.21094-1.8125 0.625-0.46094 0.41797-0.74609 1.0156-0.85938 1.7969z"/>
  </symbol>
  <symbol id="l" overflow="visible">
   <path d="m7.2031-5.3906c-0.80469 0-1.4062 0.13672-1.8125 0.40625-0.39844 0.27344-0.59375 0.67188-0.59375 1.2031 0 0.48047 0.16016 0.85938 0.48438 1.1406 0.32031 0.27344 0.77344 0.40625 1.3594 0.40625 0.71875 0 1.3203-0.25391 1.8125-0.76562 0.48828-0.51953 0.73438-1.1719 0.73438-1.9531v-0.4375zm5.8438-1.4375v6.8281h-3.8594v-1.7656c-0.51172 0.71875-1.0898 1.2461-1.7344 1.5781-0.63672 0.33203-1.418 0.5-2.3438 0.5-1.2422 0-2.2461-0.35938-3.0156-1.0781-0.77344-0.72656-1.1562-1.6719-1.1562-2.8281 0-1.3945 0.47656-2.4219 1.4375-3.0781 0.96875-0.65625 2.4883-0.98438 4.5625-0.98438h2.25v-0.29688c0-0.60156-0.24219-1.0469-0.71875-1.3281-0.48047-0.28125-1.2266-0.42188-2.2344-0.42188-0.8125 0-1.5742 0.085937-2.2812 0.25-0.71094 0.15625-1.3672 0.40234-1.9688 0.73438v-2.9219c0.82031-0.19531 1.6445-0.34766 2.4688-0.45312 0.82031-0.10156 1.6484-0.15625 2.4844-0.15625 2.1562 0 3.7109 0.42969 4.6719 1.2812 0.95703 0.84375 1.4375 2.2266 1.4375 4.1406z"/>
  </symbol>
  <symbol id="a" overflow="visible">
   <path d="m6.0156-15.359v3.3906h3.9375v2.7344h-3.9375v5.0781c0 0.55469 0.10938 0.92969 0.32812 1.125 0.21875 0.19922 0.65625 0.29688 1.3125 0.29688h1.9688v2.7344h-3.2812c-1.5117 0-2.5859-0.3125-3.2188-0.9375-0.625-0.63281-0.9375-1.707-0.9375-3.2188v-5.0781h-1.9062v-2.7344h1.9062v-3.3906z"/>
  </symbol>
  <symbol id="f" overflow="visible">
   <path d="m9.9688-10.219v-6.4062h3.8594v16.625h-3.8594v-1.7344c-0.52344 0.71094-1.1016 1.2305-1.7344 1.5625-0.63672 0.32031-1.3711 0.48438-2.2031 0.48438-1.4688 0-2.6797-0.58203-3.625-1.75-0.94922-1.1758-1.4219-2.6875-1.4219-4.5312s0.47266-3.3477 1.4219-4.5156c0.94531-1.1758 2.1562-1.7656 3.625-1.7656 0.83203 0 1.5664 0.16797 2.2031 0.5 0.63281 0.32422 1.2109 0.83594 1.7344 1.5312zm-2.5156 7.75c0.82031 0 1.4453-0.29688 1.875-0.89062 0.42578-0.60156 0.64062-1.4727 0.64062-2.6094 0-1.1445-0.21484-2.0156-0.64062-2.6094-0.42969-0.59375-1.0547-0.89062-1.875-0.89062-0.8125 0-1.4336 0.29688-1.8594 0.89062-0.42969 0.59375-0.64062 1.4648-0.64062 2.6094 0 1.1367 0.21094 2.0078 0.64062 2.6094 0.42578 0.59375 1.0469 0.89062 1.8594 0.89062z"/>
  </symbol>
  <symbol id="k" overflow="visible">
   <path d="m8.2031-2.4688c0.82031 0 1.4453-0.29688 1.875-0.89062 0.42578-0.60156 0.64062-1.4727 0.64062-2.6094 0-1.1445-0.21484-2.0156-0.64062-2.6094-0.42969-0.59375-1.0547-0.89062-1.875-0.89062-0.82422 0-1.4531 0.30469-1.8906 0.90625-0.4375 0.59375-0.65625 1.4609-0.65625 2.5938 0 1.1367 0.21875 2.0078 0.65625 2.6094 0.4375 0.59375 1.0664 0.89062 1.8906 0.89062zm-2.5469-7.75c0.53125-0.69531 1.1133-1.207 1.75-1.5312 0.64453-0.33203 1.3828-0.5 2.2188-0.5 1.4688 0 2.6758 0.58984 3.625 1.7656 0.94531 1.168 1.4219 2.6719 1.4219 4.5156s-0.47656 3.3555-1.4219 4.5312c-0.94922 1.168-2.1562 1.75-3.625 1.75-0.83594 0-1.5742-0.16797-2.2188-0.5-0.63672-0.33203-1.2188-0.84766-1.75-1.5469v1.7344h-3.8125v-16.625h3.8125z"/>
  </symbol>
  <symbol id="e" overflow="visible">
   <path d="m0.26562-11.969h3.8281l3.2188 8.125 2.7344-8.125h3.8125l-5.0312 13.094c-0.5 1.332-1.0898 2.2656-1.7656 2.7969-0.66797 0.53125-1.5547 0.79688-2.6562 0.79688h-2.2188v-2.5h1.2031c0.64453 0 1.1133-0.10547 1.4062-0.3125 0.30078-0.21094 0.53125-0.57812 0.6875-1.1094l0.10938-0.34375z"/>
  </symbol>
  <symbol id="j" overflow="visible">
   <path d="m11.688-2.9062h-6.4375l-1.0156 2.9062h-4.125l5.9062-15.953h4.9062l5.9062 15.953h-4.1406zm-5.4062-2.9531h4.375l-2.1875-6.3438z"/>
  </symbol>
  <symbol id="i" overflow="visible">
   <path d="m12.922-9.9688c0.48828-0.75 1.0625-1.3164 1.7188-1.7031 0.66406-0.38281 1.3984-0.57812 2.2031-0.57812 1.375 0 2.4219 0.42969 3.1406 1.2812 0.71875 0.84375 1.0781 2.0742 1.0781 3.6875v7.2812h-3.8438v-6.2344c0.007812-0.09375 0.015625-0.1875 0.015625-0.28125v-0.4375c0-0.84375-0.125-1.457-0.375-1.8438-0.25-0.38281-0.65234-0.57812-1.2031-0.57812-0.73047 0-1.293 0.30469-1.6875 0.90625-0.38672 0.59375-0.58984 1.4609-0.60938 2.5938v5.875h-3.8438v-6.2344c0-1.3203-0.11719-2.1758-0.34375-2.5625-0.23047-0.38281-0.63672-0.57812-1.2188-0.57812-0.73047 0-1.2969 0.30469-1.7031 0.90625-0.39844 0.60547-0.59375 1.4648-0.59375 2.5781v5.8906h-3.8438v-11.969h3.8438v1.75c0.46875-0.66406 1.0039-1.1719 1.6094-1.5156 0.61328-0.34375 1.2891-0.51562 2.0312-0.51562 0.82031 0 1.5508 0.19922 2.1875 0.59375 0.63281 0.39844 1.1133 0.96094 1.4375 1.6875z"/>
  </symbol>
  <symbol id="h" overflow="visible">
   <path d="m13.859-7.2812v7.2812h-3.8438v-5.5469c0-1.0508-0.027344-1.7695-0.078125-2.1562-0.042969-0.39453-0.12109-0.6875-0.23438-0.875-0.14844-0.25-0.35156-0.44141-0.60938-0.57812-0.25-0.14453-0.54297-0.21875-0.875-0.21875-0.79297 0-1.418 0.3125-1.875 0.9375-0.46094 0.61719-0.6875 1.4648-0.6875 2.5469v5.8906h-3.8125v-16.625h3.8125v6.4062c0.58203-0.69531 1.1953-1.207 1.8438-1.5312 0.64453-0.33203 1.3594-0.5 2.1406-0.5 1.3828 0 2.4297 0.42969 3.1406 1.2812 0.71875 0.84375 1.0781 2.0742 1.0781 3.6875z"/>
  </symbol>
  <symbol id="u" overflow="visible">
   <path d="m11.188-11.594v2.9062c-0.82422-0.34375-1.6172-0.59766-2.375-0.76562-0.76172-0.16406-1.4805-0.25-2.1562-0.25-0.73047 0-1.2734 0.089844-1.625 0.26562-0.35547 0.17969-0.53125 0.46094-0.53125 0.84375 0 0.30469 0.13281 0.53906 0.40625 0.70312 0.26953 0.16797 0.75 0.28906 1.4375 0.35938l0.67188 0.09375c1.957 0.25 3.2734 0.66406 3.9531 1.2344 0.67578 0.57422 1.0156 1.4648 1.0156 2.6719 0 1.2812-0.46875 2.2461-1.4062 2.8906-0.9375 0.63672-2.3438 0.95312-4.2188 0.95312-0.78125 0-1.5938-0.0625-2.4375-0.1875s-1.7148-0.3125-2.6094-0.5625v-2.9062c0.75781 0.375 1.5391 0.65625 2.3438 0.84375 0.80078 0.17969 1.6133 0.26562 2.4375 0.26562 0.75 0 1.3125-0.10156 1.6875-0.3125 0.38281-0.20703 0.57812-0.50781 0.57812-0.90625 0-0.34375-0.13281-0.59766-0.39062-0.76562-0.26172-0.16406-0.78125-0.29688-1.5625-0.39062l-0.67188-0.09375c-1.6992-0.20703-2.8906-0.59766-3.5781-1.1719-0.6875-0.58203-1.0312-1.4609-1.0312-2.6406 0-1.2695 0.42969-2.207 1.2969-2.8125 0.875-0.61328 2.2109-0.92188 4.0156-0.92188 0.69531 0 1.4297 0.054688 2.2031 0.15625 0.78125 0.10547 1.6289 0.27344 2.5469 0.5z"/>
  </symbol>
  <symbol id="t" overflow="visible">
   <path d="m13.109-15.438v3.375c-0.875-0.39453-1.7305-0.69141-2.5625-0.89062-0.83594-0.19531-1.6211-0.29688-2.3594-0.29688-0.99219 0-1.7188 0.13672-2.1875 0.40625-0.46875 0.27344-0.70312 0.6875-0.70312 1.25 0 0.42969 0.15625 0.76172 0.46875 1 0.32031 0.24219 0.89844 0.44922 1.7344 0.625l1.75 0.34375c1.7695 0.35547 3.0312 0.89844 3.7812 1.625 0.75 0.73047 1.125 1.7617 1.125 3.0938 0 1.7617-0.52734 3.0742-1.5781 3.9375-1.043 0.85547-2.6328 1.2812-4.7656 1.2812-1.0117 0-2.0273-0.10156-3.0469-0.29688-1.0234-0.1875-2.043-0.46875-3.0625-0.84375v-3.4688c1.0195 0.53125 2.0039 0.9375 2.9531 1.2188 0.95703 0.27344 1.875 0.40625 2.75 0.40625 0.90625 0 1.5938-0.14453 2.0625-0.4375 0.47656-0.30078 0.71875-0.73438 0.71875-1.2969 0-0.48828-0.16406-0.86719-0.48438-1.1406-0.32422-0.26953-0.96875-0.51562-1.9375-0.73438l-1.5938-0.35938c-1.5938-0.33203-2.7617-0.875-3.5-1.625-0.74219-0.75-1.1094-1.7578-1.1094-3.0312 0-1.582 0.50781-2.8008 1.5312-3.6562 1.0312-0.85156 2.5078-1.2812 4.4375-1.2812 0.875 0 1.7734 0.070313 2.7031 0.20312 0.92578 0.125 1.8828 0.32422 2.875 0.59375z"/>
  </symbol>
  <symbol id="g" overflow="visible">
   <path d="m1.7031-4.6562v-7.3125h3.8438v1.2031c0 0.64844-0.007813 1.4609-0.015625 2.4375v1.9688c0 0.96094 0.023438 1.6523 0.078125 2.0781 0.050781 0.41797 0.13281 0.72656 0.25 0.92188 0.15625 0.25 0.35938 0.44531 0.60938 0.57812 0.25781 0.13672 0.55078 0.20312 0.875 0.20312 0.80078 0 1.4258-0.30469 1.875-0.92188 0.45703-0.61328 0.6875-1.4688 0.6875-2.5625v-5.9062h3.8281v11.969h-3.8281v-1.7344c-0.57422 0.69922-1.1836 1.2148-1.8281 1.5469-0.64844 0.33203-1.3555 0.5-2.125 0.5-1.3867 0-2.4453-0.42188-3.1719-1.2656-0.71875-0.85156-1.0781-2.0859-1.0781-3.7031z"/>
  </symbol>
  <symbol id="s" overflow="visible">
   <path d="m1.8438-11.969h3.8125v11.969h-3.8125zm0-4.6562h3.8125v3.125h-3.8125z"/>
  </symbol>
  <symbol id="c" overflow="visible">
   <path d="m7.5312-9.5156c-0.84375 0-1.4922 0.30859-1.9375 0.92188-0.44922 0.60547-0.67188 1.4805-0.67188 2.625 0 1.1484 0.22266 2.0273 0.67188 2.6406 0.44531 0.60547 1.0938 0.90625 1.9375 0.90625 0.83203 0 1.4688-0.30078 1.9062-0.90625 0.44531-0.61328 0.67188-1.4922 0.67188-2.6406 0-1.1445-0.22656-2.0195-0.67188-2.625-0.4375-0.61328-1.0742-0.92188-1.9062-0.92188zm0-2.7344c2.0508 0 3.6562 0.55859 4.8125 1.6719 1.1641 1.1055 1.75 2.6406 1.75 4.6094s-0.58594 3.5117-1.75 4.625c-1.1562 1.1055-2.7617 1.6562-4.8125 1.6562-2.0625 0-3.6797-0.55078-4.8438-1.6562-1.168-1.1133-1.75-2.6562-1.75-4.625s0.58203-3.5039 1.75-4.6094c1.1641-1.1133 2.7812-1.6719 4.8438-1.6719z"/>
  </symbol>
  <symbol id="r" overflow="visible">
   <path d="m9.7031-16.625v2.5156h-2.1094c-0.54297 0-0.92188 0.10156-1.1406 0.29688-0.21094 0.19922-0.3125 0.53906-0.3125 1.0156v0.82812h3.2656v2.7344h-3.2656v9.2344h-3.8281v-9.2344h-1.8906v-2.7344h1.8906v-0.82812c0-1.3008 0.36328-2.2656 1.0938-2.8906 0.72656-0.625 1.8516-0.9375 3.375-0.9375z"/>
  </symbol>
  <symbol id="q" overflow="visible">
   <path d="m2.0156-15.953h4.5781l5.8125 10.938v-10.938h3.8906v15.953h-4.5938l-5.7969-10.938v10.938h-3.8906z"/>
  </symbol>
  <symbol id="p" overflow="visible">
   <path d="m13.859-7.2812v7.2812h-3.8438v-5.5781c0-1.0312-0.027344-1.7383-0.078125-2.125-0.042969-0.39453-0.12109-0.6875-0.23438-0.875-0.14844-0.25-0.35156-0.44141-0.60938-0.57812-0.25-0.14453-0.54297-0.21875-0.875-0.21875-0.79297 0-1.418 0.3125-1.875 0.9375-0.46094 0.61719-0.6875 1.4648-0.6875 2.5469v5.8906h-3.8125v-11.969h3.8125v1.75c0.58203-0.69531 1.1953-1.207 1.8438-1.5312 0.64453-0.33203 1.3594-0.5 2.1406-0.5 1.3828 0 2.4297 0.42969 3.1406 1.2812 0.71875 0.84375 1.0781 2.0742 1.0781 3.6875z"/>
  </symbol>
  <symbol id="o" overflow="visible">
   <path d="m2.0156-15.953h6.8125c2.0312 0 3.5859 0.45312 4.6719 1.3594 1.0938 0.89844 1.6406 2.1797 1.6406 3.8438 0 1.6797-0.54688 2.9688-1.6406 3.875-1.0859 0.89844-2.6406 1.3438-4.6719 1.3438h-2.7031v5.5312h-4.1094zm4.1094 2.9844v4.4531h2.2656c0.80078 0 1.4141-0.19141 1.8438-0.57812 0.4375-0.38281 0.65625-0.9375 0.65625-1.6562 0-0.70703-0.21875-1.2539-0.65625-1.6406-0.42969-0.38281-1.043-0.57812-1.8438-0.57812z"/>
  </symbol>
  <symbol id="n" overflow="visible">
   <path d="m1.8438-11.969h3.8125v11.75c0 1.6016-0.38672 2.8281-1.1562 3.6719-0.76172 0.84375-1.8711 1.2656-3.3281 1.2656h-1.8906v-2.5h0.65625c0.72656 0 1.2266-0.16797 1.5-0.5 0.26953-0.32422 0.40625-0.96875 0.40625-1.9375zm0-4.6562h3.8125v3.125h-3.8125z"/>
  </symbol>
  <symbol id="m" overflow="visible">
   <path d="m11.5-11.594v3.125c-0.52344-0.35156-1.043-0.61328-1.5625-0.78125-0.52344-0.17578-1.0625-0.26562-1.625-0.26562-1.0742 0-1.9062 0.3125-2.5 0.9375s-0.89062 1.4961-0.89062 2.6094c0 1.1172 0.29688 1.9844 0.89062 2.6094s1.4258 0.9375 2.5 0.9375c0.59375 0 1.1562-0.085937 1.6875-0.26562 0.53906-0.17578 1.0391-0.44141 1.5-0.79688v3.125c-0.59375 0.23047-1.1992 0.39453-1.8125 0.5-0.61719 0.11328-1.2344 0.17188-1.8594 0.17188-2.1562 0-3.8438-0.55078-5.0625-1.6562-1.2188-1.1133-1.8281-2.6562-1.8281-4.625s0.60938-3.5039 1.8281-4.6094c1.2188-1.1133 2.9062-1.6719 5.0625-1.6719 0.625 0 1.2383 0.058594 1.8438 0.17188 0.61328 0.10547 1.2227 0.26562 1.8281 0.48438z"/>
  </symbol>
 </defs>
 <g>
  <path d="m471.69 63.082c-0.042969-0.0625-0.11328-0.09375-0.16016-0.15234-0.22656-0.28906-0.46875-0.57813-0.77344-0.80469-11.707-8.7812-29.59-15.598-53.074-20.309-5.3828-12.309-14.66-25.016-30.055-36.566-0.21484-0.16016-0.46094-0.26172-0.69531-0.37891-0.10938-0.050782-0.19531-0.12109-0.3125-0.17188-0.47656-0.19141-0.98047-0.28906-1.4922-0.30078-0.042969 0.003906-0.082031-0.023438-0.125-0.023438h-70c-0.039062 0-0.070312 0.023438-0.10938 0.023438-0.51953 0.011718-1.0273 0.10937-1.5156 0.30469-0.10547 0.042969-0.19141 0.10938-0.29688 0.16016-0.23438 0.12109-0.48438 0.21875-0.70312 0.38672-15.395 11.547-24.672 24.254-30.051 36.566-23.266 4.668-41.016 11.41-52.73 20.078-0.003906 0.003907-0.011719 0.007813-0.015625 0.011719-0.10156 0.074219-0.22266 0.14453-0.32422 0.21875-0.30469 0.22656-0.54297 0.51172-0.76953 0.80078-0.046875 0.0625-0.11719 0.09375-0.16797 0.15234-1.8164 2.5508-44.566 65.395-44.566 326.3 0 2.418 1.9609 4.375 4.375 4.375h44.035l-9.0352 135.62c0 9.8359 9.043 12.203 11.922 12.957 2.2383 0.64062 50.129 14.004 136.77 14 11.109 0 22.867-0.21875 35.234-0.71484 2.3477-0.089844 4.2031-2.0195 4.2031-4.3672v-3.0312c34.535-3.6914 51.59-9.4883 53.809-10.289 3.1562-0.82813 11.816-3.3125 11.805-13.227l-8.9258-130.95h43.938c2.4141 0 4.375-1.957 4.375-4.375 0-260.9-42.75-323.75-44.562-326.29zm-99.812 195.04v-26.25h61.223c0.078125 8.8438 0.39453 17.574 1.2422 26.25zm-178.84 83.125h42.629l-1.1641 17.5h-41.777c0.078125-5.9414 0.18359-11.781 0.3125-17.5zm43.227-9.0391-0.015624 0.28906h-42.992c4.4766-165.69 27.996-234.26 37.848-255.99 14.625 41.461 23.535 83.879 27.027 129.11 0 3.4414 0.015625 6.8516 0.035156 10.238 0.14453 26.293 0.27734 51.129-8.5312 75.793-1.1797 3.3047-2.6602 6.8672-4.2266 10.648-3.9297 9.4727-8.3828 20.207-9.1445 29.906zm30.645-100.34h61.223v26.25h-62.461c0.84375-8.6758 1.1602-17.406 1.2383-26.25zm69.973 26.25v-26.25c0-2.4102 1.9648-4.375 4.375-4.375h17.5c2.4102 0 4.375 1.9648 4.375 4.375v26.25c0 2.4102-1.9648 4.375-4.375 4.375h-17.5c-2.4102 0-4.375-1.9648-4.375-4.375zm104.96-42.262c0.015625-3.3828 0.035156-6.793 0.023437-9.9023 3.5039-45.57 12.426-88.035 27.062-129.52 9.8672 21.523 33.371 89.645 37.832 256.05h-42.996l-0.023438-0.33984c-0.75781-9.6484-5.2109-20.383-9.1406-29.855-1.5664-3.7773-3.0469-7.3438-4.2266-10.648-8.8086-24.664-8.6758-49.5-8.5312-75.793zm22.52 125.39h42.617c0.125 5.7188 0.23047 11.555 0.3125 17.5h-41.738zm-1.5078-273.99c-16.246 44.203-25.973 89.398-29.727 138.37 0 3.4258-0.015625 6.8203-0.035156 10.188-0.011719 2.4531-0.023438 4.8828-0.027344 7.3125h-21.812v-43.75c0-0.10938-0.050781-0.19531-0.0625-0.30078-0.027344-0.35938-0.097656-0.70312-0.21484-1.0508-0.0625-0.17969-0.10938-0.35547-0.1875-0.52344-0.039062-0.078125-0.042968-0.17188-0.085937-0.25l-23.457-42.227 17.215-8.6094c1.0664-0.53516 1.8672-1.4805 2.2227-2.6211 0.35547-1.1367 0.22656-2.3711-0.35547-3.418l-15.008-27.012 22.352 11.18c1.0859 0.54297 2.3477 0.61328 3.4844 0.18359 1.1367-0.42187 2.0469-1.2969 2.5117-2.4141 0.14844-0.35938 9.4102-23.488 1.4844-50.836 17.934 3.9844 31.934 9.2734 41.703 15.781zm-52.523-20.738c0.023437 0.10938 0.082031 0.19531 0.11328 0.30469 8.543 20.504 5.0391 39.301 2.6484 47.645l-30.508-15.254c-1.7188-0.85938-3.7891-0.5-5.1133 0.88672-1.3242 1.3828-1.5977 3.4727-0.66406 5.1484l19.656 35.379-13.469 6.7344-16.035-28.867c-0.26172-0.46875-0.60938-0.89062-1.0234-1.2344-3.7422-3.1133-7.1484-6.2617-10.316-9.4062 26.344-28.598 32.375-56.086 33.582-70.047 10.52 9.3516 17.121 19.207 21.129 28.711zm-33.555-11.52h-53.719c-2.8477-9.75-3.5742-17.488-3.7188-21.875h61.328c-0.15234 4.375-0.95312 12.137-3.8906 21.875zm-3.0312 8.75c-4.5195 11.309-12.039 24.402-24.203 37.738-11.879-13.301-19.105-26.406-23.504-37.738zm-62.965-25.906c1.3594 16.609 9.1992 52.215 48.918 85.613l36.289 65.324-92.473-48.09 19.688-35.441c0.93359-1.6758 0.66016-3.7656-0.66406-5.1484-1.3242-1.3867-3.3984-1.7461-5.1133-0.88672l-30.457 15.23c-3.3828-12.254-9.1055-47.223 23.812-76.602zm-31.922 33.625c-7.9258 27.352 1.3359 50.484 1.4844 50.844 0.46484 1.1211 1.375 1.9961 2.5117 2.4141 1.1328 0.42578 2.3945 0.35156 3.4844-0.18359l22.352-11.18-15.008 27.012c-0.57422 1.0312-0.70313 2.2539-0.36328 3.3867 0.33984 1.1289 1.125 2.0781 2.1719 2.6211l107.01 55.648v41.094h-34.039c-2.4023-2.6641-5.8477-4.375-9.7109-4.375h-17.5c-3.8633 0-7.3047 1.7109-9.7109 4.375h-64.602c-0.003906-2.4297-0.011719-4.8555-0.027344-7.3125-0.015625-3.3672-0.035156-6.7656-0.046875-10.527-3.7422-48.641-13.465-93.832-29.715-138.04 9.7695-6.5 23.77-11.793 41.707-15.781zm-86.352 333.53c0.011719-5.9492 0.050782-11.762 0.10938-17.5h41.297l-1.1641 17.5zm44.852 148.89c-5.4805-1.4336-5.4805-3.1445-5.4961-4.2266l13.125-196.82c0.64844-8.2656 4.6367-17.879 8.4961-27.188 1.6094-3.8867 3.1328-7.5508 4.3828-11.059 3.3125-9.2734 5.3906-18.484 6.7422-27.719h66.934c2.4023 2.6641 5.8477 4.375 9.7109 4.375h17.5c3.8633 0 7.3047-1.7109 9.7109-4.375h34.039v280.16c-104.66 3.6953-164.45-12.945-165.14-13.145zm225.29-4.375c-0.14062 0.039063-0.28516 0.085937-0.42188 0.13672-0.16797 0.0625-16.52 6.0039-50.969 9.7656v-272.54h24.141c1.3477 9.2344 3.4258 18.445 6.7383 27.719 1.2539 3.5117 2.7734 7.1797 4.3828 11.059 3.8594 9.3047 7.8477 18.922 8.4961 27.141l13.113 192.21c0 1.3711 0 3.0781-5.4805 4.5156zm4.6992-144.52-1.1953-17.5h41.242c0.058594 5.7383 0.097656 11.551 0.10938 17.5z"/>
  <path d="m380.62 210c7.2344 0 13.125-5.8906 13.125-13.125s-5.8906-13.125-13.125-13.125-13.125 5.8906-13.125 13.125 5.8906 13.125 13.125 13.125zm0-17.5c2.4102 0 4.375 1.9648 4.375 4.375s-1.9648 4.375-4.375 4.375-4.375-1.9648-4.375-4.375 1.9648-4.375 4.375-4.375z"/>
  <path d="m315 210c7.2344 0 13.125-5.8906 13.125-13.125s-5.8906-13.125-13.125-13.125-13.125 5.8906-13.125 13.125 5.8906 13.125 13.125 13.125zm0-17.5c2.4102 0 4.375 1.9648 4.375 4.375s-1.9648 4.375-4.375 4.375-4.375-1.9648-4.375-4.375 1.9648-4.375 4.375-4.375z"/>
  <path d="m380.62 288.75c-7.2344 0-13.125 5.8906-13.125 13.125s5.8906 13.125 13.125 13.125 13.125-5.8906 13.125-13.125-5.8906-13.125-13.125-13.125zm0 17.5c-2.4102 0-4.375-1.9609-4.375-4.375s1.9648-4.375 4.375-4.375 4.375 1.9609 4.375 4.375-1.9648 4.375-4.375 4.375z"/>
  <path d="m315 288.75c-7.2344 0-13.125 5.8906-13.125 13.125s5.8906 13.125 13.125 13.125 13.125-5.8906 13.125-13.125-5.8906-13.125-13.125-13.125zm0 17.5c-2.4102 0-4.375-1.9609-4.375-4.375s1.9648-4.375 4.375-4.375 4.375 1.9609 4.375 4.375-1.9648 4.375-4.375 4.375z"/>
  <path d="m380.62 389.38c-7.2344 0-13.125 5.8906-13.125 13.125s5.8906 13.125 13.125 13.125 13.125-5.8906 13.125-13.125-5.8906-13.125-13.125-13.125zm0 17.5c-2.4102 0-4.375-1.9609-4.375-4.375s1.9648-4.375 4.375-4.375 4.375 1.9609 4.375 4.375-1.9648 4.375-4.375 4.375z"/>
  <path d="m315 389.38c-7.2344 0-13.125 5.8906-13.125 13.125s5.8906 13.125 13.125 13.125 13.125-5.8906 13.125-13.125-5.8906-13.125-13.125-13.125zm0 17.5c-2.4102 0-4.375-1.9609-4.375-4.375s1.9648-4.375 4.375-4.375 4.375 1.9609 4.375 4.375-1.9648 4.375-4.375 4.375z"/>
  <use x="70" y="625.625" xlink:href="#v"/>
  <use x="86.054688" y="625.625" xlink:href="#d"/>
  <use x="96.839844" y="625.625" xlink:href="#b"/>
  <use x="111.679687" y="625.625" xlink:href="#l"/>
  <use x="126.4375" y="625.625" xlink:href="#a"/>
  <use x="136.894531" y="625.625" xlink:href="#b"/>
  <use x="151.730469" y="625.625" xlink:href="#f"/>
  <use x="175.007812" y="625.625" xlink:href="#k"/>
  <use x="190.664062" y="625.625" xlink:href="#e"/>
  <use x="212.539062" y="625.625" xlink:href="#j"/>
  <use x="229.46875" y="625.625" xlink:href="#i"/>
  <use x="252.261719" y="625.625" xlink:href="#b"/>
  <use x="267.097656" y="625.625" xlink:href="#a"/>
  <use x="277.554688" y="625.625" xlink:href="#h"/>
  <use x="293.128906" y="625.625" xlink:href="#e"/>
  <use x="307.386719" y="625.625" xlink:href="#u"/>
  <use x="320.410156" y="625.625" xlink:href="#a"/>
  <use x="338.480469" y="625.625" xlink:href="#t"/>
  <use x="354.234375" y="625.625" xlink:href="#a"/>
  <use x="364.691406" y="625.625" xlink:href="#g"/>
  <use x="380.265625" y="625.625" xlink:href="#f"/>
  <use x="395.925781" y="625.625" xlink:href="#s"/>
  <use x="403.421875" y="625.625" xlink:href="#c"/>
  <use x="70" y="647.5" xlink:href="#r"/>
  <use x="79.515625" y="647.5" xlink:href="#d"/>
  <use x="90.304688" y="647.5" xlink:href="#c"/>
  <use x="105.332031" y="647.5" xlink:href="#i"/>
  <use x="135.742188" y="647.5" xlink:href="#a"/>
  <use x="146.199219" y="647.5" xlink:href="#h"/>
  <use x="161.773438" y="647.5" xlink:href="#b"/>
  <use x="184.222656" y="647.5" xlink:href="#q"/>
  <use x="202.53125" y="647.5" xlink:href="#c"/>
  <use x="217.558594" y="647.5" xlink:href="#g"/>
  <use x="233.132812" y="647.5" xlink:href="#p"/>
  <use x="256.320312" y="647.5" xlink:href="#o"/>
  <use x="272.355469" y="647.5" xlink:href="#d"/>
  <use x="283.140625" y="647.5" xlink:href="#c"/>
  <use x="298.171875" y="647.5" xlink:href="#n"/>
  <use x="305.667969" y="647.5" xlink:href="#b"/>
  <use x="320.503906" y="647.5" xlink:href="#m"/>
  <use x="333.472656" y="647.5" xlink:href="#a"/>
 </g>
</svg>
