<svg width="139" height="135" viewBox="0 0 139 135" fill="none" xmlns="http://www.w3.org/2000/svg">
<path d="M29.0488 35.5262C33.0882 35.7421 37.1337 35.9247 41.1905 36.0751V27.9056C41.1905 20.4494 44.5067 13.4763 49.6924 8.3735C54.8877 3.25778 61.9827 0 69.5007 0C77.019 0 84.1137 3.25778 89.3091 8.3735C94.4937 13.4766 97.811 20.4494 97.811 27.9056V36.0751C101.866 35.9236 105.913 35.74 109.953 35.5262C113.36 35.3458 116.558 36.4317 119.052 38.4037C121.545 40.3768 123.336 43.236 123.932 46.5936C125.629 56.1346 127.135 65.7809 128.445 75.5226C129.737 85.1378 130.833 94.8152 131.722 104.537C131.882 106.29 132.278 107.908 132.927 109.429C133.575 110.948 134.494 112.391 135.693 113.798C137.064 115.406 138.099 117.234 138.619 119.125C139.241 121.381 139.137 123.71 138.041 125.878C136.999 127.94 135.076 129.797 132.049 131.212C128.8 132.73 124.172 133.778 117.846 134.029C101.662 134.675 85.5892 135 69.6081 135C53.6268 135 37.486 134.677 21.1547 134.029C14.8312 133.778 10.2027 132.734 6.95213 131.214C3.92555 129.799 2.00143 127.94 0.959376 125.88C-0.137453 123.711 -0.240884 121.381 0.380788 119.125C0.901179 117.234 1.93658 115.406 3.30697 113.798L3.42764 113.667C4.56218 112.314 5.44028 110.913 6.07489 109.431C6.72458 107.91 7.12 106.291 7.28053 104.536C8.16941 94.8137 9.26514 85.1404 10.557 75.5274C11.8671 65.7843 13.3734 56.1369 15.068 46.5929C15.6649 43.2375 17.4545 40.3781 19.9476 38.4052C22.4375 36.4343 25.6364 35.3463 29.0453 35.5266L29.0488 35.5262ZM45.8232 36.2341C53.6841 36.4779 61.5731 36.5992 69.4866 36.5992C77.408 36.5992 85.3055 36.4779 93.1761 36.2341V27.9067C93.1761 21.7264 90.4027 15.9232 86.0682 11.6591C81.7003 7.35726 75.7649 4.62053 69.4996 4.62053C63.2343 4.62053 57.299 7.35728 52.9311 11.6591C48.5965 15.9243 45.8232 21.7275 45.8232 27.9067V36.2341ZM41.1891 50.7621V40.6882C37.07 40.5335 32.9445 40.3477 28.815 40.1275C26.5653 40.0094 24.4622 40.7226 22.8288 42.0136C21.1965 43.3047 20.021 45.182 19.631 47.3861C17.92 57.0162 16.4201 66.6056 15.1381 76.142C13.8463 85.755 12.7559 95.3614 11.8801 104.953C11.6743 107.206 11.1647 109.285 10.3308 111.236C9.5227 113.122 8.40218 114.908 6.94976 116.635L6.83663 116.779C5.87556 117.906 5.16339 119.13 4.8337 120.334C4.50509 121.525 4.54387 122.727 5.0869 123.804C5.68488 124.988 6.90343 126.11 8.9084 127.047C11.6343 128.322 15.6693 129.206 21.3374 129.429C37.361 130.064 53.443 130.382 69.6061 130.382C85.7716 130.382 101.781 130.062 117.662 129.429C123.331 129.206 127.365 128.32 130.091 127.045C132.094 126.108 133.313 124.986 133.912 123.802C134.456 122.727 134.494 121.525 134.165 120.334C133.836 119.13 133.123 117.906 132.162 116.779C130.665 115.02 129.504 113.19 128.67 111.235C127.836 109.284 127.328 107.205 127.121 104.954C126.245 95.3646 125.155 85.7538 123.863 76.1377C122.581 66.6042 121.081 57.0159 119.368 47.3874C118.978 45.1834 117.802 43.3047 116.17 42.0127C114.538 40.7216 112.432 40.0106 110.183 40.1287C106.053 40.3489 101.928 40.5348 97.8088 40.6894V50.7655C99.0489 51.1457 100.156 51.8235 101.051 52.7149L101.19 52.8664C102.531 54.2756 103.355 56.1778 103.355 58.2582C103.355 60.4128 102.472 62.3752 101.045 63.7962C99.6296 65.2183 97.661 66.0991 95.4923 66.0991C93.3213 66.0991 91.3528 65.2205 89.9295 63.8016C88.5084 62.3849 87.6249 60.4226 87.6249 58.2583C87.6249 56.094 88.5084 54.1316 89.9295 52.715C90.8238 51.8235 91.9346 51.1458 93.1748 50.7634V40.8476C85.2557 41.0947 77.3559 41.2203 69.4854 41.2203C61.6223 41.2203 53.7325 41.0968 45.8219 40.8498V50.7667C47.0588 51.149 48.1664 51.8268 49.0606 52.7204C50.4871 54.1318 51.3706 56.0942 51.3706 58.2585C51.3706 60.4206 50.4871 62.3851 49.066 63.8018C47.6449 65.2185 45.6742 66.0992 43.5054 66.0992C41.3344 66.0992 39.3659 65.2206 37.9427 63.8018C36.5216 62.3851 35.6381 60.4227 35.6381 58.2585C35.6381 56.0942 36.5215 54.1318 37.9427 52.7152C38.837 51.8237 39.9478 51.146 41.188 50.7636L41.1891 50.7621ZM45.7898 55.9746C45.2112 55.3946 44.401 55.0358 43.5057 55.0358C42.6135 55.0358 41.8033 55.3978 41.2194 55.9799C40.6354 56.5621 40.2723 57.3677 40.2723 58.257C40.2723 59.1463 40.6354 59.9519 41.2194 60.534C41.8033 61.1162 42.6135 61.4781 43.5057 61.4781C44.3956 61.4781 45.2058 61.1162 45.7898 60.534C46.3738 59.9519 46.7368 59.1442 46.7368 58.257C46.7368 57.3676 46.3738 56.5621 45.7898 55.9746ZM97.7737 55.98C97.1898 55.3978 96.3817 55.0358 95.4918 55.0358C94.5996 55.0358 93.7894 55.3978 93.2054 55.98C92.6215 56.5621 92.2584 57.3677 92.2584 58.257C92.2584 59.1463 92.6215 59.9519 93.2054 60.534C93.7894 61.1162 94.5996 61.4781 95.4918 61.4781C96.3817 61.4781 97.1898 61.1162 97.7737 60.534C98.3609 59.9572 98.7208 59.1495 98.7208 58.257C98.7208 57.4096 98.3976 56.6405 97.8707 56.0712L97.7737 55.98Z" fill="#CDCDCD"/>
</svg>
