<svg width="122" height="84" viewBox="0 0 122 84" fill="none" xmlns="http://www.w3.org/2000/svg">
<path d="M112.001 24.5604C103.382 16.3894 88.8452 12.7885 68.7948 13.8595C67.5943 13.9233 66.4171 14.009 65.2524 14.1053C64.396 10.4009 62.2541 3.31408 58.076 1.19866C57.981 1.15083 57.8787 1.11894 57.7737 1.10499C54.6652 0.692416 52.2967 1.49697 50.7341 3.49798C50.3195 4.02947 50.1454 4.69382 50.2451 5.3695C50.3474 6.06376 50.7361 6.69624 51.3114 7.10344C54.0406 9.03416 55.7526 11.6763 56.5319 15.1563C39.099 17.9433 26.4061 24.1797 18.3428 29.4148C7.63847 36.3661 2.65912 42.938 2.4518 43.2144C2.43319 43.239 2.41592 43.2642 2.39998 43.2908C2.29434 43.4655 -0.166488 47.6257 1.69242 52.9964C3.07231 56.9832 7.60396 60.341 7.78731 60.4759C7.95406 60.6008 11.1843 63.0024 17.0293 65.8845V71.727C17.0293 71.925 17.0918 72.1183 17.2074 72.2798C17.5096 72.6997 25.0176 82.5642 59.7249 82.5642C77.7293 82.5642 90.099 79.8548 97.3069 77.5821C105.186 75.0974 108.751 72.6193 108.898 72.515C109.149 72.3376 109.299 72.0499 109.299 71.743V65.3212C111.035 63.4849 120.054 53.4318 120.054 42.7265C120.055 39.5608 119.271 31.4528 112.001 24.5604ZM52.401 5.56109C52.2449 5.45081 52.1399 5.28074 52.1127 5.09471C52.0961 4.98177 52.1014 4.81435 52.2217 4.66087C53.3325 3.23847 55.014 2.68033 57.3585 2.95738C59.7841 4.29674 61.9878 8.47366 63.3517 14.2775C61.6642 14.445 60.0126 14.6423 58.4028 14.8722C57.5364 10.8986 55.5209 7.76801 52.401 5.56109ZM107.409 71.2262C106.29 71.9145 102.808 73.8763 96.6138 75.8176C89.5483 78.0325 77.4138 80.6728 59.7258 80.6728C42.2044 80.6728 31.9828 78.0798 26.4927 75.9047C21.5904 73.9621 19.5003 72.0041 18.9197 71.3791V66.7884C23.6798 69.1814 28.4042 71.0709 33.2034 72.0587C40.5261 74.1196 49.5228 75.7373 59.7252 75.7373C71.8665 75.7951 83.3915 74.3036 96.0435 70.7712C101.689 69.0844 105.503 67.4102 107.409 66.4868V71.2264L107.409 71.2262ZM107.774 64.1792C107.115 64.5333 103.632 66.3344 97.5912 68.2883C101.29 63.3992 109.008 52.3687 107.909 46.7854C107.553 44.9731 106.747 43.8994 105.516 43.5944C102.462 42.8397 98.3167 47.7421 97.5168 48.7326C97.1893 49.1386 97.2524 49.7332 97.6583 50.0614C98.0643 50.3889 98.6589 50.3258 98.9871 49.9199C100.614 47.9048 103.673 45.0846 105.062 45.4288C105.631 45.5696 105.916 46.4426 106.055 47.1502C107.062 52.2664 98.2191 64.5797 94.4562 69.2415C87.0644 71.3622 76.7545 73.4164 63.8508 73.7864C64.6666 71.9136 66.1514 68.3632 67.3998 64.6016C69.9702 56.8558 70.3183 52.1002 68.4641 50.0627C67.3001 48.7845 66.1482 48.6762 65.386 48.8111C62.6774 49.2894 60.8584 53.5526 60.6598 54.037C60.4618 54.52 60.693 55.0714 61.176 55.2694C61.6583 55.4674 62.2104 55.2362 62.4084 54.7532C62.912 53.5228 64.3835 50.9066 65.7148 50.672C65.8736 50.6441 66.3593 50.5578 67.0662 51.3351C67.6701 51.9987 68.7384 54.5606 65.6099 63.9925C64.1675 68.3407 62.4024 72.4034 61.7658 73.8298C61.0908 73.8391 60.4118 73.8457 59.7235 73.8457C49.8106 73.8457 41.0609 72.2885 33.9211 70.2954C30.1707 64.2709 25.313 54.1607 27.7146 51.6719C28.3338 51.0308 28.7411 51.1026 28.8753 51.1258C29.8678 51.2999 30.9448 53.0458 31.3115 53.8644C31.5234 54.3408 32.0815 54.5554 32.5585 54.3434C33.0355 54.1315 33.2501 53.5734 33.0381 53.0964C32.8827 52.7463 31.453 49.6617 29.2055 49.2651C28.5065 49.1415 27.4443 49.2312 26.3553 50.36C24.4266 52.359 24.9209 56.4814 27.8661 62.9635C29.0274 65.52 30.3269 67.8951 31.2583 69.5101C28.0115 68.5023 25.1515 67.4267 22.7345 66.4096C13.9929 62.729 8.96947 58.9987 8.91181 58.9555C8.86929 58.9243 4.66192 55.8011 3.47597 52.3755C1.98448 48.0678 3.75966 44.7148 3.99219 44.3042C4.42337 43.7468 9.41935 37.4419 19.4493 30.9451C29.0912 24.6994 45.4966 16.9922 68.8924 15.7431C88.4054 14.7027 102.471 18.1288 110.699 25.9292C117.436 32.3165 118.164 39.8017 118.164 42.7237C118.164 52.9875 108.81 63.0921 107.773 64.1789L107.774 64.1792Z" fill="#CDCDCD" stroke="#CDCDCD" stroke-width="2"/>
</svg>
