<svg width="122" height="82" viewBox="0 0 122 82" fill="none" xmlns="http://www.w3.org/2000/svg">
<path d="M58.3594 0.746446L58.3604 0.746937C60.6065 1.86115 62.2496 4.24626 63.4288 6.72518C64.5291 9.03817 65.2625 11.5124 65.7083 13.3216C66.7387 13.2407 67.7812 13.1688 68.8425 13.1136C88.9601 12.0608 103.684 15.5888 112.462 23.7422L112.122 24.1086L112.462 23.7423C119.88 30.633 120.685 38.7457 120.684 41.9263L58.3594 0.746446ZM58.3594 0.746446C58.2158 0.675621 58.0606 0.628052 57.9002 0.607163L57.9001 0.607151M58.3594 0.746446L57.9001 0.607151M57.9001 0.607151C54.6649 0.186458 52.099 1.00341 50.3973 3.13842L50.3971 3.13865M57.9001 0.607151L50.3971 3.13865M50.3971 3.13865C49.8952 3.76903 49.684 4.56054 49.8043 5.36014C49.9276 6.17982 50.3942 6.92085 51.0813 7.39728L51.0814 7.39734M50.3971 3.13865L51.0814 7.39734M51.0814 7.39734C53.5655 9.11906 55.173 11.4351 55.977 14.4764M51.0814 7.39734L55.977 14.4764M55.977 14.4764C38.724 17.2626 26.1313 23.335 18.0933 28.448L18.0933 28.4481C7.32555 35.2989 2.29878 41.7844 2.05698 42.1001C2.02897 42.1364 2.00159 42.1755 1.97555 42.2179M55.977 14.4764L109.417 64.0877M1.97555 42.2179C1.9757 42.2177 1.97585 42.2174 1.97599 42.2172L2.4015 42.4798L1.9751 42.2187C1.97525 42.2184 1.9754 42.2182 1.97555 42.2179ZM1.97555 42.2179C1.83875 42.4399 -0.713706 46.6872 1.22173 52.1658C1.94971 54.2265 3.49205 56.0912 4.83972 57.4378C6.18857 58.7855 7.38657 59.6574 7.50067 59.7397C7.70207 59.8874 10.8587 62.1806 16.5468 64.9534V70.3707C16.5468 70.6725 16.644 70.9652 16.8213 71.2079L16.8221 71.2089C17.2561 71.7996 24.9602 81.5 59.7889 81.5C77.8629 81.5 90.2958 78.8351 97.5594 76.5912L97.4118 76.1135L97.5594 76.5912C105.494 74.1397 109.109 71.6871 109.3 71.5547C109.3 71.5546 109.3 71.5546 109.3 71.5546L109.016 71.1435C109.267 70.9696 109.417 70.6874 109.417 70.3863V64.0877M109.417 64.0877L109.776 64.435C109.819 64.3909 109.866 64.3421 109.917 64.2886V64.0877H109.417ZM107.025 66.0144C104.933 66.9661 101.335 68.4354 96.2876 69.9131L96.279 69.9156L96.279 69.9155C83.5702 73.3919 71.988 74.8608 59.7885 74.8041C59.788 74.8041 59.7874 74.8041 59.7869 74.8041L59.7892 74.3041L107.025 66.0144ZM107.025 66.0144V69.5942C105.721 70.3536 102.331 72.136 96.5712 73.9048L96.718 74.3828L96.5712 73.9048C89.5457 76.0626 77.4475 78.6449 59.7897 78.6449C42.2964 78.6449 32.1274 76.1083 26.7014 74.0021C22.2046 72.2562 20.1341 70.5105 19.4392 69.8251V66.3267C23.9794 68.5163 28.5107 70.2506 33.1225 71.1827L107.025 66.0144ZM60.7248 53.0199C60.9236 52.5448 62.7446 48.3633 65.4562 47.8942C66.2191 47.7619 67.3724 47.8681 68.5376 49.1218C70.3938 51.1203 70.0453 55.7846 67.4721 63.3819C66.3293 66.7557 64.9886 69.9563 64.143 71.8839C64.328 71.8784 64.5125 71.8726 64.6964 71.8664M60.7248 53.0199L105.175 44.5768C105.745 44.7149 106.03 45.5711 106.17 46.2651M60.7248 53.0199C60.5266 53.4936 60.758 54.0345 61.2415 54.2287L60.7248 53.0199ZM64.6964 71.8664C64.6183 72.0455 64.5438 72.215 64.4736 72.374C77.1326 71.9698 87.2644 69.983 94.558 67.9328M64.6964 71.8664C65.5484 69.9133 66.8388 66.8101 67.9457 63.5423C69.2378 59.7275 69.9832 56.6162 70.1645 54.1896C70.3445 51.7802 69.9764 49.9362 68.9039 48.7816L68.9038 48.7814C67.6133 47.393 66.2851 47.243 65.3708 47.4015C63.805 47.6725 62.5706 48.9862 61.7394 50.167C60.8901 51.3732 60.3689 52.5752 60.2635 52.8269L60.2635 52.8269C59.9548 53.5647 60.3196 54.3971 61.055 54.6926C61.7857 54.9864 62.6304 54.6471 62.9365 53.9153L62.9366 53.9151C63.1752 53.3441 63.651 52.4356 64.2238 51.6489C64.5099 51.256 64.8101 50.9075 65.106 50.6485C65.4084 50.3839 65.6673 50.2472 65.8704 50.2122L65.875 50.2114C65.9244 50.2028 65.9935 50.1908 66.109 50.2264C66.2364 50.2655 66.4629 50.3773 66.7717 50.7099L66.7718 50.71C66.9499 50.9018 67.3573 51.5408 67.3105 53.3391C67.2638 55.1343 66.7648 58.0217 65.2067 62.6242C63.8598 66.6023 62.2287 70.3391 61.5078 71.9372C60.9382 71.9442 60.3659 71.9488 59.7875 71.9488C50.0012 71.9488 41.3528 70.4557 34.2756 68.5351C32.435 65.6178 30.3506 61.7707 29.0062 58.35C28.3203 56.6048 27.837 54.9955 27.6682 53.6891C27.4947 52.347 27.6734 51.4842 28.1 51.051C28.3649 50.7823 28.5514 50.6963 28.6489 50.6674C28.7336 50.6423 28.7802 50.6503 28.8167 50.6566L28.821 50.6573C28.8211 50.6573 28.8212 50.6574 28.8213 50.6574C28.9533 50.6801 29.1292 50.7637 29.3421 50.9339C29.5504 51.1005 29.764 51.3258 29.9695 51.5828C30.3814 52.098 30.7216 52.6909 30.8895 53.0578C31.2174 53.7792 32.0706 54.0931 32.7924 53.7789C33.5199 53.4622 33.8585 52.6188 33.5284 51.8909C33.443 51.7024 33.0275 50.8206 32.3349 49.9288C31.6539 49.052 30.6347 48.0739 29.3215 47.8468C28.4773 47.7006 27.2435 47.8269 26.0267 49.0626C24.9099 50.1966 24.5531 51.8806 24.8132 54.0061C25.0733 56.1325 25.9588 58.7878 27.4417 61.9856C28.3645 63.9759 29.3728 65.8529 30.2173 67.3383C27.483 66.4675 25.0477 65.5584 22.9488 64.693C18.5969 62.8978 15.1722 61.091 12.8306 59.7295C11.6599 59.0488 10.7602 58.4796 10.1511 58.0789C9.84649 57.8786 9.61458 57.7204 9.45777 57.6116C9.37937 57.5571 9.31975 57.5151 9.27922 57.4862L9.23283 57.453L9.22055 57.4441L9.21632 57.441L9.21244 57.4382C9.21277 57.4384 9.19619 57.4264 9.16405 57.4025C9.13238 57.3789 9.08625 57.3442 9.02741 57.2991C8.90971 57.2088 8.74133 57.0768 8.53623 56.9086C8.12566 56.5719 7.56993 56.0913 6.97983 55.5096C5.78723 54.3338 4.5048 52.7935 3.9501 51.2237L3.47867 51.3903L3.9501 51.2237C2.56375 47.3007 4.14341 44.23 4.41089 43.7546C4.95434 43.0723 9.91526 37.0264 19.7373 30.793L19.4694 30.3709L19.7373 30.793C29.3289 24.7056 45.6701 17.1796 68.9925 15.9597C88.4848 14.9415 102.392 18.3071 110.478 25.8175C117.083 31.9519 117.792 39.1336 117.792 41.9235C117.792 46.8149 115.511 51.7112 113.058 55.5517C110.69 59.2606 108.2 61.9258 107.585 62.5628C106.862 62.9384 103.962 64.3803 99.0646 66.0255C100.862 63.6283 103.191 60.3242 105.098 56.9542C106.234 54.9452 107.229 52.8991 107.87 50.9986C108.508 49.1095 108.817 47.3062 108.516 45.8089C108.14 43.9352 107.248 42.6556 105.747 42.2917L105.747 42.2916C104.836 42.0711 103.887 42.2726 103.002 42.6577C102.113 43.0443 101.244 43.6362 100.465 44.267C98.9067 45.5291 97.6443 47.004 97.2361 47.4992L97.236 47.4994C96.7289 48.1152 96.8291 49.0181 97.4532 49.5124L97.4536 49.5127C98.0718 50.0015 98.9765 49.9094 99.4795 49.2999L99.4797 49.2997C100.274 48.3358 101.421 47.1763 102.532 46.3049C103.089 45.8686 103.621 45.5167 104.083 45.2958C104.566 45.065 104.884 45.0206 105.057 45.0627L105.058 45.0627C105.125 45.079 105.248 45.1606 105.387 45.4371C105.518 45.6974 105.613 46.035 105.68 46.3638M64.6964 71.8664C77.113 71.4494 87.0706 69.5062 94.2716 67.4938M94.558 67.9328C98.3251 63.3604 107.178 51.2833 106.17 46.2651M94.558 67.9328L94.1721 67.6149C94.2049 67.5751 94.238 67.5347 94.2716 67.4938M94.558 67.9328L94.4227 67.4514C94.3725 67.4656 94.3221 67.4797 94.2716 67.4938M106.17 46.2651L105.68 46.3638M106.17 46.2651L105.68 46.3636C105.68 46.3637 105.68 46.3637 105.68 46.3638M105.68 46.3638C105.902 47.4692 105.586 49.0494 104.845 50.9425C104.112 52.8144 102.999 54.91 101.727 57.0068C99.2292 61.1256 96.1547 65.1965 94.2716 67.4938M52.7419 5.06267L52.7416 5.06249C52.6953 5.03048 52.6691 4.98399 52.6629 4.9423L52.6629 4.94196C52.6609 4.92865 52.6614 4.91886 52.6624 4.91355C52.6628 4.91142 52.6632 4.91031 52.6636 4.90963C52.6638 4.90913 52.6648 4.90695 52.668 4.90294L52.6685 4.90232C53.6247 3.70263 55.0811 3.17297 57.2648 3.40567C58.3278 4.01328 59.398 5.25085 60.3784 7.06682C61.3117 8.79568 62.1402 11.0055 62.7958 13.5825C61.4561 13.7187 60.139 13.8736 58.8477 14.0487C57.902 10.2468 55.8529 7.2188 52.7419 5.06267ZM30.92 67.5592C31.049 67.7828 31.173 67.9955 31.2912 68.1963C31.0537 68.1241 30.8183 68.0515 30.5849 67.9786L30.92 67.5592Z" fill="#CDCDCD" stroke="#CDCDCD"/>
</svg>
