<svg width="217" height="360" viewBox="0 0 217 360" fill="none" xmlns="http://www.w3.org/2000/svg">
<path d="M187.8 38.2903C187.772 38.2496 187.727 38.2292 187.696 38.191C187.548 38.0025 187.39 37.8139 187.191 37.6661C179.556 31.9388 167.892 27.4927 152.575 24.4201C149.064 16.3918 143.014 8.10393 132.972 0.570704C132.832 0.466244 132.672 0.400003 132.519 0.323569C132.448 0.290447 132.392 0.244591 132.315 0.211464C132.004 0.0866212 131.676 0.022931 131.342 0.0152869C131.314 0.0178345 131.288 0 131.26 0H85.6044C85.5789 0 85.5586 0.0152869 85.5331 0.0152869C85.1942 0.0229297 84.8631 0.0866213 84.5446 0.214014C84.4758 0.24204 84.4197 0.285355 84.3509 0.318475C84.1981 0.397453 84.035 0.46115 83.8923 0.570704C73.8513 8.10198 67.8006 16.3898 64.2923 24.4201C49.1175 27.4647 37.5405 31.862 29.9003 37.5155C29.8977 37.518 29.8926 37.5206 29.8901 37.5231C29.8239 37.5715 29.7449 37.6174 29.6786 37.6658C29.4799 37.8136 29.3245 37.9996 29.1767 38.1881C29.1462 38.2289 29.1003 38.2492 29.0672 38.2875C27.8825 39.9512 0 80.9399 0 251.109C0 252.686 1.27895 253.963 2.8535 253.963H31.5743L25.6813 342.418C25.6813 348.833 31.5794 350.377 33.4572 350.869C34.9171 351.287 66.1527 360.003 122.662 360C129.908 360 137.577 359.857 145.643 359.534C147.174 359.475 148.384 358.217 148.384 356.685V354.708C170.909 352.301 182.033 348.52 183.48 347.998C185.539 347.457 191.187 345.837 191.18 339.371L185.358 253.961H214.016C215.59 253.961 216.869 252.685 216.869 251.108C216.869 80.9417 188.986 39.9492 187.804 38.2925L187.8 38.2903ZM122.7 165.501V148.38H162.632C162.683 154.148 162.889 159.842 163.442 165.501H122.7ZM6.05589 219.717H33.8597L33.1004 231.131H5.85233C5.90329 227.256 5.97181 223.447 6.05589 219.717ZM34.2497 213.822L34.2395 214.01H6.19897C9.11873 105.943 24.4587 61.2194 30.8845 47.0465C40.4233 74.0885 46.2347 101.755 48.5122 131.256C48.5122 133.5 48.5224 135.724 48.5352 137.933C48.6294 155.082 48.7161 171.281 42.9709 187.367C42.2015 189.523 41.2358 191.846 40.2142 194.312C37.6511 200.491 34.7467 207.492 34.2499 213.818L34.2497 213.822ZM54.2372 148.377H94.1686V165.498H53.4298C53.9801 159.84 54.1863 154.145 54.2372 148.377ZM99.8756 165.498V148.377C99.8756 146.805 101.157 145.524 102.729 145.524H114.143C115.715 145.524 116.997 146.805 116.997 148.377V165.498C116.997 167.07 115.715 168.352 114.143 168.352H102.729C101.157 168.352 99.8756 167.07 99.8756 165.498ZM168.333 137.934C168.344 135.727 168.356 133.503 168.349 131.475C170.634 101.753 176.453 74.0563 185.999 46.9986C192.435 61.0365 207.765 105.468 210.674 214.002H182.631L182.616 213.78C182.122 207.487 179.217 200.485 176.654 194.308C175.632 191.844 174.667 189.518 173.897 187.363C168.152 171.276 168.239 155.077 168.333 137.928L168.333 137.934ZM183.022 219.717H210.818C210.899 223.446 210.968 227.253 211.021 231.131H183.799L183.022 219.717ZM182.038 41.0127C171.442 69.8431 165.098 99.3205 162.649 131.261C162.649 133.496 162.639 135.71 162.626 137.906C162.619 139.506 162.611 141.091 162.609 142.676H148.382V114.141C148.382 114.069 148.349 114.013 148.341 113.945C148.324 113.71 148.278 113.486 148.201 113.259C148.161 113.142 148.13 113.027 148.079 112.918C148.054 112.867 148.051 112.806 148.023 112.755L132.724 85.2132L143.952 79.5979C144.647 79.2488 145.17 78.6322 145.401 77.8883C145.633 77.1469 145.549 76.3418 145.17 75.659L135.381 58.041L149.96 65.3329C150.668 65.6871 151.491 65.7329 152.232 65.4527C152.974 65.1775 153.567 64.6068 153.87 63.8781C153.967 63.6437 160.008 48.5586 154.839 30.7215C166.536 33.3202 175.667 36.7699 182.038 41.0143L182.038 41.0127ZM147.781 27.4868C147.796 27.5581 147.835 27.6142 147.855 27.6855C153.427 41.0588 151.142 53.3187 149.582 58.7609L129.684 48.8118C128.563 48.2513 127.213 48.4857 126.349 49.3902C125.486 50.2921 125.307 51.6552 125.916 52.7481L138.736 75.8232L129.951 80.2156L119.493 61.3878C119.322 61.082 119.096 60.8069 118.825 60.5826C116.385 58.5521 114.163 56.4986 112.097 54.4477C129.279 35.7953 133.213 17.8668 134 8.76108C140.862 14.8605 145.167 21.288 147.781 27.4868ZM125.896 19.9731H90.8587C89.0013 13.6139 88.5275 8.56697 88.4331 5.70565H128.433C128.334 8.55914 127.812 13.6217 125.896 19.9731ZM123.919 25.6801C120.971 33.0562 116.066 41.5958 108.133 50.2939C100.385 41.6186 95.672 33.0712 92.8028 25.6801H123.919ZM82.8511 8.78351C83.7378 19.6164 88.8511 42.8396 114.757 64.6227L138.425 107.229L78.112 75.8632L90.9531 52.7476C91.562 51.6546 91.3837 50.2915 90.52 49.3896C89.6563 48.4852 88.3034 48.2508 87.1849 48.8113L67.32 58.7447C65.1137 50.7523 61.3812 27.9446 82.8509 8.78278L82.8511 8.78351ZM62.0307 30.7147C56.8613 48.5544 62.902 63.6417 62.9989 63.8765C63.3021 64.6077 63.8957 65.1784 64.6371 65.4511C65.3759 65.7288 66.1988 65.6804 66.9097 65.3313L81.4883 58.0394L71.6997 75.6574C71.3251 76.33 71.2411 77.1274 71.4627 77.8663C71.6844 78.6026 72.1965 79.2217 72.8793 79.5758L142.674 115.871V142.674H120.473C118.906 140.936 116.659 139.82 114.139 139.82H102.725C100.206 139.82 97.961 140.936 96.3916 142.674H54.2564C54.2538 141.089 54.2487 139.507 54.2385 137.904C54.2283 135.708 54.2156 133.492 54.208 131.038C51.7672 99.3132 45.4257 69.8384 34.827 41.0047C41.199 36.7653 50.3305 33.313 62.0295 30.7119L62.0307 30.7147ZM5.70956 248.252C5.7172 244.372 5.74268 240.581 5.7809 236.838H32.7159L31.9567 248.252H5.70956ZM34.9633 345.362C31.3887 344.427 31.3887 343.311 31.3786 342.606L39.939 214.234C40.362 208.843 42.9632 202.573 45.4804 196.501C46.5301 193.966 47.5237 191.577 48.339 189.288C50.4995 183.24 51.8549 177.233 52.7365 171.209H96.3927C97.9595 172.947 100.207 174.063 102.726 174.063H114.14C116.66 174.063 118.905 172.947 120.474 171.209H142.675V353.937C74.4131 356.348 35.4164 345.494 34.9664 345.364L34.9633 345.362ZM181.904 342.509C181.812 342.534 181.718 342.565 181.628 342.598C181.519 342.639 170.854 346.514 148.385 348.967V171.209H164.13C165.01 177.232 166.365 183.24 168.525 189.288C169.343 191.579 170.334 193.971 171.384 196.501C173.901 202.57 176.502 208.843 176.925 214.203L185.478 339.568C185.478 340.462 185.478 341.576 181.904 342.513L181.904 342.509ZM184.969 248.249L184.189 236.835H211.088C211.126 240.578 211.152 244.369 211.159 248.249H184.969Z" fill="#CDCDCD"/>
<path d="M128.402 134.114C133.121 134.114 136.963 130.272 136.963 125.554C136.963 120.835 133.121 116.993 128.402 116.993C123.684 116.993 119.842 120.835 119.842 125.554C119.842 130.272 123.684 134.114 128.402 134.114ZM128.402 122.7C129.974 122.7 131.256 123.982 131.256 125.554C131.256 127.126 129.974 128.407 128.402 128.407C126.83 128.407 125.549 127.126 125.549 125.554C125.549 123.982 126.83 122.7 128.402 122.7Z" fill="#CDCDCD"/>
<path d="M85.6027 134.114C90.3212 134.114 94.1632 130.272 94.1632 125.554C94.1632 120.835 90.3212 116.993 85.6027 116.993C80.8842 116.993 77.0422 120.835 77.0422 125.554C77.0422 130.272 80.8842 134.114 85.6027 134.114ZM85.6027 122.7C87.1747 122.7 88.4562 123.982 88.4562 125.554C88.4562 127.126 87.1747 128.407 85.6027 128.407C84.0307 128.407 82.7492 127.126 82.7492 125.554C82.7492 123.982 84.0307 122.7 85.6027 122.7Z" fill="#CDCDCD"/>
<path d="M128.402 185.477C123.684 185.477 119.842 189.319 119.842 194.038C119.842 198.756 123.684 202.598 128.402 202.598C133.121 202.598 136.963 198.756 136.963 194.038C136.963 189.319 133.121 185.477 128.402 185.477ZM128.402 196.891C126.83 196.891 125.549 195.612 125.549 194.038C125.549 192.463 126.83 191.184 128.402 191.184C129.974 191.184 131.256 192.463 131.256 194.038C131.256 195.612 129.974 196.891 128.402 196.891Z" fill="#CDCDCD"/>
<path d="M85.6027 185.477C80.8842 185.477 77.0422 189.319 77.0422 194.038C77.0422 198.756 80.8842 202.598 85.6027 202.598C90.3212 202.598 94.1632 198.756 94.1632 194.038C94.1632 189.319 90.3212 185.477 85.6027 185.477ZM85.6027 196.891C84.0307 196.891 82.7492 195.612 82.7492 194.038C82.7492 192.463 84.0307 191.184 85.6027 191.184C87.1747 191.184 88.4562 192.463 88.4562 194.038C88.4562 195.612 87.1747 196.891 85.6027 196.891Z" fill="#CDCDCD"/>
<path d="M128.402 251.111C123.684 251.111 119.842 254.953 119.842 259.671C119.842 264.39 123.684 268.232 128.402 268.232C133.121 268.232 136.963 264.39 136.963 259.671C136.963 254.953 133.121 251.111 128.402 251.111ZM128.402 262.525C126.83 262.525 125.549 261.246 125.549 259.671C125.549 258.097 126.83 256.818 128.402 256.818C129.974 256.818 131.256 258.097 131.256 259.671C131.256 261.246 129.974 262.525 128.402 262.525Z" fill="#CDCDCD"/>
<path d="M85.6027 251.111C80.8842 251.111 77.0422 254.953 77.0422 259.671C77.0422 264.39 80.8842 268.232 85.6027 268.232C90.3212 268.232 94.1632 264.39 94.1632 259.671C94.1632 254.953 90.3212 251.111 85.6027 251.111ZM85.6027 262.525C84.0307 262.525 82.7492 261.246 82.7492 259.671C82.7492 258.097 84.0307 256.818 85.6027 256.818C87.1747 256.818 88.4562 258.097 88.4562 259.671C88.4562 261.246 87.1747 262.525 85.6027 262.525Z" fill="#CDCDCD"/>
</svg>
