<svg width="139" height="82" viewBox="0 0 139 82" fill="none" xmlns="http://www.w3.org/2000/svg">
<path d="M45.1142 35.7798H26.3778C22.7418 35.7841 19.2564 37.2297 16.6855 39.8004C14.1146 42.3712 12.669 45.8568 12.6648 49.4928V53.1749C12.6691 58.5938 14.823 63.7893 18.6524 67.6231C22.4829 71.4557 27.6773 73.6128 33.0961 73.6214H35.3144C41.6685 73.6171 47.7582 71.0774 52.23 66.5635C56.7032 62.0507 59.188 55.9396 59.1355 49.5855C59.0785 45.9044 57.576 42.3931 54.9525 39.8106C52.329 37.2269 48.7952 35.7793 45.1141 35.7804L45.1142 35.7798ZM49.4895 63.8523C45.7504 67.6473 40.6421 69.7796 35.3143 69.7689H33.096C28.6982 69.7603 24.4839 68.0095 21.3767 64.8992C18.2685 61.7876 16.5211 57.5714 16.5167 53.1747V49.4925C16.521 46.8787 17.5613 44.3724 19.41 42.5238C21.2587 40.6751 23.7638 39.6359 26.3777 39.6315H45.1141C47.7827 39.6272 50.3461 40.674 52.2496 42.5452C54.153 44.4164 55.2428 46.9626 55.2835 49.6312C55.3416 54.9576 53.2544 60.0831 49.4893 63.8526L49.4895 63.8523ZM112.293 35.7798H93.5564C89.8645 35.7798 86.321 37.2351 83.6965 39.8318C81.0708 42.4284 79.5757 45.9547 79.535 49.6466C79.4823 56.0006 81.9672 62.1128 86.4404 66.6257C90.9125 71.1385 97.0022 73.6794 103.356 73.6824H105.574C111.004 73.6749 116.208 71.5093 120.039 67.6627C123.871 63.8162 126.017 58.6045 126.006 53.1749V49.4928C126.001 45.8568 124.556 42.3713 121.985 39.8004C119.414 37.2295 115.929 35.7839 112.293 35.7798ZM122.154 53.1749C122.149 57.5717 120.402 61.7882 117.294 64.8995C114.187 68.0099 109.973 69.7606 105.574 69.7691H103.356C98.022 69.7691 92.9083 67.6422 89.1488 63.8592C85.3893 60.076 83.2935 54.9493 83.3257 49.6163C83.3698 46.9498 84.4617 44.4079 86.3641 42.54C88.2675 40.672 90.8288 39.6274 93.4951 39.6318H112.293C114.906 39.6361 117.412 40.6754 119.26 42.524C121.109 44.3727 122.149 46.8789 122.154 49.4928L122.154 53.1749ZM133.094 28.5219L107.208 0.680571C106.662 0.103412 105.819 -0.0803547 105.082 0.218419L95.8371 3.94683V3.94791C95.3524 4.13062 94.9622 4.50033 94.7537 4.97432C94.5452 5.4483 94.5356 5.98567 94.729 6.46609C94.9214 6.94651 95.2997 7.3302 95.7769 7.52797C96.2552 7.7268 96.7936 7.72465 97.2698 7.52259L105.375 4.27154L127.531 28.1228L112.293 27.9229L93.5562 27.9218C85.8523 27.9218 82.771 29.8016 81.4919 31.2505H57.0089C55.6375 30.0027 52.2938 27.9218 45.1446 27.9218H26.3782L11.1402 28.1217L33.3739 4.19426L41.4787 7.4453C41.9548 7.64736 42.4922 7.64951 42.9704 7.45175C43.4487 7.25292 43.827 6.8703 44.0194 6.38988C44.2118 5.90839 44.2032 5.37101 43.9947 4.89703C43.7862 4.42304 43.396 4.05334 42.9113 3.87062L33.5888 0.142207C32.8526 -0.157639 32.0089 0.0261325 31.4629 0.60436L5.57834 28.4154C3.98016 28.8453 2.56886 29.789 1.56075 31.1002C0.552642 32.4114 0.00451015 34.018 0.000190461 35.6722V39.9561C-0.00840764 41.0126 0.274255 42.0498 0.818098 42.9557C1.36194 43.8606 2.14542 44.5979 3.08156 45.0869C4.19609 45.6985 4.85599 46.899 4.77647 48.1682V49.4322V53.1143C4.76895 60.6311 7.74825 67.8439 13.0595 73.164C18.3711 78.4841 25.5784 81.4762 33.0963 81.4795H35.3146C43.7226 81.4591 51.7789 78.108 57.7192 72.1581C63.6605 66.2093 67.0007 58.1475 67.0084 49.7398C67.0041 49.1261 67.2492 48.536 67.6877 48.1061C68.1273 47.6762 68.7216 47.443 69.3353 47.4591C69.9146 47.4731 70.4671 47.7106 70.8765 48.1222C71.3 48.5543 71.5386 49.1347 71.5386 49.7398C71.5472 58.1477 74.8876 66.2093 80.8278 72.1581C86.7681 78.108 94.8255 81.4592 103.232 81.4795H105.452C112.977 81.5043 120.203 78.5347 125.536 73.2243C130.869 67.9149 133.871 60.701 133.879 53.1757V49.4935V48.2296C133.799 46.9571 134.466 45.7533 135.589 45.1483C136.524 44.6593 137.307 43.9209 137.85 43.016C138.394 42.111 138.678 41.0739 138.671 40.0175V35.6722C138.666 34.0182 138.118 32.4113 137.11 31.1002C136.102 29.7892 134.691 28.8454 133.092 28.4155L133.094 28.5219ZM134.85 40.0315V40.0326C134.854 40.7559 134.439 41.4158 133.786 41.7275C132.575 42.3627 131.572 43.3354 130.9 44.5262C130.228 45.7182 129.914 47.0788 129.996 48.4448V49.4776V53.1598C129.996 59.6407 127.425 65.8569 122.846 70.4441C118.268 75.0312 112.057 77.6147 105.575 77.6266H103.357C95.9654 77.6191 88.8795 74.6774 83.656 69.4475C78.4327 64.2188 75.4987 57.1295 75.4987 49.7385C75.5288 48.0995 74.8882 46.5196 73.7274 45.3632C72.5549 44.2164 70.975 43.5845 69.3359 43.606C67.6969 43.5845 66.1171 44.2164 64.9445 45.3632C63.7837 46.5196 63.1431 48.0995 63.1732 49.7385C63.1732 57.1273 60.2414 64.2133 55.0211 69.442C49.8009 74.6708 42.7194 77.6145 35.3305 77.6263H33.0972C26.6132 77.6231 20.3956 75.0447 15.8107 70.4609C11.2269 65.8759 8.64856 59.6583 8.64416 53.1744V49.4922V48.4594C8.74626 47.0772 8.43995 45.6939 7.76286 44.4839C7.08684 43.2737 6.07012 42.2881 4.8395 41.6497C4.19463 41.3316 3.78731 40.6738 3.79161 39.9548V35.6708C3.79913 33.6782 5.40376 32.0607 7.39648 32.0349L26.3789 31.7726H45.1153C52.4808 31.7726 54.5292 34.2381 54.5452 34.2381H54.5441C54.8923 34.754 55.4641 35.0754 56.0853 35.1012H82.5257C83.2984 35.1055 83.9981 34.6433 84.2969 33.9297C84.4506 33.7136 86.038 31.7726 93.5421 31.7726H112.293L131.276 32.0349C133.257 32.0768 134.842 33.69 134.85 35.6708L134.85 40.0315Z" fill="#CDCDCD"/>
</svg>
