<svg width="200" height="316" viewBox="0 0 200 316" fill="none" xmlns="http://www.w3.org/2000/svg">
<path d="M199.26 305.126L175.657 212.457C171.158 194.555 170.481 187.42 170.477 158.079L173.1 120.49C173.104 120.392 173.107 120.293 173.102 120.193C170.346 70.1959 164.587 46.1388 149.499 21.8704V5.05428C149.499 2.29111 147.146 0.0425108 144.254 0.0425108H126.109C126.034 0.0357985 125.969 0 125.894 0C125.819 0 125.753 0.0357985 125.678 0.0425108H99.8839C99.8066 0.0357985 99.741 0 99.6661 0C99.5911 0 99.5256 0.0357985 99.4506 0.0425108H73.6562C73.5789 0.0357985 73.5133 0 73.4384 0C73.3634 0 73.2979 0.0357985 73.2229 0.0425108H55.0786C52.1865 0.0425108 49.833 2.29111 49.833 5.05428V21.8704C34.7449 46.1417 28.9867 70.1959 26.2303 120.193C26.2256 120.293 26.2279 120.394 26.2326 120.49L28.8507 157.915C28.8507 187.422 28.174 194.56 23.6777 212.454L0.0725952 305.129C0.0257596 305.322 0 305.518 0 305.72C0 309.304 4.72804 311.468 16.3267 313.193C33.9135 315.806 91.1018 318.538 94.2971 308.986C94.4118 308.637 94.4493 308.27 94.4001 307.906L81.2957 210.311C80.0897 197.674 81.0264 183.337 83.8623 171.007L99.5942 105.871C99.6177 105.781 99.6434 105.703 99.6645 105.636C99.6879 105.698 99.7113 105.774 99.7301 105.857L115.462 170.987C118.303 183.344 119.239 197.677 118.043 210.225L104.929 307.911C104.88 308.274 104.915 308.643 105.032 308.992C106.727 314.069 123.668 315.677 141.814 315.677C157.817 315.677 174.76 314.424 183.001 313.198C194.602 311.473 199.33 309.31 199.33 305.725C199.33 305.524 199.304 305.327 199.257 305.135L199.26 305.126ZM147.485 28.5962C154.85 41.4028 159.656 54.6751 162.892 72.4896C155.587 69.7129 150.349 65.4129 147.331 59.6491C143.235 51.8319 143.305 41.3965 147.485 28.5962ZM144.254 20.0469H128.517V5.05401H144.254V20.0469ZM102.289 20.0469V5.05401H123.271V20.0469H102.289ZM76.061 20.0469V5.05401H97.0434V20.0469H76.061ZM102.289 25.0587H110.157V55.1717C110.157 63.902 107.755 65.2308 102.49 68.1353C102.425 68.1711 102.355 68.2136 102.289 68.2472L102.289 25.0587ZM55.0787 5.05401H70.8155V20.0469H55.0787V5.05401ZM51.8471 28.5962C56.0272 41.3965 56.095 51.8313 52.0016 59.6491C48.983 65.4124 43.7448 69.7105 36.4405 72.4896C39.6768 54.6751 44.4823 41.4051 51.8471 28.5962ZM94.4862 104.724L78.7446 169.9C75.794 182.74 74.8174 197.63 76.0797 210.851L89.0534 307.478C86.6179 308.901 75.8057 310.796 54.1633 310.675C29.1883 310.502 9.08185 307.793 5.41473 305.345L28.7789 213.621C33.35 195.416 34.0947 187.607 34.0901 157.74L31.4766 120.302C32.3993 103.613 33.6568 89.8912 35.4904 78.1184C45.4079 75.0084 52.7379 69.4397 56.6928 61.8883C61.6316 52.453 61.3904 40.0513 56.1167 25.056H97.0443V80.1855H68.1935C66.744 80.1855 65.5707 81.3064 65.5707 82.6914C65.5707 84.0764 66.744 85.1973 68.1935 85.1973H97.0443V90.2091H76.0619C74.6123 90.2091 73.4391 91.33 73.4391 92.715C73.4391 94.0999 74.6123 95.2208 76.0619 95.2208H97.0443V101.029C95.8218 101.783 94.8969 103.074 94.4871 104.721L94.4862 104.724ZM145.169 310.676C123.536 310.788 112.714 308.902 110.279 307.479L123.262 210.76C124.515 197.631 123.538 182.739 120.583 169.876L104.841 104.706C104.439 103.077 103.521 101.797 102.289 101.036V95.2194H123.271C124.721 95.2194 125.894 94.0985 125.894 92.7135C125.894 91.3286 124.721 90.2076 123.271 90.2076H102.289V85.1959H131.14C132.589 85.1959 133.762 84.075 133.762 82.69C133.762 81.305 132.589 80.1841 131.14 80.1841H102.289V74.0892C103.275 73.5008 104.233 72.9571 105.113 72.4693C111.495 68.9499 115.403 66.2313 115.403 55.1676V25.0545H143.214C137.94 40.0521 137.699 52.4515 142.638 61.8868C146.593 69.4405 153.923 75.0067 163.84 78.1169C165.674 89.8926 166.929 103.612 167.854 120.301L165.236 157.909C165.236 187.61 165.981 195.419 170.554 213.629L193.916 305.347C190.246 307.795 170.145 310.502 145.17 310.677L145.169 310.676Z" fill="#CDCDCD"/>
</svg>
