<?xml version="1.0" encoding="UTF-8"?>
<svg width="700pt" height="700pt" version="1.1" viewBox="0 0 700 700" xmlns="http://www.w3.org/2000/svg" xmlns:xlink="http://www.w3.org/1999/xlink">
 <defs>
  <symbol id="v" overflow="visible">
   <path d="m4.6406-0.28125c-0.24219 0.125-0.49219 0.21875-0.75 0.28125-0.25 0.0625-0.51562 0.09375-0.79688 0.09375-0.84375 0-1.5156-0.23438-2.0156-0.70312-0.49219-0.46875-0.73438-1.1094-0.73438-1.9219 0-0.80078 0.24219-1.4375 0.73438-1.9062 0.5-0.47656 1.1719-0.71875 2.0156-0.71875 0.28125 0 0.54688 0.039062 0.79688 0.10938 0.25781 0.0625 0.50781 0.15625 0.75 0.28125v1.0469c-0.24219-0.16406-0.48047-0.28516-0.71875-0.35938-0.23047-0.082031-0.47656-0.125-0.73438-0.125-0.46094 0-0.82422 0.15234-1.0938 0.45312-0.27344 0.29297-0.40625 0.69922-0.40625 1.2188 0 0.53125 0.13281 0.94922 0.40625 1.25 0.26953 0.29297 0.63281 0.4375 1.0938 0.4375 0.25781 0 0.50391-0.035156 0.73438-0.10938 0.23828-0.082031 0.47656-0.20703 0.71875-0.375z"/>
  </symbol>
  <symbol id="d" overflow="visible">
   <path d="m3.4062-2.7656c-0.11719-0.039063-0.22656-0.070313-0.32812-0.09375-0.10547-0.03125-0.21094-0.046875-0.3125-0.046875-0.3125 0-0.55469 0.10156-0.71875 0.29688-0.16797 0.19922-0.25 0.48438-0.25 0.85938v1.75h-1.2188v-3.7969h1.2188v0.625c0.15625-0.25 0.33203-0.42969 0.53125-0.54688 0.20703-0.11328 0.45312-0.17188 0.73438-0.17188 0.039062 0 0.082031 0.007813 0.125 0.015625 0.050781 0 0.11719 0.007812 0.20312 0.015625z"/>
  </symbol>
  <symbol id="b" overflow="visible">
   <path d="m4.375-1.9062v0.34375h-2.8438c0.03125 0.28125 0.13281 0.49609 0.3125 0.64062 0.17578 0.14844 0.42188 0.21875 0.73438 0.21875 0.25781 0 0.51953-0.035156 0.78125-0.10938 0.26953-0.082031 0.54688-0.20312 0.82812-0.35938v0.9375c-0.28125 0.11719-0.57031 0.19922-0.85938 0.25-0.28125 0.050781-0.57031 0.078125-0.85938 0.078125-0.6875 0-1.2266-0.17188-1.6094-0.51562-0.375-0.35156-0.5625-0.84375-0.5625-1.4688s0.1875-1.1133 0.5625-1.4688c0.375-0.35156 0.89062-0.53125 1.5469-0.53125 0.59375 0 1.0664 0.18359 1.4219 0.54688 0.36328 0.35547 0.54688 0.83594 0.54688 1.4375zm-1.25-0.40625c0-0.22656-0.070312-0.41016-0.20312-0.54688-0.13672-0.14453-0.3125-0.21875-0.53125-0.21875-0.23047 0-0.41797 0.070313-0.5625 0.20312-0.14844 0.125-0.24219 0.3125-0.28125 0.5625z"/>
  </symbol>
  <symbol id="l" overflow="visible">
   <path d="m2.2812-1.7031c-0.25 0-0.44531 0.042969-0.57812 0.125-0.125 0.085937-0.1875 0.21094-0.1875 0.375 0 0.15625 0.050781 0.28125 0.15625 0.375 0.10156 0.085937 0.25 0.125 0.4375 0.125 0.22656 0 0.41406-0.082031 0.5625-0.25 0.15625-0.16406 0.23438-0.36719 0.23438-0.60938v-0.14062zm1.8594-0.46875v2.1719h-1.2344v-0.5625c-0.15625 0.23047-0.33984 0.39844-0.54688 0.5-0.19922 0.10156-0.44531 0.15625-0.73438 0.15625-0.39844 0-0.71875-0.11328-0.96875-0.34375-0.24219-0.22656-0.35938-0.52344-0.35938-0.89062 0-0.44531 0.14844-0.76953 0.45312-0.96875 0.3125-0.20703 0.79688-0.3125 1.4531-0.3125h0.70312v-0.10938c0-0.1875-0.078125-0.32031-0.23438-0.40625-0.14844-0.09375-0.375-0.14062-0.6875-0.14062-0.26172 0-0.50781 0.027344-0.73438 0.078125-0.21875 0.054688-0.42969 0.13281-0.625 0.23438v-0.92188c0.25781-0.0625 0.51953-0.10938 0.78125-0.14062 0.26953-0.039063 0.53516-0.0625 0.79688-0.0625 0.67578 0 1.1641 0.13672 1.4688 0.40625 0.3125 0.27344 0.46875 0.71094 0.46875 1.3125z"/>
  </symbol>
  <symbol id="a" overflow="visible">
   <path d="m1.9062-4.875v1.0781h1.25v0.875h-1.25v1.6094c0 0.17969 0.03125 0.29688 0.09375 0.35938 0.070312 0.054687 0.21094 0.078125 0.42188 0.078125h0.625v0.875h-1.0312c-0.48047 0-0.82422-0.097656-1.0312-0.29688-0.19922-0.19531-0.29688-0.53516-0.29688-1.0156v-1.6094h-0.59375v-0.875h0.59375v-1.0781z"/>
  </symbol>
  <symbol id="f" overflow="visible">
   <path d="m3.1562-3.2344v-2.0312h1.2344v5.2656h-1.2344v-0.54688c-0.16797 0.21875-0.35156 0.38281-0.54688 0.48438-0.19922 0.10156-0.43359 0.15625-0.70312 0.15625-0.46094 0-0.83984-0.17969-1.1406-0.54688-0.30469-0.375-0.45312-0.85156-0.45312-1.4375 0-0.58203 0.14844-1.0625 0.45312-1.4375 0.30078-0.375 0.67969-0.5625 1.1406-0.5625 0.26953 0 0.50391 0.054687 0.70312 0.15625 0.19531 0.10547 0.37891 0.27344 0.54688 0.5zm-0.79688 2.4531c0.25781 0 0.45703-0.09375 0.59375-0.28125 0.13281-0.19531 0.20312-0.47266 0.20312-0.82812 0-0.36328-0.070312-0.64062-0.20312-0.82812-0.13672-0.1875-0.33594-0.28125-0.59375-0.28125-0.25 0-0.44922 0.09375-0.59375 0.28125-0.13672 0.1875-0.20312 0.46484-0.20312 0.82812 0 0.35547 0.066406 0.63281 0.20312 0.82812 0.14453 0.1875 0.34375 0.28125 0.59375 0.28125z"/>
  </symbol>
  <symbol id="k" overflow="visible">
   <path d="m2.6094-0.78125c0.25 0 0.44141-0.09375 0.57812-0.28125 0.14453-0.19531 0.21875-0.47266 0.21875-0.82812 0-0.36328-0.074219-0.64062-0.21875-0.82812-0.13672-0.1875-0.32812-0.28125-0.57812-0.28125-0.26172 0-0.46484 0.09375-0.60938 0.28125-0.13672 0.1875-0.20312 0.46484-0.20312 0.82812 0 0.35547 0.066406 0.63281 0.20312 0.82812 0.14453 0.1875 0.34766 0.28125 0.60938 0.28125zm-0.8125-2.4531c0.16406-0.22656 0.34766-0.39453 0.54688-0.5 0.20703-0.10156 0.44141-0.15625 0.70312-0.15625 0.46875 0 0.85156 0.1875 1.1562 0.5625 0.30078 0.375 0.45312 0.85547 0.45312 1.4375 0 0.58594-0.15234 1.0625-0.45312 1.4375-0.30469 0.36719-0.6875 0.54688-1.1562 0.54688-0.26172 0-0.49609-0.054688-0.70312-0.15625-0.19922-0.10156-0.38281-0.26562-0.54688-0.48438v0.54688h-1.2188v-5.2656h1.2188z"/>
  </symbol>
  <symbol id="e" overflow="visible">
   <path d="m0.078125-3.7969h1.2188l1.0156 2.5781 0.875-2.5781h1.2031l-1.5938 4.1562c-0.15625 0.42578-0.34375 0.72266-0.5625 0.89062-0.21094 0.16406-0.49219 0.25-0.84375 0.25h-0.70312v-0.79688h0.39062c0.19531 0 0.34375-0.039063 0.4375-0.10938 0.09375-0.0625 0.16406-0.17969 0.21875-0.34375l0.046875-0.10938z"/>
  </symbol>
  <symbol id="j" overflow="visible">
   <path d="m3.7031-0.92188h-2.0312l-0.32812 0.92188h-1.3125l1.875-5.0625h1.5625l1.8594 5.0625h-1.2969zm-1.7188-0.9375h1.3906l-0.6875-2.0156z"/>
  </symbol>
  <symbol id="i" overflow="visible">
   <path d="m4.0938-3.1562c0.15625-0.23828 0.33594-0.42188 0.54688-0.54688 0.21875-0.125 0.45312-0.1875 0.70312-0.1875 0.4375 0 0.76953 0.13672 1 0.40625 0.22656 0.27344 0.34375 0.66406 0.34375 1.1719v2.3125h-1.2344v-1.9844c0.007813-0.019531 0.015625-0.046875 0.015625-0.078125v-0.14062c0-0.26953-0.042969-0.46094-0.125-0.57812-0.074219-0.125-0.19922-0.1875-0.375-0.1875-0.23047 0-0.40625 0.09375-0.53125 0.28125s-0.19531 0.46484-0.20312 0.82812v1.8594h-1.2188v-1.9844c0-0.41406-0.039063-0.67969-0.10938-0.79688-0.074219-0.125-0.19922-0.1875-0.375-0.1875-0.24219 0-0.42188 0.10156-0.54688 0.29688-0.125 0.1875-0.1875 0.46094-0.1875 0.8125v1.8594h-1.2188v-3.7969h1.2188v0.5625c0.14453-0.21875 0.3125-0.37891 0.5-0.48438 0.19531-0.11328 0.41406-0.17188 0.65625-0.17188 0.25781 0 0.48828 0.070313 0.6875 0.20312 0.19531 0.125 0.34766 0.30469 0.45312 0.53125z"/>
  </symbol>
  <symbol id="h" overflow="visible">
   <path d="m4.3906-2.3125v2.3125h-1.2188v-1.7656c0-0.33203-0.007813-0.55469-0.015625-0.67188-0.011719-0.125-0.039062-0.21875-0.078125-0.28125-0.042969-0.082031-0.10547-0.14453-0.1875-0.1875-0.085937-0.039062-0.17969-0.0625-0.28125-0.0625-0.25 0-0.44922 0.10156-0.59375 0.29688-0.14844 0.1875-0.21875 0.46094-0.21875 0.8125v1.8594h-1.2188v-5.2656h1.2188v2.0312c0.17578-0.22656 0.36719-0.39453 0.57812-0.5 0.20703-0.10156 0.4375-0.15625 0.6875-0.15625 0.4375 0 0.76562 0.13672 0.98438 0.40625 0.22656 0.27344 0.34375 0.66406 0.34375 1.1719z"/>
  </symbol>
  <symbol id="u" overflow="visible">
   <path d="m3.5469-3.6719v0.92188c-0.26172-0.11328-0.51172-0.19531-0.75-0.25-0.24219-0.050781-0.46875-0.078125-0.6875-0.078125-0.23047 0-0.40234 0.03125-0.51562 0.09375-0.11719 0.054687-0.17188 0.13672-0.17188 0.25 0 0.10547 0.039063 0.18359 0.125 0.23438 0.09375 0.054688 0.25 0.089844 0.46875 0.10938l0.20312 0.03125c0.625 0.085937 1.0391 0.21484 1.25 0.39062 0.21875 0.17969 0.32812 0.46094 0.32812 0.84375 0 0.40625-0.15234 0.71484-0.45312 0.92188-0.29297 0.19922-0.73438 0.29688-1.3281 0.29688-0.25 0-0.51172-0.023438-0.78125-0.0625-0.26172-0.03125-0.53125-0.085938-0.8125-0.17188v-0.92188c0.23828 0.11719 0.48438 0.20312 0.73438 0.26562 0.25781 0.0625 0.51953 0.09375 0.78125 0.09375 0.23828 0 0.41406-0.03125 0.53125-0.09375 0.125-0.070313 0.1875-0.17188 0.1875-0.29688 0-0.11328-0.042969-0.19531-0.125-0.25-0.085938-0.050781-0.25-0.09375-0.5-0.125l-0.21875-0.015625c-0.53125-0.070313-0.90625-0.19531-1.125-0.375-0.21875-0.1875-0.32812-0.46875-0.32812-0.84375 0-0.39453 0.13281-0.69141 0.40625-0.89062 0.28125-0.19531 0.70703-0.29688 1.2812-0.29688 0.21875 0 0.44531 0.023437 0.6875 0.0625 0.25 0.03125 0.51953 0.085937 0.8125 0.15625z"/>
  </symbol>
  <symbol id="t" overflow="visible">
   <path d="m4.1562-4.8906v1.0625c-0.28125-0.125-0.55469-0.21875-0.8125-0.28125-0.26172-0.0625-0.51172-0.09375-0.75-0.09375-0.3125 0-0.54297 0.042969-0.6875 0.125-0.14844 0.085937-0.21875 0.21875-0.21875 0.40625 0 0.13672 0.046875 0.24219 0.14062 0.3125 0.10156 0.074219 0.28516 0.14062 0.54688 0.20312l0.5625 0.10938c0.5625 0.11719 0.95703 0.28906 1.1875 0.51562 0.23828 0.23047 0.35938 0.55469 0.35938 0.96875 0 0.5625-0.16797 0.98047-0.5 1.25-0.32422 0.27344-0.82812 0.40625-1.5156 0.40625-0.3125 0-0.63281-0.03125-0.95312-0.09375-0.32422-0.050781-0.64844-0.14062-0.96875-0.26562v-1.0938c0.32031 0.16797 0.63281 0.29688 0.9375 0.39062 0.30078 0.085938 0.58594 0.125 0.85938 0.125 0.28906 0 0.50781-0.046875 0.65625-0.14062 0.15625-0.09375 0.23438-0.22656 0.23438-0.40625 0-0.15625-0.054687-0.27344-0.15625-0.35938-0.10547-0.09375-0.30859-0.17188-0.60938-0.23438l-0.51562-0.125c-0.5-0.10156-0.87109-0.27344-1.1094-0.51562-0.23047-0.23828-0.34375-0.55469-0.34375-0.95312 0-0.50781 0.16016-0.89844 0.48438-1.1719 0.32031-0.26953 0.78906-0.40625 1.4062-0.40625 0.28125 0 0.56641 0.023438 0.85938 0.0625 0.28906 0.042969 0.59375 0.10938 0.90625 0.20312z"/>
  </symbol>
  <symbol id="g" overflow="visible">
   <path d="m0.54688-1.4844v-2.3125h1.2188v0.375c0 0.21094-0.007813 0.46875-0.015625 0.78125v0.625c0 0.30469 0.003906 0.52344 0.015625 0.65625 0.019531 0.13672 0.050781 0.23438 0.09375 0.29688 0.050781 0.074219 0.11328 0.13672 0.1875 0.1875 0.082031 0.042969 0.17578 0.0625 0.28125 0.0625 0.25 0 0.44531-0.097656 0.59375-0.29688 0.14453-0.19531 0.21875-0.46875 0.21875-0.8125v-1.875h1.2188v3.7969h-1.2188v-0.54688c-0.17969 0.21875-0.37109 0.38281-0.57812 0.48438-0.21094 0.10156-0.43359 0.15625-0.67188 0.15625-0.4375 0-0.77344-0.12891-1-0.39062-0.23047-0.26953-0.34375-0.66406-0.34375-1.1875z"/>
  </symbol>
  <symbol id="s" overflow="visible">
   <path d="m0.57812-3.7969h1.2188v3.7969h-1.2188zm0-1.4688h1.2188v0.98438h-1.2188z"/>
  </symbol>
  <symbol id="c" overflow="visible">
   <path d="m2.3906-3.0156c-0.27344 0-0.48047 0.10156-0.625 0.29688-0.13672 0.1875-0.20312 0.46484-0.20312 0.82812 0 0.36719 0.066406 0.64844 0.20312 0.84375 0.14453 0.1875 0.35156 0.28125 0.625 0.28125 0.25781 0 0.45703-0.09375 0.59375-0.28125 0.14453-0.19531 0.21875-0.47656 0.21875-0.84375 0-0.36328-0.074219-0.64062-0.21875-0.82812-0.13672-0.19531-0.33594-0.29688-0.59375-0.29688zm0-0.875c0.64453 0 1.1484 0.17969 1.5156 0.53125 0.375 0.35547 0.5625 0.84375 0.5625 1.4688s-0.1875 1.1172-0.5625 1.4688c-0.36719 0.34375-0.87109 0.51562-1.5156 0.51562-0.65625 0-1.1719-0.17188-1.5469-0.51562-0.36719-0.35156-0.54688-0.84375-0.54688-1.4688s0.17969-1.1133 0.54688-1.4688c0.375-0.35156 0.89062-0.53125 1.5469-0.53125z"/>
  </symbol>
  <symbol id="r" overflow="visible">
   <path d="m3.0781-5.2656v0.79688h-0.67188c-0.16797 0-0.28906 0.03125-0.35938 0.09375-0.0625 0.0625-0.09375 0.16797-0.09375 0.3125v0.26562h1.0312v0.875h-1.0312v2.9219h-1.2188v-2.9219h-0.60938v-0.875h0.60938v-0.26562c0-0.40625 0.11328-0.70703 0.34375-0.90625 0.22656-0.19531 0.58594-0.29688 1.0781-0.29688z"/>
  </symbol>
  <symbol id="q" overflow="visible">
   <path d="m0.64062-5.0625h1.4531l1.8438 3.4688v-3.4688h1.2344v5.0625h-1.4531l-1.8438-3.4688v3.4688h-1.2344z"/>
  </symbol>
  <symbol id="p" overflow="visible">
   <path d="m4.3906-2.3125v2.3125h-1.2188v-1.7656c0-0.33203-0.007813-0.55469-0.015625-0.67188-0.011719-0.125-0.039062-0.21875-0.078125-0.28125-0.042969-0.082031-0.10547-0.14453-0.1875-0.1875-0.085937-0.039062-0.17969-0.0625-0.28125-0.0625-0.25 0-0.44922 0.10156-0.59375 0.29688-0.14844 0.1875-0.21875 0.46094-0.21875 0.8125v1.8594h-1.2188v-3.7969h1.2188v0.5625c0.17578-0.22656 0.36719-0.39453 0.57812-0.5 0.20703-0.10156 0.4375-0.15625 0.6875-0.15625 0.4375 0 0.76562 0.13672 0.98438 0.40625 0.22656 0.27344 0.34375 0.66406 0.34375 1.1719z"/>
  </symbol>
  <symbol id="o" overflow="visible">
   <path d="m0.64062-5.0625h2.1562c0.64453 0 1.1406 0.14844 1.4844 0.4375 0.34375 0.28125 0.51562 0.6875 0.51562 1.2188s-0.17188 0.94531-0.51562 1.2344c-0.34375 0.28125-0.83984 0.42188-1.4844 0.42188h-0.85938v1.75h-1.2969zm1.2969 0.95312v1.4062h0.71875c0.25781 0 0.45703-0.054687 0.59375-0.17188 0.13281-0.125 0.20312-0.30078 0.20312-0.53125 0-0.22656-0.070313-0.39844-0.20312-0.51562-0.13672-0.125-0.33594-0.1875-0.59375-0.1875z"/>
  </symbol>
  <symbol id="n" overflow="visible">
   <path d="m0.57812-3.7969h1.2188v3.7344c0 0.5-0.125 0.88281-0.375 1.1562-0.24219 0.26953-0.58984 0.40625-1.0469 0.40625h-0.60938v-0.79688h0.21875c0.22656 0 0.38281-0.054687 0.46875-0.15625 0.082031-0.10547 0.125-0.30859 0.125-0.60938zm0-1.4688h1.2188v0.98438h-1.2188z"/>
  </symbol>
  <symbol id="m" overflow="visible">
   <path d="m3.6406-3.6719v0.98438c-0.15625-0.11328-0.32031-0.19531-0.48438-0.25-0.16797-0.050781-0.33984-0.078125-0.51562-0.078125-0.34375 0-0.60938 0.10156-0.79688 0.29688-0.1875 0.19922-0.28125 0.47656-0.28125 0.82812 0 0.35547 0.09375 0.63281 0.28125 0.82812 0.1875 0.19922 0.45312 0.29688 0.79688 0.29688 0.1875 0 0.36328-0.023437 0.53125-0.078125 0.17578-0.0625 0.33203-0.14844 0.46875-0.26562v1c-0.1875 0.074219-0.38281 0.125-0.57812 0.15625-0.1875 0.03125-0.38281 0.046875-0.57812 0.046875-0.6875 0-1.2266-0.17188-1.6094-0.51562-0.38672-0.35156-0.57812-0.84375-0.57812-1.4688s0.19141-1.1133 0.57812-1.4688c0.38281-0.35156 0.92188-0.53125 1.6094-0.53125 0.19531 0 0.39062 0.023437 0.57812 0.0625 0.19531 0.03125 0.39062 0.085937 0.57812 0.15625z"/>
  </symbol>
 </defs>
 <g>
  <path d="m652.64 188.8c-50.676-48.043-136.15-69.215-254.04-62.918-7.0586 0.375-13.98 0.87891-20.828 1.4453-5.0352-21.781-17.629-63.449-42.195-75.887-0.55859-0.28125-1.1602-0.46875-1.7773-0.55078-18.277-2.4258-32.203 2.3047-41.391 14.07-2.4375 3.125-3.4609 7.0312-2.875 11.004 0.60156 4.082 2.8867 7.8008 6.2695 10.195 16.047 11.352 26.113 26.887 30.695 47.348-102.5 16.387-177.13 53.055-224.54 83.836-62.938 40.871-92.215 79.512-93.434 81.137-0.10938 0.14453-0.21094 0.29297-0.30469 0.44922-0.62109 1.0273-15.09 25.488-4.1602 57.066 8.1133 23.441 34.758 43.184 35.836 43.977 0.98047 0.73438 19.973 14.855 54.34 31.801v34.352c0 1.1641 0.36719 2.3008 1.0469 3.25 1.7773 2.4688 45.922 60.469 249.99 60.469 105.86 0 178.59-15.93 220.97-29.293 46.324-14.609 67.285-29.18 68.152-29.793 1.4766-1.043 2.3555-2.7344 2.3555-4.5391v-37.758c10.211-10.797 63.238-69.906 63.238-132.85 0.007812-18.613-4.6055-66.285-47.348-106.81zm-350.43-111.71c-0.91797-0.64844-1.5352-1.6484-1.6953-2.7422-0.097657-0.66406-0.066407-1.6484 0.64062-2.5508 6.5312-8.3633 16.418-11.645 30.203-10.016 14.262 7.875 27.219 32.434 35.238 66.559-9.9219 0.98438-19.633 2.1445-29.098 3.4961-5.0938-23.363-16.945-41.77-35.289-54.746zm323.43 386.09c-6.5781 4.0469-27.055 15.582-63.473 26.996-41.543 13.023-112.89 28.547-216.89 28.547-103.02 0-163.12-15.246-195.4-28.035-28.824-11.422-41.113-22.934-44.527-26.609v-26.992c27.988 14.07 55.766 25.18 83.984 30.988 43.055 12.117 95.953 21.629 155.94 21.629 71.387 0.33984 139.15-8.4297 213.54-29.199 33.195-9.918 55.621-19.762 66.828-25.191v27.867zm2.1445-41.434c-3.875 2.082-24.355 12.672-59.871 24.16 21.75-28.746 67.129-93.602 60.668-126.43-2.0977-10.656-6.832-16.969-14.074-18.762-17.957-4.4375-42.328 24.387-47.031 30.211-1.9258 2.3867-1.5547 5.8828 0.83203 7.8125 2.3867 1.9258 5.8828 1.5547 7.8125-0.83203 9.5664-11.848 27.551-28.43 35.719-26.406 3.3438 0.82813 5.0195 5.9609 5.8398 10.121 5.9219 30.082-46.074 102.48-68.199 129.89-43.461 12.469-104.08 24.547-179.95 26.723 4.7969-11.012 13.527-31.887 20.867-54.004 15.113-45.543 17.16-73.504 6.2578-85.484-6.8438-7.5156-13.617-8.1523-18.098-7.3594-15.926 2.8125-26.621 27.879-27.789 30.727-1.1641 2.8398 0.19531 6.082 3.0352 7.2461 2.8359 1.1641 6.082-0.19531 7.2461-3.0352 2.9609-7.2344 11.613-22.617 19.441-23.996 0.93359-0.16406 3.7891-0.67188 7.9453 3.8984 3.5508 3.9023 9.832 18.965-8.5625 74.422-8.4805 25.566-18.859 49.453-22.602 57.84-3.9688 0.054688-7.9609 0.09375-12.008 0.09375-58.285 0-109.73-9.1562-151.71-20.875-22.051-35.422-50.613-94.867-36.492-109.5 3.6406-3.7695 6.0352-3.3477 6.8242-3.2109 5.8359 1.0234 12.168 11.289 14.324 16.102 1.2461 2.8008 4.5273 4.0625 7.332 2.8164s4.0664-4.5273 2.8203-7.332c-0.91406-2.0586-9.3203-20.195-22.535-22.527-4.1094-0.72656-10.355-0.19922-16.758 6.4375-11.34 11.754-8.4336 35.992 8.8828 74.105 6.8281 15.031 14.469 28.996 19.945 38.492-19.09-5.9258-35.906-12.25-50.117-18.23-51.398-21.641-80.934-43.574-81.273-43.828-0.25-0.18359-24.988-18.547-31.961-38.688-8.7695-25.328 1.668-45.043 3.0352-47.457 2.5352-3.2773 31.91-40.348 90.883-78.547 56.691-36.723 153.15-82.039 290.71-89.383 114.73-6.1172 197.43 14.027 245.81 59.891 39.613 37.555 43.891 81.566 43.891 98.746 0 60.348-55 119.76-61.094 126.15z"/>
  <use y="550.667969" xlink:href="#v"/>
  <use x="5.097656" y="550.667969" xlink:href="#d"/>
  <use x="8.519531" y="550.667969" xlink:href="#b"/>
  <use x="13.230469" y="550.667969" xlink:href="#l"/>
  <use x="17.917969" y="550.667969" xlink:href="#a"/>
  <use x="21.234375" y="550.667969" xlink:href="#b"/>
  <use x="25.945312" y="550.667969" xlink:href="#f"/>
  <use x="33.335938" y="550.667969" xlink:href="#k"/>
  <use x="38.304688" y="550.667969" xlink:href="#e"/>
  <use x="45.25" y="550.667969" xlink:href="#j"/>
  <use x="50.625" y="550.667969" xlink:href="#i"/>
  <use x="57.859375" y="550.667969" xlink:href="#b"/>
  <use x="62.570312" y="550.667969" xlink:href="#a"/>
  <use x="65.890625" y="550.667969" xlink:href="#h"/>
  <use x="70.832031" y="550.667969" xlink:href="#e"/>
  <use x="75.359375" y="550.667969" xlink:href="#u"/>
  <use x="79.492188" y="550.667969" xlink:href="#a"/>
  <use x="85.230469" y="550.667969" xlink:href="#t"/>
  <use x="90.230469" y="550.667969" xlink:href="#a"/>
  <use x="93.550781" y="550.667969" xlink:href="#g"/>
  <use x="98.496094" y="550.667969" xlink:href="#f"/>
  <use x="103.464844" y="550.667969" xlink:href="#s"/>
  <use x="105.847656" y="550.667969" xlink:href="#c"/>
  <use y="557.613281" xlink:href="#r"/>
  <use x="3.019531" y="557.613281" xlink:href="#d"/>
  <use x="6.445312" y="557.613281" xlink:href="#c"/>
  <use x="11.214844" y="557.613281" xlink:href="#i"/>
  <use x="20.871094" y="557.613281" xlink:href="#a"/>
  <use x="24.191406" y="557.613281" xlink:href="#h"/>
  <use x="29.132812" y="557.613281" xlink:href="#b"/>
  <use x="36.261719" y="557.613281" xlink:href="#q"/>
  <use x="42.074219" y="557.613281" xlink:href="#c"/>
  <use x="46.84375" y="557.613281" xlink:href="#g"/>
  <use x="51.785156" y="557.613281" xlink:href="#p"/>
  <use x="59.148438" y="557.613281" xlink:href="#o"/>
  <use x="64.238281" y="557.613281" xlink:href="#d"/>
  <use x="67.664062" y="557.613281" xlink:href="#c"/>
  <use x="72.433594" y="557.613281" xlink:href="#n"/>
  <use x="74.8125" y="557.613281" xlink:href="#b"/>
  <use x="79.523438" y="557.613281" xlink:href="#m"/>
  <use x="83.640625" y="557.613281" xlink:href="#a"/>
 </g>
</svg>
