<?xml version="1.0" encoding="UTF-8"?>
<svg width="700pt" height="700pt" version="1.1" viewBox="0 0 700 700" xmlns="http://www.w3.org/2000/svg">
 <path d="m203.34 163.72c14.645 0.78516 29.312 1.4492 44.02 1.9961v-29.711c0-27.117 12.023-52.477 30.824-71.035 18.836-18.605 44.559-30.453 71.816-30.453 27.258 0 52.98 11.848 71.816 30.453 18.797 18.559 30.824 43.918 30.824 71.035v29.711c14.703-0.55078 29.375-1.2188 44.02-1.9961 12.355-0.65625 23.949 3.293 32.992 10.465 9.0352 7.1758 15.531 17.574 17.691 29.785 6.1523 34.699 11.613 69.781 16.363 105.21 4.6836 34.969 8.6562 70.164 11.879 105.52 0.58203 6.375 2.0156 12.262 4.3711 17.793 2.3477 5.5234 5.6797 10.77 10.027 15.887 4.9688 5.8477 8.7227 12.496 10.609 19.375 2.2539 8.2031 1.8789 16.676-2.0977 24.559-3.7773 7.5-10.75 14.254-21.723 19.398-11.781 5.5234-28.559 9.332-51.492 10.246-58.676 2.3477-116.95 3.5312-174.89 3.5312-57.941 0-116.46-1.1758-175.67-3.5312-22.926-0.91406-39.707-4.7109-51.492-10.238-10.973-5.1445-17.949-11.906-21.727-19.398-3.9766-7.8906-4.3516-16.363-2.0977-24.566 1.8867-6.8789 5.6406-13.527 10.609-19.375l0.4375-0.47656c4.1133-4.9219 7.2969-10.016 9.5977-15.406 2.3555-5.5312 3.7891-11.418 4.3711-17.801 3.2227-35.359 7.1953-70.539 11.879-105.5 4.75-35.434 10.211-70.52 16.355-105.23 2.1641-12.203 8.6523-22.602 17.691-29.777 9.0273-7.168 20.625-11.125 32.984-10.469zm60.816 2.5742c28.5 0.88672 57.102 1.3281 85.793 1.3281 28.719 0 57.352-0.44141 85.887-1.3281v-30.285c0-22.477-10.055-43.582-25.77-59.09-15.836-15.645-37.355-25.598-60.07-25.598s-44.234 9.9531-60.07 25.598c-15.715 15.512-25.77 36.617-25.77 59.09zm-16.801 52.836v-36.637c-14.934-0.5625-29.891-1.2383-44.863-2.0391-8.1562-0.42969-15.781 2.1641-21.703 6.8594-5.918 4.6953-10.18 11.523-11.594 19.539-6.2031 35.023-11.641 69.898-16.289 104.58-4.6836 34.961-8.6367 69.898-11.812 104.78-0.74609 8.1953-2.5938 15.754-5.6172 22.852-2.9297 6.8594-6.9922 13.355-12.258 19.633l-0.41016 0.52344c-3.4844 4.1016-6.0664 8.5508-7.2617 12.93-1.1914 4.332-1.0508 8.7031 0.91797 12.621 2.168 4.3047 6.5859 8.3867 13.855 11.793 9.8828 4.6367 24.512 7.8516 45.062 8.6641 58.094 2.3086 116.4 3.4648 175 3.4648 58.609 0 116.65-1.1641 174.23-3.4648 20.551-0.8125 35.176-4.0352 45.062-8.6719 7.2617-3.4062 11.68-7.4883 13.852-11.793 1.9727-3.9102 2.1094-8.2812 0.91797-12.613-1.1953-4.3789-3.7773-8.8281-7.2617-12.93-5.4297-6.3945-9.6367-13.051-12.66-20.16-3.0234-7.0977-4.8672-14.656-5.6172-22.844-3.1758-34.875-7.1289-69.828-11.812-104.8-4.6484-34.672-10.086-69.543-16.297-104.56-1.4141-8.0156-5.6758-14.848-11.594-19.547-5.918-4.6953-13.551-7.2812-21.707-6.8516-14.973 0.80078-29.93 1.4766-44.863 2.0391v36.645c4.4961 1.3828 8.5117 3.8477 11.754 7.0898l0.50391 0.55078c4.8633 5.125 7.8516 12.043 7.8516 19.609 0 7.8359-3.2031 14.973-8.375 20.141-5.1328 5.1719-12.27 8.375-20.133 8.375-7.8711 0-15.008-3.1953-20.168-8.3555-5.1523-5.1523-8.3555-12.289-8.3555-20.16 0-7.8711 3.2031-15.008 8.3555-20.16 3.2422-3.2422 7.2695-5.707 11.766-7.0977v-36.062c-28.711 0.89844-57.352 1.3555-85.887 1.3555-28.508 0-57.113-0.44922-85.793-1.3477v36.066c4.4844 1.3906 8.5 3.8555 11.742 7.1055 5.1719 5.1328 8.375 12.27 8.375 20.141 0 7.8633-3.2031 15.008-8.3555 20.16-5.1523 5.1523-12.297 8.3555-20.16 8.3555-7.8711 0-15.008-3.1953-20.168-8.3555-5.1523-5.1523-8.3555-12.289-8.3555-20.16 0-7.8711 3.2031-15.008 8.3555-20.16 3.2422-3.2422 7.2695-5.707 11.766-7.0977zm16.68 18.957c-2.0977-2.1094-5.0352-3.4141-8.2812-3.4141-3.2344 0-6.1719 1.3164-8.2891 3.4336s-3.4336 5.0469-3.4336 8.2812 1.3164 6.1641 3.4336 8.2812 5.0547 3.4336 8.2891 3.4336c3.2266 0 6.1641-1.3164 8.2812-3.4336 2.1172-2.1172 3.4336-5.0547 3.4336-8.2812 0-3.2344-1.3164-6.1641-3.4336-8.3008zm188.47 0.019531c-2.1172-2.1172-5.0469-3.4336-8.2734-3.4336-3.2344 0-6.1719 1.3164-8.2891 3.4336-2.1172 2.1172-3.4336 5.0469-3.4336 8.2812s1.3164 6.1641 3.4336 8.2812c2.1172 2.1172 5.0547 3.4336 8.2891 3.4336 3.2266 0 6.1562-1.3164 8.2734-3.4336 2.1289-2.0977 3.4336-5.0352 3.4336-8.2812 0-3.082-1.1719-5.8789-3.082-7.9492z"/>
</svg>
