<?xml version="1.0" encoding="UTF-8"?>
<svg width="700pt" height="700pt" version="1.1" viewBox="0 0 700 700" xmlns="http://www.w3.org/2000/svg" xmlns:xlink="http://www.w3.org/1999/xlink">
 <defs>
  <symbol id="l" overflow="visible">
   <path d="m37.516-2.25c-1.9297 1.0117-3.9453 1.7734-6.0469 2.2812-2.0938 0.50781-4.2812 0.76562-6.5625 0.76562-6.793 0-12.18-1.8984-16.156-5.7031-3.9688-3.8008-5.9531-8.957-5.9531-15.469 0-6.5195 1.9844-11.68 5.9531-15.484 3.9766-3.8008 9.3633-5.7031 16.156-5.7031 2.2812 0 4.4688 0.25781 6.5625 0.76562 2.1016 0.51172 4.1172 1.2656 6.0469 2.2656v8.4531c-1.9492-1.332-3.8711-2.3047-5.7656-2.9219-1.8984-0.625-3.8906-0.9375-5.9844-0.9375-3.7617 0-6.7188 1.2031-8.875 3.6094-2.1484 2.4062-3.2188 5.7266-3.2188 9.9531 0 4.2109 1.0703 7.5156 3.2188 9.9219 2.1562 2.4062 5.1133 3.6094 8.875 3.6094 2.0938 0 4.0859-0.30469 5.9844-0.92188 1.8945-0.625 3.8164-1.5977 5.7656-2.9219z"/>
  </symbol>
  <symbol id="i" overflow="visible">
   <path d="m27.453-22.281c-0.85547-0.40625-1.7109-0.70312-2.5625-0.89062-0.84375-0.19531-1.6953-0.29688-2.5469-0.29688-2.5234 0-4.4609 0.80859-5.8125 2.4219-1.3555 1.6172-2.0312 3.9297-2.0312 6.9375v14.109h-9.7969v-30.625h9.7969v5.0312c1.25-2.0078 2.6914-3.4727 4.3281-4.3906 1.6328-0.91406 3.5859-1.375 5.8594-1.375 0.33203 0 0.6875 0.015625 1.0625 0.046875 0.38281 0.023438 0.94141 0.078125 1.6719 0.17188z"/>
  </symbol>
  <symbol id="b" overflow="visible">
   <path d="m35.281-15.391v2.7812h-22.891c0.23828 2.3047 1.0664 4.0273 2.4844 5.1719 1.4258 1.1484 3.4141 1.7188 5.9688 1.7188 2.0508 0 4.1562-0.30078 6.3125-0.90625 2.1641-0.61328 4.3906-1.5391 6.6719-2.7812v7.5469c-2.3125 0.875-4.6328 1.5391-6.9531 1.9844-2.3125 0.44531-4.625 0.67188-6.9375 0.67188-5.543 0-9.8516-1.4062-12.922-4.2188-3.0742-2.8203-4.6094-6.7734-4.6094-11.859 0-5 1.5039-8.9258 4.5156-11.781 3.0195-2.8633 7.1758-4.2969 12.469-4.2969 4.8125 0 8.6602 1.4492 11.547 4.3438 2.8945 2.8984 4.3438 6.7734 4.3438 11.625zm-10.062-3.2656c0-1.8516-0.54688-3.3477-1.6406-4.4844-1.0859-1.1445-2.5-1.7188-4.25-1.7188-1.8984 0-3.4375 0.53906-4.625 1.6094-1.1797 1.0625-1.9141 2.5938-2.2031 4.5938z"/>
  </symbol>
  <symbol id="a" overflow="visible">
   <path d="m18.438-13.781c-2.043 0-3.5781 0.35156-4.6094 1.0469-1.0312 0.6875-1.5469 1.7031-1.5469 3.0469 0 1.2422 0.41016 2.2148 1.2344 2.9219 0.83203 0.69922 1.9883 1.0469 3.4688 1.0469 1.8438 0 3.3906-0.66016 4.6406-1.9844 1.2578-1.3203 1.8906-2.9727 1.8906-4.9531v-1.125zm14.953-3.6875v17.469h-9.875v-4.5469c-1.3125 1.8672-2.793 3.2266-4.4375 4.0781-1.6367 0.84375-3.6328 1.2656-5.9844 1.2656-3.168 0-5.7422-0.92578-7.7188-2.7812-1.9805-1.8516-2.9688-4.2539-2.9688-7.2031 0-3.5938 1.2344-6.2266 3.7031-7.9062 2.4688-1.6758 6.3477-2.5156 11.641-2.5156h5.7656v-0.76562c0-1.5508-0.60938-2.6875-1.8281-3.4062s-3.125-1.0781-5.7188-1.0781c-2.0938 0-4.0469 0.21484-5.8594 0.64062-1.8047 0.41797-3.4766 1.043-5.0156 1.875v-7.4688c2.0938-0.50781 4.1953-0.89453 6.3125-1.1562 2.1133-0.25781 4.2266-0.39062 6.3438-0.39062 5.5195 0 9.5039 1.0898 11.953 3.2656 2.457 2.1797 3.6875 5.7188 3.6875 10.625z"/>
  </symbol>
  <symbol id="h" overflow="visible">
   <path d="m15.391-39.328v8.7031h10.094v7h-10.094v12.984c0 1.4297 0.28125 2.3906 0.84375 2.8906 0.57031 0.5 1.6953 0.75 3.375 0.75h5.0312v7h-8.3906c-3.8672 0-6.6055-0.80469-8.2188-2.4219-1.6172-1.6133-2.4219-4.3516-2.4219-8.2188v-12.984h-4.875v-7h4.875v-8.7031z"/>
  </symbol>
  <symbol id="g" overflow="visible">
   <path d="m25.547-26.141v-16.406h9.8438v42.547h-9.8438v-4.4375c-1.3555 1.8125-2.8438 3.1406-4.4688 3.9844-1.6172 0.83203-3.4922 1.25-5.625 1.25-3.7734 0-6.8711-1.5-9.2969-4.5-2.4297-3-3.6406-6.8594-3.6406-11.578 0-4.7266 1.2109-8.5859 3.6406-11.578 2.4258-3 5.5234-4.5 9.2969-4.5 2.1133 0 3.9844 0.42188 5.6094 1.2656 1.6328 0.84375 3.1289 2.1641 4.4844 3.9531zm-6.4531 19.828c2.0938 0 3.6914-0.76562 4.7969-2.2969 1.1016-1.5312 1.6562-3.7539 1.6562-6.6719 0-2.9141-0.55469-5.1406-1.6562-6.6719-1.1055-1.5312-2.7031-2.2969-4.7969-2.2969-2.0859 0-3.6797 0.76562-4.7812 2.2969-1.1055 1.5312-1.6562 3.7578-1.6562 6.6719 0 2.918 0.55078 5.1406 1.6562 6.6719 1.1016 1.5312 2.6953 2.2969 4.7812 2.2969z"/>
  </symbol>
  <symbol id="f" overflow="visible">
   <path d="m21-6.3125c2.0938 0 3.6914-0.76562 4.7969-2.2969 1.1016-1.5312 1.6562-3.7539 1.6562-6.6719 0-2.9141-0.55469-5.1406-1.6562-6.6719-1.1055-1.5312-2.7031-2.2969-4.7969-2.2969s-3.7031 0.77344-4.8281 2.3125c-1.1172 1.5312-1.6719 3.75-1.6719 6.6562 0 2.8984 0.55469 5.1172 1.6719 6.6562 1.125 1.543 2.7344 2.3125 4.8281 2.3125zm-6.5-19.828c1.3438-1.7891 2.832-3.1094 4.4688-3.9531 1.6445-0.84375 3.5352-1.2656 5.6719-1.2656 3.7695 0 6.8672 1.5 9.2969 4.5 2.4258 2.9922 3.6406 6.8516 3.6406 11.578 0 4.7188-1.2148 8.5781-3.6406 11.578-2.4297 3-5.5273 4.5-9.2969 4.5-2.1367 0-4.0273-0.42188-5.6719-1.2656-1.6367-0.85156-3.125-2.1758-4.4688-3.9688v4.4375h-9.7969v-42.547h9.7969z"/>
  </symbol>
  <symbol id="e" overflow="visible">
   <path d="m0.6875-30.625h9.7812l8.2344 20.781 7-20.781h9.7969l-12.891 33.531c-1.293 3.4062-2.8047 5.7852-4.5312 7.1406-1.7188 1.3633-3.9922 2.0469-6.8125 2.0469h-5.6562v-6.4375h3.0625c1.6562 0 2.8594-0.26562 3.6094-0.79688 0.75781-0.52344 1.3516-1.4648 1.7812-2.8281l0.26562-0.85938z"/>
  </symbol>
  <symbol id="d" overflow="visible">
   <path d="m5.1406-40.828h10.531v15.562h15.531v-15.562h10.531v40.828h-10.531v-17.312h-15.531v17.312h-10.531z"/>
  </symbol>
  <symbol id="c" overflow="visible">
   <path d="m33.094-25.547c1.2383-1.8945 2.707-3.3359 4.4062-4.3281 1.707-0.98828 3.582-1.4844 5.625-1.4844 3.5195 0 6.1953 1.0859 8.0312 3.25 1.8438 2.168 2.7656 5.3203 2.7656 9.4531v18.656h-9.8438v-15.969c0.019531-0.23828 0.035156-0.48438 0.046875-0.73438 0.007812-0.25781 0.015625-0.625 0.015625-1.0938 0-2.1758-0.32422-3.75-0.96875-4.7188-0.63672-0.97656-1.6641-1.4688-3.0781-1.4688-1.8672 0-3.3047 0.76562-4.3125 2.2969-1.0117 1.5312-1.5391 3.7461-1.5781 6.6406v15.047h-9.8438v-15.969c0-3.3945-0.29297-5.5781-0.875-6.5469-0.58594-0.97656-1.6211-1.4688-3.1094-1.4688-1.875 0-3.3242 0.77344-4.3438 2.3125-1.0234 1.543-1.5312 3.7461-1.5312 6.6094v15.062h-9.8438v-30.625h9.8438v4.4844c1.1953-1.7266 2.5703-3.0312 4.125-3.9062 1.5625-0.875 3.2852-1.3125 5.1719-1.3125 2.1133 0 3.9766 0.51172 5.5938 1.5312 1.625 1.0234 2.8594 2.4492 3.7031 4.2812z"/>
  </symbol>
  <symbol id="k" overflow="visible">
   <path d="m4.7031-30.625h9.7969v30.625h-9.7969zm0-11.922h9.7969v7.9844h-9.7969z"/>
  </symbol>
  <symbol id="j" overflow="visible">
   <path d="m5.1406-40.828h10.531v36.859c0 5.0938-1.3828 8.8945-4.1406 11.406-2.7617 2.5195-6.9453 3.7812-12.547 3.7812h-2.125v-7.9688h1.6406c2.1875 0 3.8359-0.60938 4.9531-1.8281 1.125-1.2188 1.6875-3.0156 1.6875-5.3906z"/>
  </symbol>
 </defs>
 <g>
  <path d="m253.79 298.93c7.6172 2.9102 43.68 7.7266 75.711 8.625 11.426 0.33594 22.398 0.11328 31.359-1.0078 8.625-1.0078 15.23-2.8008 18.367-5.6016 1.2305-1.2305 1.9023-2.6875 1.5664-4.3672-0.11328-0.78516-1.3438-3.9219-2.9102-7.2812-1.2305-3.0234-2.6875-6.1602-3.6953-7.9531-8.625 3.1367-16.688 5.6016-23.855 6.9453-9.0703 1.793-18.031-2.9102-25.648-6.9453-1.0078-0.55859-2.1289-1.1211-3.1367-1.6797-6.0469 1.6797-58.016 16.238-64.176 17.922-1.3438 0.33594-2.4648 0.78516-3.5859 1.3438zm188.61 26.434h-0.22266c-3.6953 1.0078-6.7188 1.793-8.8477 2.5742-11.984 4.4805-51.969 8.2891-96.656 7.3906-32.48-0.67188-67.535-3.8086-96.098-10.863-0.55859 1.6797-1.3438 4.8164-2.0156 8.2891 16.574 3.2461 22.734 7.0547 28.449 10.527 6.0469 3.6953 11.535 7.0547 29.793 8.8477 3.3594 0.33594 6.9453 0.67188 10.641 1.0078h0.22266c3.9219 0.33594 8.0625 0.55859 12.32 0.78516h0.22656c1.457 0 2.9102 0.11328 4.3672 0.22266 2.5742 0.11328 5.2656 0.11328 8.0625 0.22266h0.22656c4.0312 0.11328 8.0625 0.11328 12.32 0.11328h0.22656 7.8398c1.5664 0 3.0234-0.11328 4.5938-0.11328h0.22656c4.1445-0.11328 8.2891-0.11328 12.32-0.33594h0.33984c4.0312-0.11328 8.1758-0.22266 12.32-0.33594h0.22656c4.1445-0.11328 8.2891-0.33594 12.434-0.44922v-0.11328h0.22656c4.1445-0.11328 8.2891-0.33594 12.434-0.55859h0.11328c4.1445-0.22266 8.2891-0.44922 12.434-0.67188h0.22266c4.1445-0.22266 8.2891-0.44922 12.434-0.67188v-0.11328h0.22656c4.1445-0.22266 8.2891-0.44922 12.434-0.78516h0.11328c3.5859-0.22266 7.168-0.44922 10.754-0.78516l1.6797-0.11328h0.22656c4.1445-0.33594 8.2891-0.67188 12.434-0.89453v-0.11328h0.22656c4.1445-0.22266 8.2891-0.55859 12.434-1.0078h0.22656c4.1445-0.33594 8.2891-0.67188 12.32-1.0078h0.22656c4.1445-0.33594 8.2891-0.78516 12.434-1.1211h0.22656c4.1445-0.33594 8.2891-0.78516 12.434-1.1211h0.11328v-0.11328h0.11328c4.1445-0.33594 8.2891-0.67188 12.434-1.1211h0.22656c4.1445-0.44922 8.1758-0.78516 12.32-1.2305h0.22656c4.1445-0.44922 8.2891-0.78516 12.434-1.2305h0.22266 0.55859c1.9023-0.22266 3.5859-0.55859 5.0391-1.0078 1.2305-0.44922 2.4648-0.89453 3.4727-1.457 0.33594-1.0078 0.67188-2.0156 0.89453-3.0234 1.457-7.0547 1.0078-15.566 0-23.969-0.33594 0.22266-0.55859 0.33594-1.0078 0.44922-1.0078 0.11328-2.1289 0.22266-3.1367 0.44922-0.44922 0-0.78516-0.11328-1.1211-0.33594-1.1211-0.89453-0.67188-2.6875 0.67188-2.8008 1.1211-0.11328 2.1289-0.33594 3.1367-0.44922 0.33594 0 0.55859 0 0.89453 0.11328 0 0 0.11328 0.11328 0.22266 0.11328-0.22266-1.2305-0.33594-2.4648-0.55859-3.6953-6.1602 0.78516-30.129 4.0312-56.449 8.0625-0.11328 0-0.22266 0-0.22266 0.11328-25.984 3.9219-54.32 8.625-70 12.32zm-2.4648-2.5742c-5.8242-16.574-17.137-24.305-27.215-31.023-7.9531-5.4883-15.121-10.305-18.703-18.703-5.7109 2.5742-11.312 5.0391-16.91 7.168 1.0078 1.9023 2.4648 5.0391 3.6953 7.8398 1.5664 3.5859 2.9102 6.9453 3.1367 8.0625 0.44922 2.8008-0.44922 5.1523-2.6875 7.0547-3.5859 3.3594-10.754 5.375-20.047 6.4961-9.0703 1.1211-20.16 1.3438-31.809 1.0078-32.594-0.89453-69.777-6.4961-78.062-9.9688-5.7109 4.8164-7.168 13.551-9.7422 20.719 28.336 7.0547 62.945 10.078 95.199 10.754 44.238 0.89453 83.777-2.8008 95.535-7.168 1.793-0.67188 4.3672-1.457 7.6172-2.2383zm-43.008-50.961c3.1367 7.5039 9.9688 12.207 17.586 17.246 10.527 7.168 22.398 15.121 28.449 32.93 15.793-3.5859 42.559-8.0625 67.426-11.871-3.4727-15.457-13.441-25.535-23.969-36.176-10.078-10.191-20.609-20.719-26.77-36.961-12.32 8.0625-27.441 17.023-43.23 25.199-6.4961 3.3594-12.992 6.6094-19.488 9.6328zm164.75 71.68v4.5938c2.3516-1.457 4.2578-3.4727 5.6016-5.9375-0.22266 0.11328-0.55859 0.22266-0.78516 0.33594-1.457 0.44922-3.1367 0.78516-4.8164 1.0078zm-3.2461 6.1602v-5.9375c-3.1367 0.33594-6.2734 0.67188-9.4062 1.0078v6.7188l3.1367-0.33594c2.3516-0.22266 4.4805-0.78516 6.2734-1.457zm-10.754 5.0391h-0.22656c-4.1445 0.44922-8.2891 0.78516-12.434 1.2305h-0.22656c-4.1445 0.44922-8.2891 0.78516-12.32 1.2305h-0.33984c-4.0312 0.33594-8.1758 0.78516-12.32 1.1211h-0.22656c-4.1445 0.44922-8.2891 0.78516-12.434 1.1211h-0.11328v0.11328h-0.11328c-4.1445 0.33594-8.2891 0.67187-12.434 1.0078h-0.22656c-4.1445 0.44922-8.2891 0.78516-12.434 1.1211h-0.22656c-4.1445 0.33594-8.2891 0.67188-12.434 1.0078h-0.22656c-3.3594 0.22266-6.7188 0.44922-10.078 0.67188l-2.3516 0.22266h-0.11328c-4.1445 0.33594-8.2891 0.55859-12.543 0.89453h-0.11328c-4.1445 0.22266-8.2891 0.55859-12.434 0.78516h-0.22266c-4.1445 0.22266-8.2891 0.44922-12.434 0.78516h-0.22266c-4.1445 0.22266-8.2891 0.44922-12.434 0.55859h-0.22656c-4.1445 0.22266-8.2891 0.44922-12.434 0.55859h-0.22656c-4.1445 0.22266-8.2891 0.33594-12.434 0.44922h-0.11328v0.11328-0.11328h-0.11328c-4.1445 0.22266-8.2891 0.33594-12.32 0.44922h-0.33984c-4.1445 0.11328-8.1758 0.11328-12.32 0.22266h-0.5625c-4.1445 0.11328-8.1758 0.11328-12.098 0h-0.33984c-4.2578 0-8.3984-0.11328-12.434-0.22266h-0.22656c-4.2578-0.11328-8.3984-0.33594-12.434-0.55859h-0.22266c-6.0469-0.33594-11.871-0.78516-17.246-1.3438-20.609-2.0156-36.289-5.0391-45.246-7.6172-4.0312 0.11328-8.2891 0.11328-12.77 0.11328-27.441 0.33594-60.93 0.67188-81.312-3.6953-6.3828-1.3438-13.777-3.6953-18.816-7.2812-3.9219-2.8008-6.3828-6.4961-5.7109-11.312 0.33594-1.793 0.55859-3.8086 0.78516-6.0469l0.22266-1.3438c1.5664-13.105 4.1445-30.688 14.672-36.961h0.11328c9.4062-5.8242 27.328-10.754 45.023-15.566 7.8398-2.2383 15.566-4.3672 22.625-6.4961 1.6797-1.0078 19.152-10.414 39.984-21.617h0.11328c8.0625-4.3672 16.574-8.9609 24.863-13.441 0.11328 0 0.11328 0 0.22266-0.11328 4.3672-2.3516 8.7344-4.7031 12.992-7.0547h0.11328c4.2578-2.3516 8.3984-4.4805 12.098-6.4961 0.11328-0.11328 0.11328-0.11328 0.22266-0.11328 4.4805-2.4648 8.625-4.7031 12.098-6.6094 0.11328-0.11328 0.22266-0.11328 0.22266-0.11328 6.4961-3.4727 10.754-5.8242 11.426-6.2734 1.793-1.1211 7.5039 0.33594 13.664 2.4648 3.5859-1.793 22.062-11.199 28.449-8.8477 6.0469 2.3516 20.16 30.352 23.52 37.184l2.6875-1.5664c0.11328 0 0.22266-0.11328 0.33594-0.11328 4.7031-2.5742 9.4062-5.1523 13.887-7.6172v-0.11328h0.11328c0.11328-0.11328 0.33594-0.11328 0.44922-0.22266 4.7031-2.5742 9.2969-5.1523 13.664-7.5039 0.11328-0.11328 0.33594-0.22266 0.55859-0.33594 0.11328 0 0.22266-0.11328 0.33594-0.11328 4.8164-2.6875 9.4062-5.1523 13.328-7.2812 0.11328-0.22266 0.44922-0.44922 0.67188-0.55859h0.55859c8.3984-4.5938 14.113-7.6172 15.008-7.9531 0.89453-0.44922 2.5742-0.33594 4.5938 0.11328l30.129-13.664c0.89453-0.33594 1.9023-0.33594 3.1367 0 2.1289 0.67188 4.9297 3.0234 7.7266 6.2734 2.6875 3.2461 5.375 7.3906 7.5039 12.207 3.8086 8.3984 5.9375 18.48 3.3594 28 6.7188 2.0156 14.895-8.5117 21.168-16.801 1.3438-1.6797 2.4648-3.2461 3.6953-4.5938 1.793-2.2383 4.3672-4.1445 7.2812-5.6016 3.1367-1.5664 6.7188-2.6875 10.078-2.8008 3.4727-0.22266 6.832 0.44922 9.1836 2.4648h0.11328c1.0078 0.78516 1.9023 1.9023 2.4648 3.1367 0.11328 0.22266 0.22266 0.33594 0.22266 0.55859l10.191 88.031c1.6797 11.199 3.0234 23.184 1.0078 32.703-2.1289 10.078-7.8398 17.359-20.496 18.703l-4.8164 0.44922zm-1.793-3.0234v-6.7188c-3.2461 0.33594-6.3828 0.67188-9.5195 1.0078v6.7188c3.1367-0.33594 6.2734-0.67188 9.5195-1.0078zm-12.656 1.2305v-6.7188c-3.1367 0.33594-6.3828 0.67188-9.5195 0.89453v6.7188c3.1367-0.22266 6.3828-0.55859 9.5195-0.89453zm-12.656 1.2305v-6.7188c-3.1367 0.33594-6.2734 0.55859-9.5195 0.89453v6.7188c3.2461-0.33594 6.3828-0.55859 9.5195-0.89453zm-12.656 1.2305v-6.832c-3.1367 0.33594-6.2734 0.55859-9.4062 0.89453v6.7188c3.1367-0.22266 6.2734-0.55859 9.4062-0.78516zm-12.543 1.1211v-6.832c-3.2461 0.22266-6.3828 0.55859-9.5195 0.78516v6.832c3.1367-0.22266 6.2734-0.55859 9.5195-0.78516zm-12.656 1.1211v-6.832c-3.1367 0.22266-6.3828 0.44922-9.5195 0.67188v6.9453c3.1367-0.33594 6.3828-0.55859 9.5195-0.78516zm-12.656 1.0078v-6.832c-3.1367 0.22266-6.2734 0.44922-9.5195 0.67188v6.9453c3.2461-0.33594 6.3828-0.55859 9.5195-0.78516zm-12.656 1.0078v-6.9453h-0.11328c-3.1367 0.22266-6.2734 0.44922-9.2969 0.67188v6.9453h0.67188c2.9102-0.22266 5.8242-0.44922 8.7344-0.67188zm-12.543 0.89453v-6.9453c-3.2461 0.22266-6.3828 0.44922-9.5195 0.67188v6.9453c3.1367-0.22266 6.2734-0.44922 9.5195-0.67188zm-12.656 0.89453v-7.0547c-3.2461 0.22266-6.3828 0.44922-9.5195 0.55859v7.0547c3.1367-0.22266 6.2734-0.33594 9.5195-0.55859zm-12.656 0.78516v-7.0547c-3.1367 0.22266-6.3828 0.33594-9.5195 0.44922v7.168c3.1367-0.22266 6.3828-0.33594 9.5195-0.55859zm-12.656 0.67188v-7.0547c-3.1367 0.11328-6.2734 0.33594-9.5195 0.44922v7.168c3.2461-0.22266 6.3828-0.33594 9.5195-0.55859zm-12.656 0.67188v-7.168c-3.1367 0.11328-6.2734 0.22266-9.4062 0.33594v7.2812c3.1367-0.11328 6.2734-0.33594 9.4062-0.44922zm-12.543 0.55859v-7.2812c-3.2461 0.11328-6.3828 0.22266-9.5195 0.33594v7.2812c3.1367-0.11328 6.2734-0.22266 9.5195-0.33594zm-12.656 0.44922v-7.2812c-3.1367 0-6.3828 0.11328-9.5195 0.22266v7.2812c3.1367 0 6.3828-0.11328 9.5195-0.22266zm-12.656 0.33594v-7.3906c-1.0078 0-2.0156 0.11328-3.0234 0.11328h-6.4961v7.5039c3.1367-0.11328 6.3828-0.11328 9.5195-0.22266zm-12.656 0.22266v-7.5039c-3.2461 0-6.3828 0-9.5195-0.11328v7.7266c3.1367 0 6.3828 0 9.5195-0.11328zm-12.656 0v-7.6172c-2.2383-0.11328-4.4805-0.22266-6.6094-0.22266-1.0078-0.11328-1.9023-0.11328-2.8008-0.22266v7.9531c3.0234 0 6.2734 0.11328 9.4062 0.11328zm-25.199-0.89453v-8.0625c-3.2461-0.33594-6.3828-0.55859-9.4062-0.89453-18.93-1.9023-24.754-5.4883-31.137-9.4062-5.375-3.2461-11.312-6.9453-27.215-9.9688-1.0078 8.0625-0.33594 17.359 7.2812 19.602 8.8477 2.5742 24.414 5.4883 44.91 7.5039 4.9297 0.44922 10.078 0.89453 15.566 1.2305zm3.1367-7.8398v8.0625c3.0234 0.11328 6.2734 0.33594 9.5195 0.44922v-7.9531c-3.2461-0.11328-6.4961-0.33594-9.5195-0.55859zm-66.191-27.328c-0.55859-0.22266-1.2305 0.11328-1.5664 0.67187-0.67188 0.89453-0.11328 2.1289 0.89453 2.3516 1.0078 0.22266 2.0156 0.44922 3.1367 0.67188 1.457 0.33594 2.4648-1.457 1.457-2.5742-0.22266-0.22266-0.55859-0.44922-0.78516-0.44922-1.0078-0.22266-2.1289-0.44922-3.1367-0.67187zm12.32 2.4648c-1.6797-0.22266-2.5742 1.9023-1.2305 2.9102 0.11328 0.11328 0.33594 0.22266 0.55859 0.22266 1.1211 0.22266 2.1289 0.33594 3.1367 0.55859 1.457 0.22266 2.4648-1.457 1.457-2.5742-0.22266-0.22266-0.55859-0.44922-0.89453-0.55859-1.0078-0.11328-2.0156-0.33594-3.0234-0.55859zm12.32 2.1289c-0.67188-0.11328-1.2305 0.22266-1.5664 0.67187-0.67188 1.0078-0.11328 2.2383 1.0078 2.4648 1.1211 0.11328 2.1289 0.22266 3.1367 0.44922 0.67188 0.11328 1.3438-0.33594 1.6797-0.89453 0.44922-1.0078-0.11328-2.1289-1.2305-2.2383-1.0078-0.11328-2.0156-0.33594-3.0234-0.44922zm12.32 1.6797c-1.457-0.22266-2.3516 1.5664-1.2305 2.6875 0.22266 0.22266 0.55859 0.33594 0.89453 0.44922 1.0078 0.11328 2.1289 0.22266 3.1367 0.33594 1.5664 0.11328 2.3516-1.793 1.1211-2.8008-0.22266-0.22266-0.44922-0.33594-0.78516-0.33594-1.0078-0.11328-2.0156-0.22266-3.1367-0.33594zm12.434 1.3438c-1.5664-0.22266-2.3516 1.9023-1.0078 2.8008 0.22266 0.22266 0.44922 0.22266 0.78516 0.33594 1.0078 0 2.0156 0.11328 3.1367 0.22266 0.55859 0 1.2305-0.22266 1.457-0.78516 0.55859-1.0078-0.11328-2.2383-1.2305-2.3516-1.0078-0.11328-2.0156-0.22266-3.1367-0.22266zm12.543 1.0078c-1.6797-0.11328-2.3516 2.0156-0.89453 2.9102 0.22266 0.11328 0.44922 0.11328 0.67188 0.22266 1.0078 0 2.1289 0.11328 3.1367 0.22266 1.5664 0 2.2383-2.0156 1.0078-2.9102-0.22266-0.11328-0.55859-0.22266-0.78516-0.22266-1.1211-0.11328-2.1289-0.22266-3.1367-0.22266zm12.434 0.67187c-0.55859 0-1.2305 0.33594-1.457 1.0078-0.44922 1.0078 0.22266 2.1289 1.3438 2.1289l3.1367 0.11328c0.67188 0.11328 1.3438-0.33594 1.5664-1.0078 0.33594-1.0078-0.33594-2.0156-1.457-2.1289l-3.1367-0.11328zm12.543 0.44922c-1.6797 0-2.2383 2.2383-0.78516 3.0234 0.22266 0.11328 0.44922 0.11328 0.67188 0.11328 1.1211 0.11328 2.1289 0.11328 3.1367 0.11328 0.55859 0 1.0078-0.22266 1.3438-0.67188 0.78516-1.0078 0-2.4648-1.2305-2.4648-1.0078 0-2.1289 0-3.1367-0.11328zm12.543 0.22266c-1.6797 0-2.2383 2.3516-0.67188 3.0234 0.22266 0.11328 0.44922 0.11328 0.67188 0.11328 1.0078 0.11328 2.0156 0.11328 3.1367 0.11328 1.5664 0 2.1289-2.1289 0.78516-2.9102-0.22266-0.22266-0.55859-0.22266-0.78516-0.22266-1.0078 0-2.1289 0-3.1367-0.11328zm12.543 0c-1.6797 0.11328-2.1289 2.4648-0.55859 3.0234 0.11328 0.11328 0.33594 0.11328 0.55859 0.11328h3.1367c0.67188 0 1.3438-0.44922 1.457-1.1211 0.33594-1.0078-0.44922-2.0156-1.457-2.0156zm12.543-0.22266c-1.457 0.11328-2.1289 1.793-1.0078 2.8008 0.22266 0.22266 0.67188 0.33594 1.0078 0.33594 1.1211 0 2.1289 0 3.2461-0.11328 0.44922 0 0.78516-0.22266 1.1211-0.55859 0.78516-1.0078 0.11328-2.5742-1.3438-2.5742-1.0078 0.11328-2.0156 0.11328-3.0234 0.11328zm12.434-0.44922c-0.55859 0-1.2305 0.44922-1.3438 1.1211-0.33594 1.0078 0.44922 2.0156 1.5664 2.0156 1.0078-0.11328 2.0156-0.11328 3.1367-0.22266 1.3438 0 2.0156-1.6797 0.89453-2.6875-0.22266-0.22266-0.67188-0.44922-1.1211-0.44922-1.0078 0.11328-2.0156 0.11328-3.1367 0.22266zm12.543-0.78516c-1.2305 0.11328-1.9023 1.457-1.1211 2.4648 0.33594 0.44922 0.78516 0.67188 1.3438 0.67188 1.0078-0.11328 2.1289-0.22266 3.1367-0.22266 1.5664-0.22266 2.0156-2.3516 0.55859-3.0234-0.33594-0.11328-0.55859-0.11328-0.78516-0.11328-1.1211 0.11328-2.1289 0.11328-3.1367 0.22266zm12.434-1.1211c-1.2305 0.11328-1.793 1.457-1.1211 2.4648 0.33594 0.44922 0.89453 0.67188 1.457 0.67188 1.0078-0.11328 2.1289-0.22266 3.1367-0.33594 1.3438-0.22266 1.9023-1.9023 0.78516-2.8008-0.33594-0.22266-0.78516-0.33594-1.1211-0.33594-1.0078 0.11328-2.1289 0.22266-3.1367 0.33594zm12.434-1.5664c-1.457 0.22266-1.9023 2.1289-0.55859 2.9102 0.33594 0.11328 0.67187 0.22266 1.0078 0.11328 1.0078-0.11328 2.1289-0.33594 3.1367-0.44922 0.67188-0.11328 1.1211-0.67188 1.2305-1.3438 0.22266-1.1211-0.78516-1.9023-1.793-1.793-1.0078 0.22266-2.0156 0.33594-3.0234 0.55859zm11.984-2.5742c-0.67188 0.22266-1.1211 0.78516-1.1211 1.5664 0.11328 1.0078 1.1211 1.6797 2.1289 1.3438 1.0078-0.22266 1.9023-0.67188 2.9102-1.0078 0.67188-0.22266 1.1211-0.78516 1.1211-1.457 0-1.0078-1.0078-1.793-2.1289-1.457-0.89453 0.33594-1.9023 0.67188-2.9102 1.0078zm12.207-3.4727c-1.457 0.33594-1.6797 2.3516-0.22266 2.9102 0.22266 0.11328 0.55859 0.22266 0.89453 0.11328 1.0078-0.22266 2.0156-0.44922 3.0234-0.67188 0.67188-0.11328 1.2305-0.67188 1.2305-1.3438 0.11328-1.1211-0.78516-2.0156-1.9023-1.6797-1.0078 0.22266-2.0156 0.44922-3.0234 0.67188zm12.32-2.5742c-0.67188 0.11328-1.1211 0.55859-1.2305 1.1211-0.22266 1.1211 0.67188 2.1289 1.793 1.9023 1.0078-0.22266 2.1289-0.33594 3.1367-0.55859 0.55859-0.11328 1.1211-0.67188 1.2305-1.2305 0.22266-1.1211-0.78516-2.1289-1.793-1.9023-1.1211 0.22266-2.1289 0.44922-3.1367 0.67188zm12.32-2.3516c-0.44922 0.11328-0.89453 0.44922-1.1211 0.89453-0.55859 1.1211 0.44922 2.4648 1.6797 2.2383 1.1211-0.22266 2.1289-0.44922 3.1367-0.55859 0.55859-0.11328 1.1211-0.55859 1.2305-1.1211 0.33594-1.1211-0.67188-2.2383-1.793-2.0156l-3.1367 0.55859zm12.434-2.1289c-0.33594 0-0.67188 0.22266-0.89453 0.44922-1.0078 1.1211 0 2.9102 1.457 2.6875l3.0234-0.55859c1.6797-0.33594 1.793-2.4648 0.22266-3.0234-0.22266-0.11328-0.44922-0.11328-0.67188-0.11328zm12.434-2.0156c-0.33594 0-0.67188 0.22266-0.89453 0.44922-1.1211 1.0078-0.11328 2.8008 1.3438 2.5742 1.0078-0.11328 2.1289-0.22266 3.1367-0.44922 1.457-0.22266 1.793-2.3516 0.33594-2.9102-0.22266-0.22266-0.55859-0.22266-0.89453-0.22266l-3.0234 0.55859zm12.32-2.0156c-0.44922 0.11328-0.78516 0.33594-1.0078 0.78516-0.67188 1.1211 0.22266 2.5742 1.5664 2.3516l3.0234-0.44922c0.78516-0.11328 1.2305-0.67188 1.3438-1.3438 0.22266-1.0078-0.67188-1.9023-1.793-1.793l-3.1367 0.44922zm12.434-1.9023c-0.67188 0.11328-1.2305 0.67188-1.2305 1.457-0.11328 1.0078 0.78516 1.793 1.793 1.6797l3.0234-0.44922c0.55859-0.11328 1.0078-0.44922 1.2305-0.89453 0.44922-1.1211-0.44922-2.3516-1.6797-2.2383l-3.1367 0.44922zm12.434-1.793c-1.457 0.22266-1.793 2.2383-0.44922 2.9102 0.33594 0.22266 0.55859 0.22266 0.89453 0.22266l3.1367-0.44922c1.6797-0.33594 1.9023-2.5742 0.22266-3.1367h-0.67188l-3.1367 0.44922zm12.434-1.793c-0.55859 0.11328-1.0078 0.44922-1.2305 1.0078-0.33594 1.1211 0.55859 2.2383 1.6797 2.1289l3.1367-0.44922c1.1211-0.22266 1.6797-1.457 1.1211-2.3516-0.33594-0.55859-0.89453-0.89453-1.5664-0.78516l-3.1367 0.44922zm12.434-1.793c-1.3438 0.22266-1.793 2.0156-0.67188 2.8008 0.33594 0.22266 0.78516 0.33594 1.1211 0.33594 1.0078-0.11328 2.1289-0.33594 3.1367-0.44922 0.44922 0 0.89453-0.33594 1.1211-0.67188 0.67188-1.1211-0.22266-2.5742-1.5664-2.4648-1.0078 0.22266-2.0156 0.33594-3.1367 0.44922zm-314.83 11.535c3.3594-9.6328 4.7031-20.047 13.105-25.199-3.0234 0.78516-6.6094 1.457-10.527 1.9023-14.559 2.0156-34.16 2.6875-44.352 2.6875-9.7422 0-24.414-0.55859-36.176-2.0156-7.8398-0.89453-14.449-2.2383-17.586-4.1445-5.6016 3.8086-8.5117 11.984-10.191 20.496 17.137 4.0312 34.047 6.3828 51.184 7.6172 17.586 1.2305 35.391 1.2305 53.871 0.67188 0.33594-1.0078 0.44922-1.5664 0.55859-1.793 0-0.11328 0.11328-0.22266 0.11328-0.22266zm19.938-27.887c11.199-3.0234 59.586-16.574 63.055-17.586 1.2305-0.67188 11.426-6.2734 25.426-14 0.22266-0.33594 0.55859-0.44922 0.89453-0.55859l3.5859-1.9023c-6.1602-7.168-10.414-12.098-13.215-15.457-2.1289-2.4648-3.4727-4.1445-4.3672-5.1523-5.7109 3.6953-11.762 7.2812-18.031 10.641-19.152 10.305-39.984 18.703-57.902 24.754 1.5664 3.4727 4.7031 11.648 2.4648 17.137-0.22266 0.78516-0.89453 1.457-1.9023 2.1289zm66.977-16.129 1.1211 0.55859c7.168 3.8086 15.566 8.1758 23.633 6.7188 18.031-3.5859 42.223-13.887 65.184-25.871 16.352-8.5117 32.031-17.809 44.574-25.984 0-0.11328 0.11328-0.11328 0.11328-0.11328 8.8477-5.9375 16.016-11.199 20.609-15.344-3.2461-1.457-9.8555-4.3672-15.793-6.6094l-8.9609 5.0391 1.793 4.8164c1.457 0.22266 2.4648 1.2305 2.4648 2.4648 0 1.3438-1.457 2.4648-3.1367 2.4648-1.793 0-3.2461-1.1211-3.2461-2.4648 0-0.67188 0.33594-1.3438 0.89453-1.793l-1.457-3.9219-11.535 6.6094 1.5664 4.4805c1.457 0.22266 2.4648 1.2305 2.4648 2.4648 0 1.3438-1.457 2.4648-3.2461 2.4648-1.793 0-3.2461-1.1211-3.2461-2.4648 0-0.78516 0.44922-1.3438 1.0078-1.793l-1.3438-3.5859-11.535 6.4961 1.457 4.2578c1.3438 0.22266 2.4648 1.2305 2.4648 2.3516 0 1.457-1.457 2.5742-3.2461 2.5742-1.793 0-3.2461-1.1211-3.2461-2.5742 0-0.67187 0.33594-1.2305 1.0078-1.6797l-1.2305-3.3594-11.535 6.6094 1.3438 3.9219c1.3438 0.22266 2.3516 1.2305 2.3516 2.3516 0 1.457-1.457 2.5742-3.1367 2.5742-1.793 0-3.2461-1.1211-3.2461-2.5742 0-0.67187 0.33594-1.3438 0.89453-1.793l-1.0078-2.9102-11.535 6.4961 1.2305 3.5859c1.3438 0.33594 2.3516 1.3438 2.3516 2.4648 0 1.3438-1.457 2.4648-3.2461 2.4648-1.793 0-3.1367-1.1211-3.1367-2.4648 0-0.67187 0.33594-1.3438 0.89453-1.793l-0.89453-2.6875-11.535 6.6094 1.0078 3.2461c1.457 0.33594 2.4648 1.2305 2.4648 2.4648 0 1.3438-1.457 2.4648-3.2461 2.4648-1.793 0-3.2461-1.1211-3.2461-2.4648 0-0.78516 0.44922-1.3438 1.0078-1.793l-0.78516-2.3516-11.535 6.4961 0.89453 3.0234c1.3438 0.33594 2.3516 1.2305 2.3516 2.4648 0 1.3438-1.457 2.4648-3.1367 2.4648-1.793 0-3.2461-1.1211-3.2461-2.4648 0-0.78516 0.33594-1.3438 1.0078-1.9023l-0.67187-2.0156-11.648 6.6094 1.0078 2.6875c1.2305 0.33594 2.2383 1.2305 2.2383 2.3516 0 1.457-1.457 2.5742-3.2461 2.5742-1.793 0-3.1367-1.1211-3.1367-2.5742v-0.44922l-3.0234-1.9023c-0.11328 0-0.11328-0.11328-0.22266-0.11328l-9.4062-5.8242c-6.4961 3.5859-11.535 6.3828-14.336 7.9531zm158.59-61.938c0.22266 0.11328 0.44922 0.22266 0.55859 0.33594l0.11328 0.11328c0.11328 0.11328 8.9609 11.199 20.496 20.16 2.0156-8.3984 0-17.359-3.3594-24.977-2.1289-4.4805-4.5938-8.3984-7.168-11.426-2.3516-2.9102-4.5938-4.8164-6.2734-5.2656-0.44922-0.22266-0.67188-0.22266-0.89453-0.11328l-26.543 11.984c1.2305 0.44922 2.4648 0.89453 3.8086 1.3438 0.22266 0 0.55859 0.11328 0.78516 0.22266 8.5117 3.0234 17.695 7.168 18.48 7.6172zm28.113 25.535c7.5039 4.5938 15.457 7.5039 22.625 5.7109 3.6953-1.0078 6.9453-2.6875 9.6328-4.8164 0.11328 0 0.11328-0.11328 0.22266-0.11328 11.09-8.625 14-24.078 14.449-27.105-0.44922-0.67187-0.89453-1.2305-1.5664-1.6797v-0.11328c-1.793-1.3438-4.3672-1.9023-7.0547-1.6797-3.0234 0.11328-6.1602 1.0078-8.9609 2.4648-2.5742 1.2305-4.7031 2.9102-6.2734 4.7031-1.0078 1.3438-2.2383 2.9102-3.4727 4.5938-5.7109 7.2812-12.543 16.352-19.602 18.031zm1.793 68.098c25.871-3.9219 49.168-7.168 55.215-7.9531l-5.4883-47.375h-0.22266l-0.89453-0.11328c-6.1602-0.67188-15.121-1.793-17.922-8.0625-2.6875 1.793-5.7109 3.2461-9.0703 4.1445-9.7422 2.4648-20.609-2.6875-30.129-9.6328h-0.11328v-0.11328h-0.11328c-0.11328-0.11328-0.11328-0.11328-0.22266-0.22266-10.305-7.6172-18.703-17.137-21.617-20.609-4.4805 4.1445-11.762 9.5195-20.609 15.457 5.9375 16.016 16.352 26.434 26.32 36.512 10.863 10.977 21.281 21.504 24.863 37.969zm49.281-58.465-3.1367-27.215c-2.0156 6.1602-5.8242 14.449-12.879 20.273 1.6797 5.2656 10.078 6.2734 15.68 6.9453h0.33594zm-327.6 82.879c0-0.11328 0-0.22266 0.11328-0.33594v-0.11328c0.33594-2.4648 0.89453-4.7031 1.3438-6.4961-18.367 0.55859-35.953 0.55859-53.312-0.67188-17.246-1.2305-34.273-3.5859-51.633-7.7266-0.22266 1.2305-0.33594 2.4648-0.55859 3.5859l1.3438 0.33594c0.22266 0.11328 0.33594 0.11328 0.55859 0.22266 1.3438 1.1211 0.33594 3.2461-1.3438 2.8008-0.33594 0-0.67188-0.11328-1.0078-0.22266-0.11328 0.78516-0.22266 1.5664-0.33594 2.2383 12.32 1.9023 24.977 7.168 35.168 11.426 6.9453 2.8008 12.656 5.2656 16.238 5.7109h0.11328l24.641 0.11328c0.11328 0 0.33594-0.11328 0.44922-0.11328 0.22266 0 0.33594 0.11328 0.55859 0.11328h11.984 0.11328 0.11328l12.434 0.11328h0.11328 0.11328 2.4648c-0.33594-3.5859-0.11328-7.5039 0.33594-10.977zm4.0312 21.391c-2.0156-1.9023-3.1367-4.4805-3.8086-7.3906-0.11328 0.11328-0.33594 0.11328-0.44922 0.11328h-1.1211v7.2812h5.375zm-8.5117 0.11328v-7.3945l-9.5195-0.11328v7.3906 0.11328h9.5195zm-12.656 0.11328v-0.22266-7.3906h-9.5195v7.3906 0.22266h9.5195zm-12.656 0v-0.22266-7.3906h-9.5195v7.2812 0.22266c3.2461 0 6.3828 0.11328 9.5195 0.11328zm-12.656-0.11328v-0.22266-7.2812l-9.4062-0.11328v7.2812c3.0234 0.11328 6.2734 0.22266 9.4062 0.33594zm-12.543-0.44922v-7.3906c-4.0312-0.78516-9.5195-3.1367-15.793-5.7109-10.078-4.2578-22.512-9.4062-34.383-11.199-0.33594 2.2383-0.55859 4.1445-0.78516 6.0469-0.55859 3.3594 1.3438 6.0469 4.3672 8.2891 4.5938 3.2461 11.648 5.375 17.695 6.7188 7.9531 1.6797 17.922 2.6875 28.895 3.2461zm29.793-82.098c-6.9453 2.1289-14.559 4.2578-22.176 6.2734-16.238 4.4805-32.48 8.9609-42 14 3.0234 1.2305 8.3984 2.2383 14.672 3.0234 11.648 1.3438 26.207 1.9023 35.84 1.9023 10.078 0 29.566-0.67188 43.902-2.5742 9.1836-1.2305 16.129-2.8008 16.801-4.8164 1.9023-4.7031-1.2305-12.207-2.5742-15.121-25.09 7.2812-41.215-0.78516-44.465-2.6875zm44.801-0.67188c18.258-6.0469 39.535-14.559 59.023-25.09 6.6094-3.4727 12.992-7.2812 19.039-11.199 0 0 0-0.11328 0.11328-0.11328 7.5039-4.9297 14.336-10.191 20.383-15.793-3.2461-1.457-9.6328-4.1445-15.457-6.3828h-0.44922l-8.1758 4.4805 1.2305 4.4805c1.0078 0.44922 1.793 1.3438 1.6797 2.3516-0.11328 1.3438-1.3438 2.2383-2.8008 2.1289-1.5664-0.11328-2.6875-1.2305-2.5742-2.4648 0-0.55859 0.22266-1.0078 0.67187-1.3438l-1.0078-3.6953-9.5195 5.1523 1.1211 4.4805c1.0078 0.33594 1.5664 1.2305 1.5664 2.2383-0.11328 1.2305-1.3438 2.2383-2.9102 2.1289-1.457-0.11328-2.5742-1.2305-2.5742-2.4648 0.11328-0.67188 0.33594-1.2305 0.78516-1.5664l-0.89453-3.2461-9.6328 5.2656 1.1211 4.1445c0.89453 0.44922 1.5664 1.2305 1.457 2.1289-0.11328 1.3438-1.3438 2.3516-2.8008 2.2383-1.5664-0.11328-2.6875-1.2305-2.5742-2.4648 0-0.67188 0.33594-1.2305 0.78516-1.5664l-0.78516-3.0234-9.6328 5.2656 1.0078 3.9219c0.89453 0.44922 1.457 1.2305 1.457 2.1289-0.11328 1.3438-1.3438 2.3516-2.9102 2.2383-1.457-0.11328-2.5742-1.2305-2.5742-2.5742 0.11328-0.55859 0.44922-1.1211 0.89453-1.5664l-0.78516-2.5742-9.7422 5.2656 0.78516 3.4727c1.1211 0.33594 1.793 1.2305 1.6797 2.2383-0.11328 1.3438-1.3438 2.3516-2.8008 2.2383-1.5664-0.11328-2.6875-1.2305-2.5742-2.5742 0-0.55859 0.22266-1.0078 0.67188-1.3438l-0.67188-2.4648-9.6328 5.2656 0.78516 3.1367c1.0078 0.33594 1.6797 1.2305 1.6797 2.2383-0.11328 1.3438-1.3438 2.2383-2.9102 2.2383-1.457-0.11328-2.5742-1.2305-2.5742-2.5742 0.11328-0.55859 0.33594-1.0078 0.67188-1.457l-0.44922-2.1289-9.7422 5.2656 0.78516 2.9102c1.0078 0.33594 1.6797 1.2305 1.5664 2.2383-0.11328 1.3438-1.3438 2.2383-2.8008 2.1289-1.5664 0-2.6875-1.1211-2.5742-2.4648 0-0.55859 0.22266-1.0078 0.67188-1.457l-0.44922-1.793-10.078 5.375 0.67187 2.3516c1.2305 0.22266 2.0156 1.2305 2.0156 2.3516-0.11328 1.3438-1.3438 2.2383-2.9102 2.1289-1.457 0-2.5742-1.1211-2.5742-2.3516l-2.9102-2.3516s-0.11328 0-0.11328-0.11328l-6.3828-4.9297-15.68 8.5117c5.375 2.5742 19.824 7.5039 41.328 1.0078zm102.48-53.762 0.67187 0.67187c2.0156 1.9023 8.0625 7.2812 14.559 12.098 5.0391 3.6953 10.191 7.0547 13.777 7.9531-3.9219-7.8398-16.574-32.816-21.391-34.719-4.2578-1.5664-17.246 4.3672-23.297 7.3906 7.8398 2.9102 15.121 6.2734 15.121 6.2734 0.22266 0.11328 0.44922 0.22266 0.55859 0.33594zm32.367 23.742h-0.11328v0.11328l-4.9297 2.6875 9.0703-0.11328-1.457-4.1445-2.5742 1.457zm-5.6016-0.55859c-3.9219-1.3438-8.7344-4.4805-13.328-7.8398-6.2734-4.7031-12.207-9.9688-14.559-12.098-5.9375 5.6016-12.77 10.863-20.047 15.793 0.89453 1.1211 2.1289 2.6875 4.1445 4.9297 2.9102 3.4727 7.2812 8.625 13.551 15.902l9.8555-5.375v-0.11328c6.6094-3.5859 13.441-7.3906 20.383-11.199zm-50.398-29.457c-2.5742-0.89453-4.9297-1.5664-6.4961-1.6797l1.2305 4.4805zm-9.4062-0.78516c-1.2305 0.67188-3.2461 1.6797-5.7109 3.1367l6.7188 0.55859zm-12.434 6.7188c-1.793 0.89453-3.6953 2.0156-5.7109 3.0234l6.7188 0.55859-1.0078-3.5859zm-12.434 6.7188-5.375 2.9102 6.2734 0.55859-0.89453-3.4727zm-12.543 6.7188-5.7109 3.1367 6.6094 0.22266-0.89453-3.3594zm-12.543 6.832-5.6016 3.0234 6.4961 0.11328zm-12.434 6.7188-6.7188 3.5859 7.6172 0.11328-0.89453-3.6953zm-12.543 6.7188-6.0469 3.2461 6.9453 0.22266-0.89453-3.4727zm-12.992 7.0547-4.1445 2.2383 4.4805 3.4727 1.1211-0.55859zm4.2578 3.6953 7.7266-4.2578-8.9609-0.11328 1.2305 4.3672zm12.992-7.168 6.6094-3.4727-7.6172-0.11328 0.89453 3.5859h0.11328zm12.434-6.6094 7.6172-4.1445-8.7344-0.22266 1.1211 4.3672zm12.543-6.832 7.3906-4.0312-8.5117-0.22266 1.1211 4.2578zm12.543-6.832 7.2812-3.8086-8.5117-0.78516zm12.543-6.7188 6.832-3.6953-8.0625-0.67188zm12.434-6.7188 6.832-3.6953-8.0625-0.67188zm33.711 50.848 1.457-0.78516-2.5742-6.832h-0.33594l-5.8242 3.2461 7.2812 4.3672zm4.2578-2.3516 9.8555-5.6016-11.871 0.22266 2.0156 5.375zm14.559-8.2891 8.5117-4.8164-9.9688 0.33594 1.3438 4.3672c0.11328 0 0.11328 0 0.11328 0.11328zm14.336-8.1758 10.191-5.7109-12.098 0.11328 1.9023 5.6016zm14.785-8.2891 8.7344-5.0391-10.977 0.11328 1.457 4.3672c0.33594 0.11328 0.55859 0.33594 0.78516 0.55859zm14-7.9531 8.9609-5.0391-10.977-0.22266 1.793 5.1523c0.11328 0 0.11328 0.11328 0.22266 0.11328zm14.113-8.0625 8.0625-4.4805-9.7422-0.22266zm14.336-8.0625 7.9531-4.4805-9.6328-0.33594zm14.223-8.0625 6.1602-3.4727c-1.5664-0.55859-3.0234-0.89453-4.2578-1.2305-0.33594 0-0.78516 0-1.1211-0.22266-1.1211-0.22266-2.1289-0.33594-2.6875-0.22266l1.9023 5.1523zm-12.32 0.22266 9.1836 0.22266-1.5664-4.2578c-1.793 1.0078-4.3672 2.3516-7.6172 4.0312zm-14.895 8.0625 9.8555 0.22266-1.6797-4.5938c-2.4648 1.3438-5.2656 2.8008-8.1758 4.3672zm-13.777 7.6172 9.0703 0.11328-1.457-4.2578c-2.4648 1.3438-5.0391 2.6875-7.6172 4.1445zm-15.008 8.1758 9.7422-0.11328-1.5664-4.3672c-2.6875 1.457-5.375 2.9102-8.1758 4.4805zm-34.609 20.047c-0.22266-0.11328-0.55859-0.33594-0.67188-0.67188l-8.8477 4.9297 10.863-0.22266-1.3438-4.0312zm3.8086-3.1367 12.098-0.44922-1.793-5.1523c-3.4727 1.9023-6.9453 3.8086-10.305 5.6016zm-226.02 70.223c-1.6797-0.22266-2.5742 1.9023-1.2305 2.9102 0.22266 0.11328 0.44922 0.22266 0.67188 0.22266 1.0078 0.22266 2.0156 0.44922 3.0234 0.67188 0.67188 0.11328 1.3438-0.22266 1.6797-0.78516 0.55859-0.89453 0-2.1289-1.0078-2.3516-1.0078-0.22266-2.1289-0.44922-3.1367-0.67188zm12.32 2.3516c-0.44922 0-0.89453 0.11328-1.3438 0.44922-0.89453 0.78516-0.44922 2.4648 0.78516 2.6875 1.0078 0.22266 2.1289 0.33594 3.1367 0.55859 1.5664 0.22266 2.4648-1.6797 1.2305-2.8008-0.22266-0.11328-0.44922-0.33594-0.78516-0.33594-1.0078-0.22266-2.0156-0.33594-3.0234-0.55859zm12.32 1.9023c-1.457-0.22266-2.3516 1.5664-1.3438 2.6875 0.33594 0.22266 0.67188 0.33594 1.0078 0.44922 1.0078 0.11328 2.0156 0.22266 3.1367 0.33594 1.457 0.22266 2.2383-1.5664 1.2305-2.5742-0.22266-0.33594-0.55859-0.44922-0.89453-0.55859-1.0078-0.11328-2.1289-0.22266-3.1367-0.33594zm12.434 1.3438c-1.3438-0.11328-2.2383 1.457-1.3438 2.5742 0.33594 0.33594 0.67188 0.44922 1.1211 0.55859 1.0078 0 2.0156 0.11328 3.1367 0.22266 0.55859 0 1.1211-0.22266 1.457-0.78516 0.55859-1.0078-0.11328-2.2383-1.2305-2.3516-1.0078-0.11328-2.1289-0.11328-3.1367-0.22266zm12.434 0.78516c-0.55859 0-1.2305 0.33594-1.457 1.0078-0.44922 1.0078 0.22266 2.1289 1.3438 2.1289 1.0078 0.11328 2.1289 0.11328 3.1367 0.11328 1.457 0.11328 2.2383-1.6797 1.1211-2.6875-0.22266-0.22266-0.55859-0.44922-1.0078-0.44922-1.0078 0-2.0156 0-3.1367-0.11328zm12.543 0.44922c-1.457-0.11328-2.1289 1.793-1.0078 2.6875 0.22266 0.22266 0.55859 0.44922 1.0078 0.44922h3.1367c0.67188 0 1.2305-0.44922 1.457-1.1211 0.33594-0.89453-0.44922-2.0156-1.457-2.0156h-3.1367zm12.543 0c-1.6797 0-2.1289 2.1289-0.78516 2.9102 0.22266 0.11328 0.44922 0.22266 0.78516 0.22266 1.0078 0 2.1289 0 3.1367-0.11328 0.55859 0 1.0078-0.22266 1.2305-0.67188 0.78516-1.0078 0-2.4648-1.2305-2.4648-1.1211 0.11328-2.1289 0.11328-3.1367 0.11328zm12.543-0.33594c-1.6797 0.11328-2.1289 2.2383-0.78516 3.0234 0.33594 0.11328 0.55859 0.11328 0.78516 0.11328h3.1367c1.6797-0.11328 2.1289-2.2383 0.67187-3.0234-0.22266-0.11328-0.44922-0.11328-0.67187-0.11328h-3.1367z"/>
  <use x="70" y="728" xlink:href="#l"/>
  <use x="111.097656" y="728" xlink:href="#i"/>
  <use x="138.714844" y="728" xlink:href="#b"/>
  <use x="176.695312" y="728" xlink:href="#a"/>
  <use x="214.484375" y="728" xlink:href="#h"/>
  <use x="241.253906" y="728" xlink:href="#b"/>
  <use x="279.234375" y="728" xlink:href="#g"/>
  <use x="338.816406" y="728" xlink:href="#f"/>
  <use x="378.902344" y="728" xlink:href="#e"/>
  <use x="434.902344" y="728" xlink:href="#d"/>
  <use x="481.769531" y="728" xlink:href="#a"/>
  <use x="519.558594" y="728" xlink:href="#c"/>
  <use x="577.910156" y="728" xlink:href="#k"/>
  <use x="597.105469" y="728" xlink:href="#c"/>
  <use x="674.953125" y="728" xlink:href="#j"/>
  <use x="695.789062" y="728" xlink:href="#a"/>
 </g>
</svg>
