<svg width="136" height="78" viewBox="0 0 136 78" fill="none" xmlns="http://www.w3.org/2000/svg">
<path d="M38.0601 0.00149002C30.1815 3.15693 22.6901 4.71927 10.0845 1.564C9.22741 1.32698 8.23442 1.94815 8.07155 2.82321C6.42818 12.6982 3.25485 43.2633 0.0715182 59.2059C-0.0509208 63.5766 0.0209698 68.0531 0.0209698 72.4574C0.0310794 73.1932 0.607343 73.8817 1.32962 74.0199C9.4208 75.6397 19.2103 77.2955 32.4239 77.2955H96.6283C107.132 76.2879 116.826 75.2871 126.618 73.1641C130.126 72.3947 132.846 71.6948 134.568 70.5446C134.994 70.2548 135.266 69.7504 135.272 69.2348C135.272 60.0733 132.53 53.9997 126.618 50.4914C120.706 46.9834 112.084 45.8602 99.9514 45.0501C84.5533 44.2795 71.1145 33.3488 60.7565 22.3763C53.9605 15.3692 49.5516 8.35752 42.8939 2.17145C41.0921 0.656131 39.9417 -0.0650226 38.0637 0.00459664L38.0601 0.00149002ZM38.7139 3.17591C41.1324 4.46097 43.187 7.08275 44.9031 9.07097L42.3375 11.6411C41.7444 12.2477 41.7568 13.3406 42.3622 13.9337C42.9688 14.528 44.0595 14.5156 44.6515 13.9079L47.016 11.54C48.6493 13.4777 50.3265 15.4974 52.2989 17.7879L48.7762 21.3151C48.1831 21.9217 48.1955 23.0147 48.8009 23.6078C49.4075 24.202 50.4982 24.1897 51.0902 23.582L54.4613 20.2065C56.1564 22.1195 57.6311 23.7358 59.1915 25.3962L55.2162 29.3772C54.6231 29.9838 54.6354 31.0768 55.2409 31.6699C55.8475 32.2641 56.9382 32.2518 57.5302 31.6441L61.5054 27.663C62.8781 29.0357 64.2598 30.4106 65.7323 31.7438L61.657 35.8247C61.0639 36.4313 61.0762 37.5242 61.6817 38.1173C62.2883 38.7116 63.379 38.6992 63.971 38.0915L68.1473 33.9095C69.6558 35.1911 71.2239 36.4065 72.8268 37.5871C71.781 39.2945 70.9205 41.2536 70.0095 43.079C69.6276 43.844 69.9994 44.8628 70.7644 45.2459C71.5282 45.6289 72.5459 45.3054 72.9279 44.5404L75.4935 39.452C77.0627 40.5045 78.6725 41.5177 80.3237 42.4243L78.9656 47.8655C78.687 48.7091 79.2532 49.7313 80.1159 49.9403C80.9786 50.1492 81.9491 49.4999 82.085 48.6215L83.242 43.9351C84.9842 44.763 86.7488 45.4841 88.5754 46.1019V51.4938C88.5642 52.3452 89.3348 53.1293 90.1851 53.1293C91.0355 53.1293 91.8072 52.3463 91.7948 51.4938V47.0095C95.2614 47.8632 98.2952 48.1878 101.455 48.3698V54.7186C84.0778 54.4906 72.4774 50.5444 62.6111 42.3735C52.8541 34.2936 44.7528 21.8205 34.8871 4.48123C36.2339 4.07346 37.5774 3.58371 38.7108 3.17146L38.7139 3.17591ZM11.0908 4.99004C19.3919 6.82326 25.8779 6.64241 31.6694 5.34276C41.7701 23.1458 50.1319 36.1782 60.6012 44.8454C71.0502 53.4982 83.575 57.7093 101.458 57.9454V60.8177C64.5207 62.7115 31.9714 61.5736 3.24088 59.5585C6.37935 43.7076 9.47296 15.3685 11.0905 4.99032L11.0908 4.99004ZM25.7836 17.6371C18.7081 17.6371 12.9027 23.4502 12.9027 30.5358C12.9027 37.6213 18.7081 43.4345 25.7836 43.4345C32.8591 43.4345 38.6644 37.6213 38.6644 30.5358C38.6644 23.4502 32.8591 17.6371 25.7836 17.6371ZM25.7836 24.0872C29.3781 24.0872 32.2244 26.937 32.2244 30.5372C32.2244 34.1375 29.3791 36.9873 25.7836 36.9873C22.189 36.9873 19.3427 34.1375 19.3427 30.5372C19.3427 26.9369 22.188 24.0872 25.7836 24.0872ZM104.68 48.6256C114.055 49.4433 120.764 50.743 125.007 53.2614C126.12 53.9219 127.1 54.6756 127.925 55.5293C122.083 57.6883 114.417 59.3473 104.68 60.4674V48.6256ZM129.838 58.2489C131.161 60.7336 131.844 63.9024 131.951 68.125C130.929 68.6215 128.947 69.3348 125.964 69.9897C116.102 71.9116 105.857 73.4798 96.4282 74.0705L95.2712 64.6482C110.308 63.5563 121.666 61.4289 129.839 58.2487L129.838 58.2489ZM3.24375 62.8847C41.1447 65.493 70.2691 66.1727 92.0521 64.8493L93.2091 74.0704H32.4267C20.1086 74.0704 11.0067 72.5685 3.24473 71.0475L3.24375 62.8847Z" fill="#CDCDCD"/>
</svg>
