<svg width="218" height="213" viewBox="0 0 218 213" fill="none" xmlns="http://www.w3.org/2000/svg">
<path d="M216.351 74.2045L216.194 73.8256C216.191 73.8166 216.188 73.8105 216.183 73.8015V73.7999L216.181 73.7984C202.406 40.1053 184.973 17.7868 184.8 17.5627C184.78 17.5356 184.746 17.5235 184.725 17.4978C184.641 17.4027 184.558 17.3061 184.453 17.2307C171.21 7.74896 153.21 3.20266 140.49 1.05508C140.479 1.05357 140.47 1.04602 140.459 1.04602C140.456 1.04602 140.45 1.04753 140.447 1.04753C137.875 0.612842 135.499 0.270227 133.447 0.0136227C133.408 0.00909489 133.374 0.0241882 133.336 0.0196601C133.299 0.0181508 133.266 3.86918e-05 133.227 3.86918e-05C133.184 3.86918e-05 133.147 0.022679 133.104 0.0241883C133.026 0.0287164 132.954 0.0377722 132.877 0.0528659C132.799 0.0679592 132.728 0.0860714 132.656 0.111729C132.581 0.137388 132.513 0.169085 132.444 0.20531C132.407 0.223422 132.367 0.223422 132.329 0.246063C127.15 3.31155 118.643 5.07134 108.993 5.07134C99.3426 5.07134 90.8354 3.31144 85.6565 0.244517C85.6194 0.221877 85.5792 0.221877 85.5422 0.203764C85.4757 0.170558 85.4123 0.138862 85.3412 0.114712C85.2655 0.0875436 85.1882 0.0679236 85.1094 0.0528272C85.0321 0.0377335 84.9564 0.0286777 84.8791 0.0241496C84.8358 0.0196214 84.8003 0 84.7585 0C84.7199 0 84.6874 0.0181121 84.6488 0.0226402C84.6102 0.0241495 84.5762 0.0105654 84.5375 0.0166028C82.485 0.273191 80.1096 0.618836 77.5378 1.05051C77.5347 1.05051 77.5316 1.04901 77.5254 1.04901C77.513 1.04901 77.5053 1.05504 77.4945 1.05806C64.7746 3.20436 46.7745 7.7504 33.5319 17.2337C33.4268 17.3091 33.3449 17.4057 33.2614 17.5008C33.2383 17.5265 33.2058 17.5401 33.1842 17.5672C33.0095 17.7891 15.577 40.1079 1.80299 73.8029L1.80145 73.8044V73.8059C1.79835 73.815 1.79526 73.821 1.79063 73.8301L1.63452 74.2044C0.583552 76.7356 -2.61732 84.4334 4.47838 87.7827L49.6121 105.74L45.0232 202.856V202.859V202.86L44.9428 204.548C44.9428 208.114 44.9428 213 51.867 213H166.116C173.04 213 173.04 208.114 173.039 204.469L168.369 105.738L213.61 87.7374C220.604 84.435 217.403 76.7341 216.352 74.2048L216.351 74.2045ZM184.063 22.3311C188.898 29.0235 201.602 47.7578 212.338 73.5399L167.908 91.6884C168.213 82.9883 169.698 69.9823 171.234 63.047L184.063 22.3311ZM109.064 25.3604C120.992 25.3604 133.693 16.6982 134.844 3.61376C135.97 3.76772 137.166 3.94582 138.425 4.14656C136.614 19.3504 125.484 28.7413 108.991 28.7413C92.4984 28.7413 81.3691 19.35 79.5589 4.14656C80.8185 3.94582 82.0148 3.76771 83.14 3.61376C84.2961 16.6982 97.0704 25.3604 109.064 25.3604ZM90.1387 12.6078C95.4074 14.3013 101.911 15.2175 108.991 15.2175C116.087 15.2175 122.6 14.2983 127.875 12.5958C123.603 18.4477 116.179 21.9793 109.064 21.9793C101.908 21.9793 94.44 18.4521 90.1387 12.6078ZM131.245 4.57666C131.058 5.75547 130.781 6.89803 130.382 7.98024C125.123 10.4284 117.387 11.8366 108.992 11.8366C100.601 11.8366 92.8681 10.4299 87.6101 7.98476C87.2083 6.90104 86.9301 5.75697 86.7415 4.57666C92.4229 7.05197 100.299 8.45566 108.991 8.45566C117.685 8.45566 125.562 7.05197 131.245 4.57666ZM76.1479 4.73061C78.2406 21.4271 90.9206 32.1224 108.991 32.1224C127.062 32.1224 139.742 21.4271 141.835 4.73061C153.699 6.87691 169.457 11.0895 181.406 19.2656L167.885 62.1939C166.121 70.1405 164.452 85.4652 164.392 94.2298V94.26C164.39 94.42 164.387 94.5935 164.387 94.749L169.418 201.169H48.5656L53.5981 94.6717L53.5935 94.2325C53.5394 85.5537 51.8655 70.1613 50.0603 62.0563L36.5767 19.2671C48.5239 11.091 64.2841 6.87858 76.1474 4.73217L76.1479 4.73061ZM33.9223 22.3312L46.7134 62.9103C48.2853 69.9847 49.7768 83.0448 50.0782 91.6904L5.64867 73.5419C16.3764 47.7787 29.0872 29.0294 33.9235 22.3332L33.9223 22.3312ZM5.88414 84.6951C2.82389 83.2492 2.97072 80.4463 4.37411 76.6836L50.1014 95.3634L49.7814 102.155L5.88414 84.6951ZM166.118 209.62H51.8686C48.5533 209.62 48.4065 208.485 48.405 204.627L48.408 204.549H169.581C169.581 208.485 169.434 209.62 166.119 209.62L166.118 209.62ZM212.205 84.6488L168.207 102.153L167.885 95.3607L213.616 76.6809C215.02 80.4423 215.176 83.2434 212.207 84.6488H212.205Z" fill="#CDCDCD"/>
</svg>
