<svg width="25" height="26" viewBox="0 0 25 26" fill="none" xmlns="http://www.w3.org/2000/svg">
<g clip-path="url(#clip0_19_152)">
<path d="M25 13C25 6.09644 19.4036 0.5 12.5 0.5C5.59644 0.5 0 6.09644 0 13C0 19.239 4.57104 24.4104 10.5469 25.3481V16.6133H7.37305V13H10.5469V10.2461C10.5469 7.11328 12.4131 5.38281 15.2683 5.38281C16.6355 5.38281 18.0664 5.62695 18.0664 5.62695V8.70312H16.4902C14.9375 8.70312 14.4531 9.66675 14.4531 10.6562V13H17.9199L17.3657 16.6133H14.4531V25.3481C20.429 24.4104 25 19.239 25 13Z" fill="white"/>
</g>
<defs>
<clipPath id="clip0_19_152">
<rect width="25" height="25" fill="white" transform="translate(0 0.5)"/>
</clipPath>
</defs>
</svg>
