<svg width="25" height="26" viewBox="0 0 25 26" fill="none" xmlns="http://www.w3.org/2000/svg">
<g clip-path="url(#clip0_19_146)">
<path d="M12.5 2.75098C15.8398 2.75098 16.2354 2.76562 17.5488 2.82422C18.7695 2.87793 19.4287 3.08301 19.8682 3.25391C20.4492 3.47852 20.8691 3.75195 21.3037 4.18652C21.7432 4.62598 22.0117 5.04102 22.2363 5.62207C22.4072 6.06152 22.6123 6.72559 22.666 7.94141C22.7246 9.25977 22.7393 9.65527 22.7393 12.9902C22.7393 16.3301 22.7246 16.7256 22.666 18.0391C22.6123 19.2598 22.4072 19.9189 22.2363 20.3584C22.0117 20.9395 21.7383 21.3594 21.3037 21.7939C20.8643 22.2334 20.4492 22.502 19.8682 22.7266C19.4287 22.8975 18.7646 23.1025 17.5488 23.1563C16.2305 23.2148 15.835 23.2295 12.5 23.2295C9.16016 23.2295 8.76465 23.2148 7.45117 23.1563C6.23047 23.1025 5.57129 22.8975 5.13184 22.7266C4.55078 22.502 4.13086 22.2285 3.69629 21.7939C3.25684 21.3545 2.98828 20.9395 2.76367 20.3584C2.59277 19.9189 2.3877 19.2549 2.33398 18.0391C2.27539 16.7207 2.26074 16.3252 2.26074 12.9902C2.26074 9.65039 2.27539 9.25488 2.33398 7.94141C2.3877 6.7207 2.59277 6.06152 2.76367 5.62207C2.98828 5.04102 3.26172 4.62109 3.69629 4.18652C4.13574 3.74707 4.55078 3.47852 5.13184 3.25391C5.57129 3.08301 6.23535 2.87793 7.45117 2.82422C8.76465 2.76562 9.16016 2.75098 12.5 2.75098ZM12.5 0.5C9.10645 0.5 8.68164 0.514648 7.34863 0.573242C6.02051 0.631836 5.10742 0.84668 4.31641 1.1543C3.49121 1.47656 2.79297 1.90137 2.09961 2.59961C1.40137 3.29297 0.976562 3.99121 0.654297 4.81152C0.34668 5.60742 0.131836 6.51562 0.0732422 7.84375C0.0146484 9.18164 0 9.60645 0 13C0 16.3936 0.0146484 16.8184 0.0732422 18.1514C0.131836 19.4795 0.34668 20.3926 0.654297 21.1836C0.976562 22.0088 1.40137 22.707 2.09961 23.4004C2.79297 24.0938 3.49121 24.5234 4.31152 24.8408C5.10742 25.1484 6.01562 25.3633 7.34375 25.4219C8.67676 25.4805 9.10156 25.4951 12.4951 25.4951C15.8887 25.4951 16.3135 25.4805 17.6465 25.4219C18.9746 25.3633 19.8877 25.1484 20.6787 24.8408C21.499 24.5234 22.1973 24.0938 22.8906 23.4004C23.584 22.707 24.0137 22.0088 24.3311 21.1885C24.6387 20.3926 24.8535 19.4844 24.9121 18.1563C24.9707 16.8232 24.9854 16.3984 24.9854 13.0049C24.9854 9.61133 24.9707 9.18652 24.9121 7.85352C24.8535 6.52539 24.6387 5.61231 24.3311 4.82129C24.0234 3.99121 23.5986 3.29297 22.9004 2.59961C22.207 1.90625 21.5088 1.47656 20.6885 1.15918C19.8926 0.851562 18.9844 0.636719 17.6562 0.578125C16.3184 0.514648 15.8936 0.5 12.5 0.5Z" fill="white"/>
<path d="M12.5 6.5791C8.95508 6.5791 6.0791 9.45508 6.0791 13C6.0791 16.5449 8.95508 19.4209 12.5 19.4209C16.0449 19.4209 18.9209 16.5449 18.9209 13C18.9209 9.45508 16.0449 6.5791 12.5 6.5791ZM12.5 17.165C10.2002 17.165 8.33496 15.2998 8.33496 13C8.33496 10.7002 10.2002 8.83496 12.5 8.83496C14.7998 8.83496 16.665 10.7002 16.665 13C16.665 15.2998 14.7998 17.165 12.5 17.165Z" fill="white"/>
<path d="M20.6738 6.32514C20.6738 7.15522 20 7.82416 19.1748 7.82416C18.3447 7.82416 17.6758 7.15033 17.6758 6.32514C17.6758 5.49506 18.3496 4.82611 19.1748 4.82611C20 4.82611 20.6738 5.49994 20.6738 6.32514Z" fill="white"/>
</g>
<defs>
<clipPath id="clip0_19_146">
<rect width="25" height="25" fill="white" transform="translate(0 0.5)"/>
</clipPath>
</defs>
</svg>
