<svg width="25" height="26" viewBox="0 0 25 26" fill="none" xmlns="http://www.w3.org/2000/svg">
<g clip-path="url(#clip0_19_134)">
<path d="M12.5 0.5C5.5957 0.5 0 6.0957 0 13C0 18.2979 3.2959 22.8193 7.94434 24.6406C7.83691 23.6494 7.73438 22.1357 7.98828 21.0566C8.21777 20.0801 9.45312 14.8457 9.45312 14.8457C9.45312 14.8457 9.07715 14.0986 9.07715 12.9902C9.07715 11.252 10.083 9.95312 11.3379 9.95312C12.4023 9.95312 12.9199 10.7539 12.9199 11.7158C12.9199 12.79 12.2363 14.3916 11.8848 15.876C11.5918 17.1211 12.5098 18.1367 13.7354 18.1367C15.957 18.1367 17.666 15.793 17.666 12.4141C17.666 9.4209 15.5176 7.32617 12.4463 7.32617C8.8916 7.32617 6.80176 9.99219 6.80176 12.751C6.80176 13.8252 7.2168 14.9775 7.73437 15.6025C7.83691 15.7246 7.85156 15.8369 7.82227 15.959C7.72949 16.3545 7.51465 17.2041 7.47559 17.375C7.42188 17.6045 7.29492 17.6533 7.05566 17.541C5.49316 16.8135 4.5166 14.5332 4.5166 12.6973C4.5166 8.75195 7.38281 5.13379 12.7734 5.13379C17.1094 5.13379 20.4785 8.22461 20.4785 12.3555C20.4785 16.6621 17.7637 20.1289 13.9941 20.1289C12.7295 20.1289 11.5381 19.4697 11.1279 18.6934C11.1279 18.6934 10.5029 21.0811 10.3516 21.667C10.0684 22.751 9.30664 24.1133 8.79883 24.9434C9.9707 25.3047 11.2109 25.5 12.5 25.5C19.4043 25.5 25 19.9043 25 13C25 6.0957 19.4043 0.5 12.5 0.5Z" fill="white"/>
</g>
<defs>
<clipPath id="clip0_19_134">
<rect width="25" height="25" fill="white" transform="translate(0 0.5)"/>
</clipPath>
</defs>
</svg>
