<svg width="25" height="26" viewBox="0 0 25 26" fill="none" xmlns="http://www.w3.org/2000/svg">
<g clip-path="url(#clip0_19_150)">
<path d="M7.86475 23.1563C17.2964 23.1563 22.4565 15.3403 22.4565 8.56447C22.4565 8.34474 22.4517 8.12013 22.4419 7.90041C23.4457 7.17447 24.312 6.2753 25 5.24513C24.0651 5.66107 23.0725 5.93272 22.0562 6.0508C23.1263 5.40931 23.9276 4.40156 24.3115 3.21437C23.3047 3.81103 22.2037 4.23192 21.0557 4.459C20.2821 3.63707 19.2594 3.09286 18.1455 2.9105C17.0316 2.72814 15.8887 2.91779 14.8935 3.45013C13.8982 3.98247 13.106 4.82785 12.6394 5.85556C12.1728 6.88328 12.0577 8.03609 12.312 9.13576C10.2734 9.03346 8.2791 8.50389 6.45831 7.58138C4.63753 6.65888 3.03093 5.36403 1.74268 3.78078C1.08792 4.90966 0.887559 6.24549 1.18232 7.51679C1.47709 8.78809 2.24486 9.89946 3.32959 10.625C2.51524 10.5992 1.71872 10.3799 1.00586 9.98537V10.0488C1.00513 11.2335 1.41469 12.3819 2.16491 13.2987C2.91513 14.2156 3.95971 14.8444 5.12109 15.0781C4.36672 15.2845 3.57498 15.3146 2.80713 15.166C3.13485 16.1849 3.77247 17.076 4.63101 17.715C5.48955 18.354 6.52617 18.709 7.59619 18.7305C5.77961 20.1574 3.5356 20.9314 1.22559 20.9278C0.815924 20.9271 0.406666 20.902 0 20.8526C2.34673 22.3581 5.07659 23.1577 7.86475 23.1563Z" fill="white"/>
</g>
<defs>
<clipPath id="clip0_19_150">
<rect width="25" height="25" fill="white" transform="translate(0 0.5)"/>
</clipPath>
</defs>
</svg>
