<svg width="19" height="13" viewBox="0 0 19 13" fill="none" xmlns="http://www.w3.org/2000/svg">
<path d="M17.8876 1.23918L9.60427 10.6398L1.39236 1.15815C1.16507 0.895287 0.794433 0.893947 0.56509 1.15413C0.335746 1.41431 0.334284 1.83856 0.56158 2.10075L9.1017 11.9615C9.20848 12.0847 9.34596 12.15 9.4855 12.1587C9.52616 12.1614 9.56682 12.1584 9.6069 12.1517C9.6227 12.1543 9.63791 12.1587 9.65371 12.159C9.81284 12.1687 9.9752 12.1048 10.0969 11.9662L18.711 2.18982C18.9407 1.92964 18.9421 1.50572 18.7145 1.24286C18.4869 0.980004 18.1166 0.978664 17.8876 1.23918Z" fill="black"/>
</svg>
