<svg width="284" height="67" viewBox="0 0 284 67" fill="none" xmlns="http://www.w3.org/2000/svg">
<line x1="156.5" y1="50" x2="156.5" stroke="white"/>
<line x1="115.474" y1="23.842" x2="121.33" y2="41.4255" stroke="white"/>
<line y1="-0.5" x2="18.533" y2="-0.5" transform="matrix(-0.315975 0.948768 0.948768 0.315975 193.856 24)" stroke="white"/>
<line x1="283.226" y1="7.29608" x2="213.226" y2="58.9628" stroke="white" stroke-width="0.745411"/>
<line y1="-0.375444" x2="87.0026" y2="-0.375444" transform="matrix(0.804574 0.593852 0.593852 -0.804574 31.4862 4)" stroke="white" stroke-width="0.750887"/>
<path d="M20.5 25L20.7186 32.9171C20.905 39.667 26.333 45.095 33.0829 45.2814L41 45.5L33.0829 45.7186C26.333 45.905 20.905 51.333 20.7186 58.0829L20.5 66L20.2814 58.0829C20.095 51.333 14.667 45.905 7.91711 45.7186L0 45.5L7.91711 45.2814C14.667 45.095 20.095 39.667 20.2814 32.9171L20.5 25Z" fill="white"/>
<path d="M267 52C267.15 56.0652 270.447 59.3643 274.514 59.4485L277 59.5L274.514 59.5515C270.447 59.6357 267.15 62.9348 267 67C266.85 62.9348 263.553 59.6357 259.486 59.5515L257 59.5L259.486 59.4485C263.553 59.3643 266.85 56.0652 267 52Z" fill="white"/>
</svg>
