<svg width="289" height="100" viewBox="0 0 289 100" fill="none" xmlns="http://www.w3.org/2000/svg">
<line y1="-0.5" x2="18.533" y2="-0.5" transform="matrix(0.315975 -0.948768 -0.948768 -0.315975 89 74.5835)" stroke="white"/>
<line x1="167.382" y1="74.7415" x2="161.526" y2="57.158" stroke="white"/>
<line x1="127.5" y1="100" x2="127.5" y2="50" stroke="white"/>
<line y1="-0.372705" x2="87.0026" y2="-0.372705" transform="matrix(-0.804574 -0.593852 -0.593852 0.804574 253.519 93)" stroke="white" stroke-width="0.745411"/>
<line x1="0.777042" y1="92.6979" x2="70.777" y2="41.0313" stroke="white" stroke-width="0.750887"/>
<path d="M268.5 37L268.719 44.9171C268.905 51.667 274.333 57.095 281.083 57.2814L289 57.5L281.083 57.7186C274.333 57.905 268.905 63.333 268.719 70.0829L268.5 78L268.281 70.0829C268.095 63.333 262.667 57.905 255.917 57.7186L248 57.5L255.917 57.2814C262.667 57.095 268.095 51.667 268.281 44.9171L268.5 37Z" fill="white"/>
<path d="M16 26C16.1497 30.0652 19.4469 33.3643 23.514 33.4485L26 33.5L23.514 33.5515C19.4469 33.6357 16.1497 36.9348 16 41C15.8503 36.9348 12.5531 33.6357 8.48604 33.5515L6 33.5L8.48604 33.4485C12.5531 33.3643 15.8503 30.0652 16 26Z" fill="white"/>
<line x1="254" y1="0.5" x2="274" y2="0.5" stroke="white"/>
</svg>
