<svg width="877" height="267" viewBox="0 0 877 267" fill="none" xmlns="http://www.w3.org/2000/svg">
<g clip-path="url(#clip0_19_125)">
<path d="M630.147 71.238C860.632 -96.0504 1197.77 80.8951 1337.53 190.279C1800.98 539.638 977.396 1099.77 652.184 761.092C326.973 422.409 293.471 1407.13 101.459 1189.76C-90.5536 972.379 -87.5431 398.87 44.2384 182.771C176.02 -33.328 342.039 280.348 630.147 71.238Z" stroke="white"/>
<path d="M640.652 95.4296C865.758 -68.1546 1194.99 104.821 1331.47 211.757C1784.05 553.298 979.684 1101.04 662.114 769.922C344.543 438.808 311.739 1401.61 124.24 1189.09C-63.2594 976.572 -60.2692 415.83 68.4469 204.531C197.163 -6.7681 359.269 299.91 640.652 95.4296Z" stroke="white"/>
<path d="M651.008 119.54C871.012 -40.1716 1192.82 128.752 1326.22 233.177C1768.59 566.701 982.449 1101.47 672.034 778.135C361.619 454.803 329.627 1394.91 146.352 1187.38C-36.9242 979.859 -34.043 432.336 91.7474 226.027C217.538 19.7179 376.002 319.179 651.008 119.54Z" stroke="white"/>
<path d="M660.932 143.687C875.701 -12.3094 1189.83 152.662 1320.05 254.648C1751.87 580.377 984.439 1102.71 681.432 786.925C378.425 471.144 347.159 1389.33 168.257 1186.65C-10.6445 983.973 -7.81075 449.216 114.991 247.713C237.793 46.2094 392.47 338.682 660.932 143.687Z" stroke="white"/>
<path d="M671.288 167.797C880.956 15.6738 1187.66 176.593 1314.8 276.068C1736.41 593.781 987.204 1103.14 691.352 795.138C395.5 487.138 365.047 1382.63 190.369 1184.94C15.6906 987.261 18.4154 465.722 138.291 269.209C258.167 72.6956 409.202 357.951 671.288 167.797Z" stroke="white"/>
<path d="M681.212 191.944C885.645 43.5357 1184.67 200.503 1308.63 297.538C1719.69 607.457 989.194 1104.38 700.75 803.927C412.306 503.478 382.578 1377.05 212.274 1184.21C41.9704 991.375 44.6478 482.602 161.535 290.894C278.422 99.1867 425.671 377.454 681.212 191.944Z" stroke="white"/>
<path d="M691.568 216.054C890.9 71.5189 1182.5 224.434 1303.38 318.959C1704.23 620.86 991.959 1104.81 710.67 812.141C429.381 519.473 400.467 1370.35 234.386 1182.5C68.3055 994.663 70.8739 499.108 184.836 312.39C298.797 125.673 442.403 396.723 691.568 216.054Z" stroke="white"/>
<path d="M701.492 240.201C895.589 99.3809 1179.51 248.345 1297.21 340.429C1687.51 634.537 993.95 1106.05 720.068 820.93C446.187 535.814 417.998 1364.77 256.291 1181.77C94.5852 998.776 97.1062 515.988 208.079 334.076C319.052 152.164 458.871 416.226 701.492 240.201Z" stroke="white"/>
<path d="M712.495 263.487C901.368 126.236 1177.61 271.368 1292.12 361.09C1671.85 647.651 996.958 1107.22 730.503 829.403C464.049 551.59 436.525 1359.4 279.206 1181.1C121.886 1002.79 124.394 532.31 232.392 355.025C340.39 177.74 476.404 435.051 712.495 263.487Z" stroke="white"/>
<path d="M722.425 287.565C906.052 154.175 1174.63 295.236 1285.97 382.44C1655.16 660.96 999.014 1107.59 739.948 837.58C480.882 567.566 454.144 1352.68 301.186 1179.38C148.229 1006.07 150.655 548.819 255.65 376.518C360.646 204.217 492.891 454.301 722.425 287.565Z" stroke="white"/>
<path d="M732.775 311.744C911.312 182.081 1172.45 319.209 1280.7 403.98C1639.67 674.731 1001.71 1108.89 749.822 846.406C497.93 583.925 471.945 1347.12 323.223 1178.66C174.501 1010.19 176.852 565.696 278.936 398.207C381.019 230.718 509.605 473.823 732.775 311.744Z" stroke="white"/>
</g>
<defs>
<clipPath id="clip0_19_125">
<rect width="877" height="267" fill="white"/>
</clipPath>
</defs>
</svg>
