<svg width="93" height="94" viewBox="0 0 93 94" fill="none" xmlns="http://www.w3.org/2000/svg">
<g filter="url(#filter0_dddd_14_36)">
<path d="M43.9261 55.5767C40.7556 64.2588 35.3221 78.3194 34.9967 78.2006C34.6712 78.0817 39.5771 63.8285 42.7475 55.1463C45.918 46.4642 46.1524 46.641 46.4779 46.7598C46.8034 46.8787 47.0966 46.8946 43.9261 55.5767Z" fill="url(#paint0_linear_14_36)"/>
<path d="M50.2083 38.3733C53.3787 29.6912 58.2846 15.4379 57.9591 15.3191C57.6337 15.2002 52.2002 29.2608 49.0297 37.9429C45.8592 46.625 46.1524 46.641 46.4779 46.7598C46.8034 46.8787 47.0378 47.0554 50.2083 38.3733Z" fill="url(#paint1_linear_14_36)"/>
<path d="M55.0035 49.2008C63.6281 52.3502 77.5942 57.7513 77.4745 58.0789C77.3549 58.4065 63.1948 53.5367 54.5702 50.3872C45.9456 47.2378 46.1225 47.0014 46.2421 46.6737C46.3618 46.3461 46.3789 46.0513 55.0035 49.2008Z" fill="url(#paint2_linear_14_36)"/>
<path d="M38.3856 43.1324C29.761 39.9829 15.6009 35.1131 15.4813 35.4407C15.3616 35.7684 29.3277 41.1694 37.9523 44.3188C46.5769 47.4683 46.594 47.1735 46.7136 46.8459C46.8333 46.5183 47.0101 46.2818 38.3856 43.1324Z" fill="url(#paint3_linear_14_36)"/>
<path d="M43.1463 38.029C39.2896 29.6628 32.7459 16.1408 32.4312 16.2884C32.1164 16.436 38.1499 30.1974 42.0065 38.5636C45.8632 46.9298 46.0826 46.7326 46.3973 46.585C46.7121 46.4374 47.0029 46.3952 43.1463 38.029Z" fill="url(#paint4_linear_14_36)"/>
<path d="M55.2323 43.3933C63.5726 39.4811 77.0543 32.846 76.9087 32.5303C76.7632 32.2146 63.0456 38.3378 54.7052 42.25C46.3649 46.1622 46.5601 46.3819 46.7057 46.6976C46.8512 47.0133 46.8919 47.3055 55.2323 43.3933Z" fill="url(#paint5_linear_14_36)"/>
<path d="M50.8462 54.3071C54.7028 62.6733 60.7363 76.4347 60.4215 76.5824C60.1068 76.73 53.5631 63.2079 49.7064 54.8418C45.8498 46.4756 46.1406 46.4334 46.4554 46.2857C46.7701 46.1381 46.9895 45.941 50.8462 54.3071Z" fill="url(#paint6_linear_14_36)"/>
<path d="M38.3275 49.7357C29.9871 53.6479 16.5055 60.2829 16.651 60.5987C16.7966 60.9144 30.5142 54.7911 38.8545 50.8789C47.1949 46.9668 46.9996 46.7471 46.8541 46.4314C46.7086 46.1156 46.6678 45.8235 38.3275 49.7357Z" fill="url(#paint7_linear_14_36)"/>
</g>
<defs>
<filter id="filter0_dddd_14_36" x="0.48053" y="0.318331" width="91.9948" height="92.883" filterUnits="userSpaceOnUse" color-interpolation-filters="sRGB">
<feFlood flood-opacity="0" result="BackgroundImageFix"/>
<feColorMatrix in="SourceAlpha" type="matrix" values="0 0 0 0 0 0 0 0 0 0 0 0 0 0 0 0 0 0 127 0" result="hardAlpha"/>
<feOffset dy="5"/>
<feGaussianBlur stdDeviation="5"/>
<feComposite in2="hardAlpha" operator="out"/>
<feColorMatrix type="matrix" values="0 0 0 0 1 0 0 0 0 1 0 0 0 0 1 0 0 0 0.25 0"/>
<feBlend mode="normal" in2="BackgroundImageFix" result="effect1_dropShadow_14_36"/>
<feColorMatrix in="SourceAlpha" type="matrix" values="0 0 0 0 0 0 0 0 0 0 0 0 0 0 0 0 0 0 127 0" result="hardAlpha"/>
<feOffset dy="-5"/>
<feGaussianBlur stdDeviation="5"/>
<feComposite in2="hardAlpha" operator="out"/>
<feColorMatrix type="matrix" values="0 0 0 0 1 0 0 0 0 1 0 0 0 0 1 0 0 0 0.25 0"/>
<feBlend mode="normal" in2="effect1_dropShadow_14_36" result="effect2_dropShadow_14_36"/>
<feColorMatrix in="SourceAlpha" type="matrix" values="0 0 0 0 0 0 0 0 0 0 0 0 0 0 0 0 0 0 127 0" result="hardAlpha"/>
<feOffset dx="5"/>
<feGaussianBlur stdDeviation="5"/>
<feComposite in2="hardAlpha" operator="out"/>
<feColorMatrix type="matrix" values="0 0 0 0 1 0 0 0 0 1 0 0 0 0 1 0 0 0 0.25 0"/>
<feBlend mode="normal" in2="effect2_dropShadow_14_36" result="effect3_dropShadow_14_36"/>
<feColorMatrix in="SourceAlpha" type="matrix" values="0 0 0 0 0 0 0 0 0 0 0 0 0 0 0 0 0 0 127 0" result="hardAlpha"/>
<feOffset dx="-5"/>
<feGaussianBlur stdDeviation="5"/>
<feComposite in2="hardAlpha" operator="out"/>
<feColorMatrix type="matrix" values="0 0 0 0 1 0 0 0 0 1 0 0 0 0 1 0 0 0 0.25 0"/>
<feBlend mode="normal" in2="effect3_dropShadow_14_36" result="effect4_dropShadow_14_36"/>
<feBlend mode="normal" in="SourceGraphic" in2="effect4_dropShadow_14_36" result="shape"/>
</filter>
<linearGradient id="paint0_linear_14_36" x1="46.4779" y1="46.7598" x2="34.9967" y2="78.2006" gradientUnits="userSpaceOnUse">
<stop stop-color="white"/>
<stop offset="0.515819" stop-color="white" stop-opacity="0"/>
<stop offset="1" stop-color="white"/>
</linearGradient>
<linearGradient id="paint1_linear_14_36" x1="46.4779" y1="46.7598" x2="57.9591" y2="15.3191" gradientUnits="userSpaceOnUse">
<stop stop-color="white"/>
<stop offset="0.515819" stop-color="white" stop-opacity="0"/>
<stop offset="1" stop-color="white"/>
</linearGradient>
<linearGradient id="paint2_linear_14_36" x1="46.2421" y1="46.6737" x2="77.4745" y2="58.0789" gradientUnits="userSpaceOnUse">
<stop stop-color="white"/>
<stop offset="0.515819" stop-color="white" stop-opacity="0"/>
<stop offset="1" stop-color="white"/>
</linearGradient>
<linearGradient id="paint3_linear_14_36" x1="46.7136" y1="46.8459" x2="15.4813" y2="35.4407" gradientUnits="userSpaceOnUse">
<stop stop-color="white"/>
<stop offset="0.515819" stop-color="white" stop-opacity="0"/>
<stop offset="1" stop-color="white"/>
</linearGradient>
<linearGradient id="paint4_linear_14_36" x1="46.3973" y1="46.585" x2="32.2303" y2="16.3826" gradientUnits="userSpaceOnUse">
<stop stop-color="white"/>
<stop offset="0.515819" stop-color="white" stop-opacity="0"/>
<stop offset="1" stop-color="white"/>
</linearGradient>
<linearGradient id="paint5_linear_14_36" x1="46.7057" y1="46.6976" x2="77.0016" y2="32.7318" gradientUnits="userSpaceOnUse">
<stop stop-color="white"/>
<stop offset="0.515819" stop-color="white" stop-opacity="0"/>
<stop offset="1" stop-color="white"/>
</linearGradient>
<linearGradient id="paint6_linear_14_36" x1="46.4554" y1="46.2857" x2="60.6224" y2="76.4882" gradientUnits="userSpaceOnUse">
<stop stop-color="white"/>
<stop offset="0.515819" stop-color="white" stop-opacity="0"/>
<stop offset="1" stop-color="white"/>
</linearGradient>
<linearGradient id="paint7_linear_14_36" x1="46.8541" y1="46.4314" x2="16.5582" y2="60.3972" gradientUnits="userSpaceOnUse">
<stop stop-color="white"/>
<stop offset="0.515819" stop-color="white" stop-opacity="0"/>
<stop offset="1" stop-color="white"/>
</linearGradient>
</defs>
</svg>
