<svg width="255" height="910" viewBox="0 0 255 910" fill="none" xmlns="http://www.w3.org/2000/svg">
<g clip-path="url(#clip0_50_470)">
<path fill-rule="evenodd" clip-rule="evenodd" d="M-151.563 1299.22C-214.841 1389.12 -280.266 1513.13 -390.215 1516.43C-504.088 1519.86 -561.886 1373.54 -660.088 1314.51C-736.732 1268.45 -849.51 1283.17 -900.716 1209.6C-951.895 1136.06 -888.487 1032.56 -915.706 947.242C-957.245 817.039 -1159.49 710.672 -1098.59 589.376C-1039.1 470.92 -835.352 590.979 -712.43 542.424C-610.017 501.969 -570.202 316.567 -461.668 337.787C-348.369 359.938 -362.841 545.429 -280.216 626.926C-212.549 693.669 -80.9114 675.788 -34.7017 758.923C11.4405 841.938 -32.5223 944.214 -52.5048 1036.6C-72.7236 1130.08 -96.7318 1221.31 -151.563 1299.22Z" stroke="white" stroke-width="3"/>
<path opacity="0.95875" fill-rule="evenodd" clip-rule="evenodd" d="M-161.881 1286.54C-228.261 1374.15 -297.973 1495.74 -408.005 1495.19C-521.964 1494.62 -574.665 1346.4 -670.789 1283.99C-745.811 1235.28 -859.068 1246.03 -907.705 1170.72C-956.316 1095.46 -889.333 994.282 -913.582 908.089C-950.589 776.549 -1149.09 663.185 -1083.99 544.139C-1020.41 427.879 -820.883 554.976 -696.311 510.778C-592.523 473.954 -546.283 290.121 -438.517 315.129C-326.02 341.234 -346.927 526.046 -267.156 610.366C-201.826 679.421 -69.6055 666.175 -26.2955 750.855C16.9513 835.411 -30.5497 936.05 -53.7338 1027.65C-77.1922 1120.33 -104.361 1210.63 -161.881 1286.54Z" stroke="white" stroke-width="3"/>
<path opacity="0.9175" fill-rule="evenodd" clip-rule="evenodd" d="M-171.757 1273.53C-241.16 1358.72 -315.072 1477.75 -425.054 1473.34C-538.96 1468.77 -586.499 1318.85 -680.429 1253.12C-753.738 1201.82 -867.335 1208.58 -913.344 1131.65C-959.328 1054.75 -888.851 956.011 -910.101 869.048C-942.53 736.331 -1137.03 616.108 -1067.82 499.456C-1000.22 385.535 -805.169 519.514 -679.099 479.728C-574.063 446.58 -521.454 264.54 -414.588 293.305C-303.03 323.334 -330.347 507.241 -253.526 594.281C-190.612 665.564 -57.9707 656.969 -17.6132 743.09C22.6854 829.085 -28.2957 927.964 -54.6532 1018.67C-81.3226 1110.44 -111.618 1199.7 -171.757 1273.53Z" stroke="white" stroke-width="3"/>
<path opacity="0.87625" fill-rule="evenodd" clip-rule="evenodd" d="M-181.178 1260.17C-253.519 1342.85 -331.543 1459.18 -441.339 1450.92C-555.053 1442.35 -597.374 1290.9 -688.994 1221.94C-760.501 1168.11 -874.3 1170.89 -917.624 1092.41C-960.925 1013.97 -887.041 917.793 -905.265 830.164C-933.077 696.433 -1123.35 569.498 -1050.11 455.383C-978.576 343.939 -788.229 484.637 -660.814 449.311C-554.658 419.879 -495.744 239.854 -389.907 272.342C-279.424 306.256 -313.118 489.034 -239.342 578.688C-178.921 652.113 -46.0196 648.18 -8.66377 735.636C28.6375 822.965 -25.7617 919.964 -55.2605 1009.66C-85.1083 1100.41 -118.494 1188.53 -181.178 1260.17Z" stroke="white" stroke-width="3"/>
<path opacity="0.835" fill-rule="evenodd" clip-rule="evenodd" d="M-190.134 1246.5C-265.324 1326.57 -347.363 1440.05 -456.841 1427.94C-570.225 1415.4 -607.275 1262.6 -696.475 1190.48C-766.092 1134.2 -879.954 1132.98 -920.541 1053.05C-961.106 973.165 -883.905 879.674 -899.081 791.487C-922.243 656.904 -1108.05 523.411 -1030.87 411.971C-955.49 303.141 -770.083 450.387 -641.479 419.564C-534.331 393.883 -469.184 216.092 -364.507 252.263C-255.233 290.023 -295.263 471.448 -224.621 563.608C-166.767 639.084 -33.7669 639.818 0.541774 728.504C34.8004 817.061 -22.9506 912.061 -55.5548 1000.63C-88.5447 1090.26 -124.98 1177.12 -190.134 1246.5Z" stroke="white" stroke-width="3"/>
<path opacity="0.79375" fill-rule="evenodd" clip-rule="evenodd" d="M-198.611 1232.53C-276.559 1309.88 -362.515 1420.38 -471.54 1404.44C-584.456 1387.93 -616.191 1233.97 -702.861 1158.8C-770.504 1100.12 -884.291 1094.91 -922.091 1013.63C-959.871 932.396 -879.446 841.7 -891.556 753.063C-910.038 617.792 -1091.16 477.903 -1010.13 369.275C-930.994 263.19 -750.754 416.805 -621.116 390.522C-513.108 368.625 -441.808 193.285 -338.416 233.095C-230.485 274.653 -276.802 454.506 -209.38 549.059C-154.163 626.495 -21.2275 631.893 9.99228 721.701C41.1664 811.378 -19.866 904.264 -55.5358 991.611C-91.6276 1079.99 -131.068 1165.5 -198.611 1232.53Z" stroke="white" stroke-width="3"/>
<path opacity="0.7525" fill-rule="evenodd" clip-rule="evenodd" d="M-206.601 1218.27C-287.212 1292.82 -376.98 1400.2 -485.419 1380.45C-597.729 1359.99 -624.11 1205.06 -708.144 1126.91C-773.731 1065.92 -887.304 1056.72 -922.271 974.193C-957.22 891.709 -873.669 803.918 -882.699 714.938C-896.48 579.145 -1072.69 433.031 -987.913 327.347C-905.118 224.137 -730.263 383.932 -599.751 362.223C-491.014 344.135 -413.647 171.459 -311.667 214.86C-205.21 260.166 -257.758 438.227 -193.638 535.058C-141.126 614.359 -8.41615 624.417 19.6766 715.237C47.7283 805.924 -16.5112 896.582 -55.2032 982.597C-94.3529 1069.63 -136.751 1153.67 -206.601 1218.27Z" stroke="white" stroke-width="3"/>
<path opacity="0.71125" fill-rule="evenodd" clip-rule="evenodd" d="M-214.095 1203.74C-297.27 1275.39 -390.74 1379.53 -498.462 1355.99C-610.029 1331.61 -631.023 1175.9 -712.32 1094.88C-775.77 1031.64 -888.991 1018.46 -921.083 934.785C-953.158 851.151 -866.584 766.373 -872.522 677.159C-881.584 541.008 -1052.67 388.848 -964.249 286.236C-877.895 186.027 -708.638 351.809 -577.41 334.698C-468.076 320.443 -384.737 150.641 -284.294 197.579C-179.441 246.579 -238.155 422.631 -177.415 521.621C-127.672 602.691 4.6503 617.396 29.5818 709.117C54.4769 800.704 -12.8914 889.025 -54.5585 973.602C-96.7183 1059.18 -142.022 1141.66 -214.095 1203.74Z" stroke="white" stroke-width="3"/>
<path opacity="0.67" fill-rule="evenodd" clip-rule="evenodd" d="M-221.081 1188.97C-306.72 1257.63 -403.778 1358.39 -510.652 1331.1C-621.34 1302.83 -636.922 1146.53 -715.383 1062.72C-776.619 997.32 -889.349 980.183 -918.527 895.456C-947.689 810.774 -858.196 729.112 -861.035 639.772C-865.367 503.43 -1031.12 345.408 -939.164 245.994C-849.355 148.907 -685.903 320.474 -554.12 307.984C-444.323 297.577 -355.112 130.857 -256.328 181.276C-153.207 233.909 -218.016 407.737 -160.731 508.767C-113.816 591.507 17.957 610.84 39.697 703.351C61.4051 795.727 -9.00997 881.602 -53.6012 964.639C-98.72 1048.66 -146.874 1129.47 -221.081 1188.97Z" stroke="white" stroke-width="3"/>
<path opacity="0.62875" fill-rule="evenodd" clip-rule="evenodd" d="M-227.553 1173.96C-315.551 1239.56 -416.078 1336.82 -521.974 1305.8C-631.648 1273.67 -641.799 1116.97 -717.328 1030.49C-776.275 963.001 -888.378 941.925 -914.606 856.252C-940.819 770.626 -848.518 692.18 -848.254 602.824C-847.852 466.456 -1008.07 302.765 -912.689 206.67C-819.536 112.824 -662.088 289.966 -529.909 282.111C-419.782 275.566 -324.809 112.131 -227.804 165.969C-126.54 222.17 -197.366 393.564 -143.605 496.51C-99.5759 580.819 31.4875 604.758 50.0093 697.945C68.5041 790.997 -4.87194 874.322 -52.3332 955.717C-100.356 1038.08 -151.301 1117.12 -227.553 1173.96Z" stroke="white" stroke-width="3"/>
<path opacity="0.5875" fill-rule="evenodd" clip-rule="evenodd" d="M-233.501 1158.74C-323.751 1221.19 -427.626 1314.83 -532.414 1280.13C-640.941 1244.18 -645.649 1087.27 -718.153 998.224C-774.74 928.726 -886.079 903.736 -909.324 817.223C-932.558 730.756 -837.559 655.622 -834.194 566.357C-829.057 430.13 -983.551 260.97 -884.856 168.31C-788.472 77.8201 -637.22 260.322 -504.806 257.111C-394.485 254.437 -293.865 94.4851 -198.757 151.676C-99.4739 211.379 -176.229 380.129 -126.058 484.865C-84.969 570.641 45.2253 599.156 60.5064 692.907C75.7653 786.521 -0.482324 867.194 -50.7557 946.849C-101.624 1027.45 -155.299 1104.63 -233.501 1158.74Z" stroke="white" stroke-width="3"/>
<path opacity="0.54625" fill-rule="evenodd" clip-rule="evenodd" d="M-238.92 1143.33C-331.312 1202.55 -438.408 1292.47 -541.96 1254.11C-649.208 1214.4 -648.467 1057.46 -717.858 965.955C-772.016 894.536 -882.455 865.664 -902.69 778.415C-922.915 691.214 -825.335 619.482 -818.872 530.418C-809.007 394.498 -957.583 220.074 -855.7 130.963C-756.202 43.9386 -611.33 231.577 -478.843 233.016C-368.461 234.214 -262.318 77.9414 -169.223 138.417C-72.0409 201.547 -154.633 367.447 -108.112 473.846C-70.013 560.984 59.1535 594.041 71.1754 688.241C83.1798 782.303 4.15345 860.226 -48.8708 938.043C-102.522 1016.78 -158.861 1092.01 -238.92 1143.33Z" stroke="white" stroke-width="3"/>
<path opacity="0.505" fill-rule="evenodd" clip-rule="evenodd" d="M-243.802 1127.74C-338.223 1183.67 -448.409 1269.74 -550.6 1227.79C-656.438 1184.34 -650.249 1027.58 -716.443 933.727C-768.106 860.474 -877.51 827.754 -894.71 739.876C-911.901 652.046 -811.86 583.804 -802.306 495.05C-787.725 359.602 -930.202 180.127 -825.256 94.6739C-722.765 11.2207 -584.449 203.768 -452.051 209.854C-341.743 214.924 -230.205 62.52 -139.237 126.205C-44.2746 192.687 -132.602 355.535 -89.7889 463.468C-54.7261 551.861 73.2552 589.419 82.0032 683.953C90.7385 778.35 9.02981 853.428 -46.6806 929.313C-103.05 1006.1 -161.985 1079.28 -243.802 1127.74Z" stroke="white" stroke-width="3"/>
<path opacity="0.46375" fill-rule="evenodd" clip-rule="evenodd" d="M-248.141 1112C-344.476 1164.56 -457.619 1246.68 -558.324 1201.19C-662.623 1154.07 -650.993 997.671 -713.909 901.578C-763.014 826.581 -871.25 790.052 -885.395 701.653C-899.531 613.301 -797.15 548.633 -784.517 460.296C-765.239 325.485 -901.443 141.178 -793.56 59.4863C-688.202 -20.2935 -556.611 176.928 -424.463 187.653C-314.362 196.589 -197.565 48.2396 -108.835 115.057C-16.2085 184.809 -110.164 344.407 -71.1106 453.742C-39.1269 543.284 87.5134 585.296 92.9768 680.05C98.4323 774.665 14.1407 846.807 -44.1881 920.667C-103.207 995.4 -164.665 1066.45 -248.141 1112Z" stroke="white" stroke-width="3"/>
<path opacity="0.4225" fill-rule="evenodd" clip-rule="evenodd" d="M-251.933 1096.11C-350.064 1145.25 -466.026 1223.32 -565.122 1174.34C-667.754 1123.6 -650.698 967.759 -710.26 869.548C-756.747 792.898 -863.683 752.606 -874.755 663.792C-885.82 575.026 -781.223 514.01 -765.527 426.199C-741.574 292.189 -871.34 103.275 -760.652 25.4434C-652.555 -50.5659 -527.85 151.09 -396.112 166.441C-286.354 179.231 -164.44 35.1176 -78.0551 104.986C12.1228 177.923 -87.3466 334.077 -52.1002 444.68C-23.2344 535.261 101.911 581.678 104.083 676.535C106.252 771.254 19.4801 840.371 -41.3961 912.116C-102.992 984.71 -166.9 1053.54 -251.933 1096.11Z" stroke="white" stroke-width="3"/>
<path opacity="0.38125" fill-rule="evenodd" clip-rule="evenodd" d="M-255.171 1080.11C-354.981 1125.75 -473.619 1199.69 -570.985 1147.28C-671.827 1092.99 -649.365 937.886 -705.5 837.676C-749.312 759.466 -854.819 715.459 -862.803 626.34C-870.784 537.268 -764.099 479.978 -745.359 392.799C-716.76 259.754 -839.93 66.462 -726.572 -7.41346C-615.867 -79.5596 -498.199 126.284 -367.033 146.243C-257.75 162.872 -130.869 23.1699 -46.9345 96.0047C40.685 172.037 -64.1768 324.556 -32.7806 436.294C-7.06798 527.803 116.429 578.568 115.307 673.413C114.187 768.12 25.0413 834.129 -38.308 903.672C-102.407 974.037 -168.685 1040.56 -255.171 1080.11Z" stroke="white" stroke-width="3"/>
<path opacity="0.34" fill-rule="evenodd" clip-rule="evenodd" d="M-257.854 1064.01C-359.219 1106.11 -480.389 1175.82 -575.908 1120.03C-674.835 1062.26 -646.995 908.086 -699.635 806C-740.719 726.326 -844.667 678.658 -849.555 589.341C-854.441 500.072 -745.798 446.578 -724.037 360.138C-690.827 228.22 -807.251 30.7857 -691.361 -39.044C-578.184 -107.239 -467.696 102.542 -337.26 127.084C-228.587 147.532 -96.8924 12.4112 -15.5111 88.1232C69.4432 167.159 -40.6833 315.858 -13.1754 428.593C9.35267 520.92 131.051 575.97 126.637 670.688C122.229 765.268 30.8176 828.088 -34.9277 895.343C-101.451 963.394 -170.019 1027.53 -257.854 1064.01Z" stroke="white" stroke-width="3"/>
<path opacity="0.29875" fill-rule="evenodd" clip-rule="evenodd" d="M-259.976 1047.83C-362.773 1086.33 -486.329 1151.73 -579.883 1092.64C-676.776 1031.45 -643.591 878.398 -692.672 774.56C-730.977 693.518 -833.241 642.248 -835.027 552.842C-836.812 463.484 -726.343 413.852 -701.587 328.255C-663.807 197.625 -773.342 -3.71103 -655.062 -69.41C-539.55 -133.571 -436.377 79.8917 -306.832 108.988C-198.9 133.23 -62.5524 2.85431 16.1766 81.3514C98.3624 163.295 -16.8947 307.992 6.69127 421.587C26.0075 514.619 145.76 573.888 138.058 668.363C130.368 762.701 36.802 822.255 -31.2592 887.141C-100.125 952.795 -170.901 1014.46 -259.976 1047.83Z" stroke="white" stroke-width="3"/>
<path opacity="0.2575" fill-rule="evenodd" clip-rule="evenodd" d="M-261.536 1031.59C-365.64 1066.45 -491.43 1127.45 -582.906 1065.14C-677.646 1000.6 -639.158 848.857 -684.619 743.393C-720.1 661.082 -820.553 606.272 -819.235 516.886C-817.917 427.549 -705.758 381.838 -678.037 297.189C-635.733 168.006 -738.246 -36.986 -617.719 -98.4741C-500.013 -158.523 -404.282 58.3616 -275.784 91.9759C-168.725 119.982 -27.8906 -5.48865 48.0904 75.6978C127.407 160.449 7.16017 300.967 26.7955 415.285C42.8762 508.908 160.536 572.324 149.557 666.441C138.594 760.421 42.9871 816.637 -27.307 879.075C-98.4327 942.252 -171.328 1001.38 -261.536 1031.59Z" stroke="white" stroke-width="3"/>
<path opacity="0.21625" fill-rule="evenodd" clip-rule="evenodd" d="M-262.532 1015.31C-367.816 1046.49 -495.688 1103.01 -584.973 1037.55C-677.446 969.751 -633.7 819.499 -675.486 712.538C-708.099 629.058 -806.621 570.774 -802.2 481.518C-797.781 392.31 -684.067 350.577 -653.415 266.979C-606.638 139.4 -702.005 -68.9986 -579.378 -126.201C-459.622 -182.064 -371.448 37.9776 -244.154 76.0691C-138.099 107.805 7.05083 -12.6077 80.1911 71.1692C156.543 158.624 31.4519 294.794 47.1127 409.694C59.9383 503.794 175.362 571.279 161.119 664.924C146.896 758.432 49.3655 811.242 -23.0759 871.156C-96.3743 931.778 -171.302 988.295 -262.532 1015.31Z" stroke="white" stroke-width="3"/>
<path opacity="0.175" fill-rule="evenodd" clip-rule="evenodd" d="M-262.963 999.012C-369.299 1026.47 -499.095 1078.45 -586.082 1009.92C-676.174 938.937 -627.224 790.359 -665.285 682.031C-694.991 597.485 -791.46 535.798 -783.941 446.78C-776.426 357.81 -661.297 320.105 -627.752 237.66C-576.559 111.841 -664.663 -99.7102 -540.086 -152.557C-418.425 -204.167 -337.916 18.7643 -211.982 61.2865C-107.059 96.7141 42.2293 -18.4945 112.44 67.7707C185.733 157.824 55.9509 289.478 67.618 404.821C77.173 499.284 190.221 570.756 172.73 663.814C155.265 756.736 55.9293 806.075 -18.5712 863.392C-93.9529 921.386 -170.821 975.222 -262.963 999.012Z" stroke="white" stroke-width="3"/>
<path opacity="0.13375" fill-rule="evenodd" clip-rule="evenodd" d="M-262.827 982.713C-370.086 1006.41 -501.649 1053.8 -586.232 982.273C-673.833 908.197 -619.739 761.474 -654.028 651.911C-680.79 566.401 -775.089 501.387 -764.482 412.715C-753.881 324.091 -637.475 290.461 -601.078 209.27C-545.532 85.3627 -626.266 -129.083 -499.89 -177.51C-376.472 -224.804 -303.726 0.745451 -179.305 47.6465C-75.6424 86.7225 77.602 -23.1414 144.797 65.5071C214.943 158.048 80.6275 285.026 88.2867 400.672C94.5594 495.382 205.093 570.754 184.377 663.113C163.691 755.336 62.6707 801.144 -13.7981 855.793C-91.1714 911.089 -169.886 962.178 -262.827 982.713Z" stroke="white" stroke-width="3"/>
<path opacity="0.0925" fill-rule="evenodd" clip-rule="evenodd" d="M-262.126 966.434C-370.176 986.348 -503.346 1029.07 -585.421 954.647C-670.425 877.567 -611.253 732.878 -641.728 622.214C-665.513 535.844 -757.529 467.582 -743.846 379.365C-730.171 291.195 -612.632 261.68 -573.426 181.841C-513.594 59.9978 -586.86 -157.081 -458.839 -201.03C-333.815 -243.949 -268.921 -16.0572 -146.164 35.1657C-43.8885 77.8425 113.126 -26.5429 177.224 64.3809C244.136 159.297 105.451 281.445 109.093 397.252C112.076 492.095 219.961 571.275 196.044 662.82C172.162 754.232 69.5813 796.453 -8.76264 848.369C-88.0333 900.899 -168.499 949.179 -262.126 966.434Z" stroke="white" stroke-width="3"/>
<path opacity="0.05125" fill-rule="evenodd" clip-rule="evenodd" d="M-260.86 950.195C-369.57 966.299 -504.185 1004.31 -583.652 927.076C-665.955 847.085 -601.777 704.606 -628.401 592.976C-649.181 505.852 -738.799 434.425 -722.058 346.769C-705.326 259.161 -586.796 233.797 -544.83 155.408C-480.785 35.7769 -546.493 -183.671 -416.984 -223.087C-290.506 -261.58 -233.543 -31.6231 -112.6 23.8592C-11.8355 70.0846 148.757 -28.695 209.68 64.3932C273.277 161.569 130.392 278.738 130.013 394.565C129.702 489.424 234.806 572.316 207.718 662.938C180.67 753.427 76.6526 792.01 -3.47093 841.129C-84.5423 890.829 -166.661 936.24 -260.86 950.195Z" stroke="white" stroke-width="3"/>
<path opacity="0.01" fill-rule="evenodd" clip-rule="evenodd" d="M-259.031 934.016C-368.269 946.291 -504.165 979.545 -580.927 899.594C-660.429 816.789 -591.323 676.694 -614.065 564.233C-631.813 476.461 -718.926 401.956 -699.146 314.969C-679.377 228.029 -560.001 206.848 -515.326 130.003C-447.147 12.7307 -505.216 -208.819 -374.376 -243.655C-246.599 -277.675 -197.636 -45.9323 -78.6543 13.7418C20.476 63.4596 184.451 -29.5939 242.125 65.5454C302.33 164.862 155.419 276.909 151.018 392.616C147.414 487.376 249.61 573.878 219.383 663.465C189.201 752.922 83.8748 787.819 2.06914 834.082C-80.7042 880.891 -164.375 923.379 -259.031 934.016Z" stroke="white" stroke-width="3"/>
</g>
<defs>
<clipPath id="clip0_50_470">
<rect width="269" height="910" fill="white" transform="translate(-14)"/>
</clipPath>
</defs>
</svg>
