<svg width="510" height="616" viewBox="0 0 510 616" fill="none" xmlns="http://www.w3.org/2000/svg">
<g clip-path="url(#clip0_165_34)">
<path fill-rule="evenodd" clip-rule="evenodd" d="M572.807 1128.77C578.531 1230.58 602.762 1358.9 522.505 1422.2C439.384 1487.76 309.856 1411.05 201.612 1421.55C117.132 1429.75 41.4928 1503.09 -40.1942 1476.78C-121.837 1450.47 -135.483 1338.5 -206.162 1290.18C-314.027 1216.45 -527.991 1249.36 -554.003 1125.55C-579.406 1004.64 -356.24 981.069 -292.974 876.976C-240.265 790.25 -319.862 630.492 -226.196 586.193C-128.416 539.949 -29.816 685.749 80.0357 700.564C170.001 712.697 257.877 626.567 341.469 662.752C424.939 698.884 452.4 799.188 491.958 878.875C531.983 959.504 567.847 1040.56 572.807 1128.77Z" stroke="white" stroke-width="3"/>
<path opacity="0.95875" fill-rule="evenodd" clip-rule="evenodd" d="M557.619 1125.07C559.664 1226.88 579.268 1355.79 496.672 1416.27C411.128 1478.9 284.294 1397.97 175.604 1404.8C90.7752 1410.13 12.4364 1480.79 -68.3493 1451.77C-149.091 1422.76 -158.695 1310.53 -227.67 1259.92C-332.934 1182.69 -548.222 1208.32 -569.771 1083.86C-590.816 962.319 -366.659 946.316 -299.59 844.547C-243.71 759.758 -317.578 597.61 -222.251 556.55C-122.739 513.688 -29.3515 662.544 80.0322 681.035C169.614 696.179 260.66 613.17 342.995 652.107C425.209 690.986 449.06 792.032 485.759 872.906C522.892 954.736 555.847 1036.85 557.619 1125.07Z" stroke="white" stroke-width="3"/>
<path opacity="0.9175" fill-rule="evenodd" clip-rule="evenodd" d="M542.554 1120.87C540.918 1222.56 555.872 1351.89 471.037 1409.47C383.174 1469.11 259.19 1384.05 150.185 1387.2C65.1112 1389.66 -15.832 1457.55 -95.6177 1425.86C-175.361 1394.18 -180.91 1281.84 -248.098 1228.99C-350.633 1148.35 -566.981 1166.68 -584.041 1041.73C-600.703 919.695 -375.829 911.278 -305.036 811.958C-246.055 729.208 -314.104 564.867 -217.233 527.096C-116.109 487.668 -28.048 639.399 80.7344 661.544C169.824 679.68 263.929 599.893 344.906 641.534C425.765 683.114 445.975 784.778 479.771 866.741C513.968 949.673 543.973 1032.75 542.554 1120.87Z" stroke="white" stroke-width="3"/>
<path opacity="0.87625" fill-rule="evenodd" clip-rule="evenodd" d="M527.633 1116.16C522.317 1217.61 532.602 1347.2 445.632 1401.82C355.557 1458.39 234.573 1369.3 125.388 1368.78C40.1718 1368.36 -43.2772 1433.4 -121.966 1399.08C-200.612 1364.77 -202.102 1252.44 -267.419 1197.43C-367.101 1113.48 -584.245 1124.49 -596.796 999.185C-609.054 876.815 -383.736 875.996 -309.308 779.244C-247.297 698.634 -309.443 532.301 -211.146 497.866C-108.533 461.919 -25.9065 616.34 82.1421 642.112C170.631 663.218 267.68 586.75 347.201 631.045C426.605 675.274 443.151 777.433 474.003 860.385C505.221 944.317 532.239 1028.25 527.633 1116.16Z" stroke="white" stroke-width="3"/>
<path opacity="0.835" fill-rule="evenodd" clip-rule="evenodd" d="M512.872 1110.96C503.883 1212.04 509.487 1341.75 420.487 1393.33C328.311 1446.76 210.475 1353.76 101.241 1349.55C15.9872 1346.27 -69.8659 1408.37 -147.362 1371.46C-224.816 1334.56 -222.243 1222.39 -285.611 1165.28C-382.318 1078.12 -599.994 1081.79 -608.021 956.291C-615.859 833.733 -390.373 840.511 -312.399 746.446C-247.434 668.075 -303.602 499.952 -203.998 468.894C-100.021 436.473 -22.9295 593.396 84.2536 622.763C172.033 646.814 271.908 573.758 349.876 620.652C427.73 667.477 440.59 770.007 468.461 853.846C496.662 938.677 520.661 1023.37 512.872 1110.96Z" stroke="white" stroke-width="3"/>
<path opacity="0.79375" fill-rule="evenodd" clip-rule="evenodd" d="M498.29 1105.27C485.639 1205.87 486.555 1335.52 395.634 1384.01C301.469 1434.23 186.923 1337.43 77.7743 1329.55C-7.41309 1323.39 -95.5657 1382.49 -171.774 1343.03C-247.941 1303.6 -241.309 1191.72 -302.651 1132.57C-396.265 1042.32 -614.208 1038.63 -617.7 913.097C-621.11 790.5 -395.73 804.868 -314.305 713.604C-246.465 637.568 -296.587 467.86 -195.798 440.217C-90.5841 411.36 -19.1209 570.594 87.0662 603.521C174.03 630.487 276.61 560.932 352.929 610.369C429.138 659.733 438.297 762.507 463.153 847.132C488.302 932.758 509.253 1018.1 498.29 1105.27Z" stroke="white" stroke-width="3"/>
<path opacity="0.7525" fill-rule="evenodd" clip-rule="evenodd" d="M483.906 1099.1C467.608 1199.09 463.835 1328.53 371.104 1373.87C275.063 1420.82 163.949 1320.34 55.0172 1308.79C-30.0003 1299.78 -120.345 1355.79 -195.173 1313.84C-269.961 1271.9 -259.278 1160.45 -318.518 1099.35C-408.925 1006.1 -626.87 995.08 -625.823 869.657C-624.801 747.17 -399.801 769.11 -315.024 680.759C-244.392 607.149 -288.406 436.063 -186.555 411.869C-80.2324 386.612 -14.4849 547.963 90.5767 584.409C176.619 614.258 281.778 548.289 356.356 600.207C430.826 652.05 436.274 754.945 458.084 840.252C480.152 926.569 498.028 1012.46 483.906 1099.1Z" stroke="white" stroke-width="3"/>
<path opacity="0.71125" fill-rule="evenodd" clip-rule="evenodd" d="M469.735 1092.46C449.811 1191.71 441.352 1320.79 346.924 1362.92C249.126 1406.55 141.578 1302.5 32.9966 1287.3C-51.7474 1275.44 -144.174 1328.31 -217.531 1283.9C-290.848 1239.53 -276.127 1128.64 -333.194 1065.66C-420.284 969.532 -637.964 951.18 -632.38 826.023C-626.927 703.795 -402.581 733.28 -314.557 647.949C-241.218 576.855 -279.07 404.6 -176.281 383.884C-68.9795 362.258 -9.02771 525.529 94.7805 565.45C179.796 598.145 287.406 535.843 360.153 590.18C432.793 644.438 434.522 747.328 453.26 833.214C472.22 920.116 487 1006.45 469.735 1092.46Z" stroke="white" stroke-width="3"/>
<path opacity="0.67" fill-rule="evenodd" clip-rule="evenodd" d="M455.796 1085.35C432.269 1183.75 419.137 1312.31 323.126 1351.17C223.689 1391.43 119.838 1283.94 11.7398 1265.11C-72.6274 1250.41 -167.024 1300.07 -238.82 1253.27C-310.577 1206.51 -291.836 1096.32 -346.659 1031.53C-430.326 932.643 -647.477 906.986 -637.363 782.247C-627.484 660.428 -404.067 697.422 -312.901 615.216C-236.946 546.725 -268.591 373.51 -164.989 356.297C-56.8384 338.328 -2.75548 503.321 99.6728 546.669C183.558 582.169 293.489 523.609 364.315 580.299C435.037 636.907 433.046 739.665 448.688 826.026C464.516 913.407 476.182 1000.09 455.796 1085.35Z" stroke="white" stroke-width="3"/>
<path opacity="0.62875" fill-rule="evenodd" clip-rule="evenodd" d="M442.105 1077.78C415.005 1175.21 397.214 1303.09 299.738 1338.65C198.784 1375.47 98.7565 1264.69 -8.7275 1242.24C-92.6152 1224.73 -188.866 1271.11 -259.014 1221.98C-329.124 1172.88 -306.385 1063.53 -358.899 997.007C-439.041 895.484 -655.398 862.553 -640.765 738.384C-626.474 617.122 -404.257 661.58 -310.061 582.598C-231.581 516.794 -256.98 342.83 -152.692 329.141C-43.8244 314.852 4.32381 481.364 105.247 528.086C187.901 566.349 300.017 511.603 368.836 570.577C437.555 629.465 431.845 731.968 444.374 818.696C457.05 906.451 465.589 993.364 442.105 1077.78Z" stroke="white" stroke-width="3"/>
<path opacity="0.5875" fill-rule="evenodd" clip-rule="evenodd" d="M428.68 1069.77C398.039 1166.1 375.611 1293.15 276.789 1325.35C174.44 1358.71 78.3583 1244.75 -28.3803 1218.73C-111.686 1198.42 -209.674 1241.47 -278.088 1190.07C-346.466 1138.69 -319.758 1030.31 -369.897 962.137C-446.416 858.099 -661.716 817.935 -642.582 694.487C-623.896 573.929 -403.15 625.797 -306.039 550.136C-225.131 487.098 -244.253 312.598 -139.405 302.45C-29.9531 291.857 12.2018 459.687 111.498 509.725C192.818 550.705 306.984 499.839 373.713 561.025C440.344 622.121 430.922 724.243 440.322 811.235C449.832 899.256 455.232 986.298 428.68 1069.77Z" stroke="white" stroke-width="3"/>
<path opacity="0.54625" fill-rule="evenodd" clip-rule="evenodd" d="M415.536 1061.32C381.391 1156.44 354.354 1282.5 254.306 1311.31C150.688 1341.16 58.6685 1224.17 -47.1947 1194.6C-129.817 1171.51 -229.423 1211.18 -296.02 1157.57C-362.581 1103.98 -331.936 996.698 -379.641 926.961C-452.444 820.535 -666.424 773.185 -642.813 650.609C-619.755 530.902 -400.748 590.118 -300.841 517.869C-217.602 457.675 -230.424 282.85 -125.144 276.256C-15.2414 269.372 20.8687 438.316 118.416 491.609C198.304 535.255 314.381 488.332 378.937 551.655C443.4 614.885 430.279 716.502 436.537 803.651C442.869 891.831 445.124 978.895 415.536 1061.32Z" stroke="white" stroke-width="3"/>
<path opacity="0.505" fill-rule="evenodd" clip-rule="evenodd" d="M402.69 1052.44C365.083 1146.24 333.47 1271.15 232.318 1296.54C127.555 1322.84 39.7111 1202.96 -65.1477 1169.87C-146.987 1144.05 -248.089 1180.28 -312.787 1124.52C-377.452 1068.79 -342.907 962.738 -388.119 891.521C-457.117 782.835 -669.517 728.359 -641.457 606.804C-614.055 488.095 -397.054 554.584 -294.472 485.837C-209.004 428.56 -215.51 253.623 -109.927 250.591C0.29263 247.425 30.314 417.275 125.994 473.76C204.353 520.019 322.198 477.095 384.504 542.478C446.719 607.766 429.914 708.754 433.024 795.954C436.17 884.185 435.277 971.165 402.69 1052.44Z" stroke="white" stroke-width="3"/>
<path opacity="0.46375" fill-rule="evenodd" clip-rule="evenodd" d="M390.157 1043.15C349.134 1135.5 312.983 1259.12 210.85 1281.05C105.072 1303.77 21.5092 1181.15 -82.2175 1144.59C-163.173 1116.05 -265.648 1148.81 -328.37 1090.97C-391.058 1033.17 -352.656 928.471 -395.32 855.86C-460.429 745.048 -670.989 683.511 -638.516 563.125C-606.802 445.558 -392.073 519.241 -286.94 454.078C-199.348 399.787 -199.53 224.953 -93.7716 225.485C16.6303 226.041 40.5263 396.592 134.222 456.199C210.956 505.015 330.427 466.142 390.406 533.506C450.298 600.771 429.83 701.007 429.787 788.152C429.744 876.327 425.704 963.117 390.157 1043.15Z" stroke="white" stroke-width="3"/>
<path opacity="0.4225" fill-rule="evenodd" clip-rule="evenodd" d="M377.953 1033.44C333.564 1124.25 292.919 1246.42 189.929 1264.87C83.2638 1283.98 4.08485 1158.77 -98.3833 1118.78C-178.356 1087.56 -282.08 1116.81 -342.748 1056.96C-403.384 997.146 -361.171 893.938 -401.235 820.022C-462.376 707.218 -670.841 638.696 -633.992 519.626C-598.007 403.343 -385.81 484.131 -278.255 422.632C-188.645 371.394 -182.503 196.874 -76.6985 200.971C33.7514 205.248 51.493 376.291 143.091 438.947C218.106 490.26 339.057 455.487 396.637 524.749C454.133 593.91 430.026 693.272 426.831 780.255C423.598 868.267 416.417 954.761 377.953 1033.44Z" stroke="white" stroke-width="3"/>
<path opacity="0.38125" fill-rule="evenodd" clip-rule="evenodd" d="M366.092 1023.35C318.391 1112.49 273.301 1233.07 169.58 1248.01C62.1583 1263.49 -12.5406 1135.84 -113.625 1092.47C-192.519 1058.61 -297.364 1084.31 -355.905 1022.53C-414.415 960.777 -368.443 859.181 -405.857 784.05C-462.956 669.393 -669.071 593.968 -627.893 476.359C-587.679 361.503 -378.273 449.296 -268.427 391.536C-176.908 343.413 -164.45 169.421 -58.7281 177.077C51.6353 185.07 63.2009 356.397 152.589 422.026C225.795 475.774 348.078 445.142 403.188 516.218C458.218 587.19 430.502 685.557 424.159 772.273C417.74 860.015 407.425 946.108 366.092 1023.35Z" stroke="white" stroke-width="3"/>
<path opacity="0.34" fill-rule="evenodd" clip-rule="evenodd" d="M354.588 1012.87C303.634 1100.24 254.155 1219.08 149.829 1230.5C41.7808 1242.32 -28.3469 1112.39 -127.925 1065.69C-205.643 1029.24 -311.483 1051.35 -367.825 987.711C-424.137 924.102 -374.462 824.243 -409.182 747.989C-462.168 631.616 -665.682 549.382 -620.224 433.377C-575.831 320.087 -369.472 414.779 -257.469 360.828C-164.152 315.879 -145.393 142.627 -39.8825 153.833C70.2601 165.532 75.6356 336.934 162.705 405.456C234.012 461.574 357.479 435.121 410.052 507.924C462.548 580.621 431.257 677.873 421.773 764.216C412.177 851.58 398.742 937.167 354.588 1012.87Z" stroke="white" stroke-width="3"/>
<path opacity="0.29875" fill-rule="evenodd" clip-rule="evenodd" d="M343.457 1002.03C289.31 1087.52 235.502 1204.47 130.699 1212.35C22.1563 1220.51 -43.3149 1088.46 -141.265 1038.48C-217.713 999.479 -324.418 1017.98 -378.493 952.558C-432.539 887.167 -379.221 789.166 -411.204 711.881C-460.014 593.936 -660.679 504.991 -610.997 390.732C-562.478 279.147 -359.416 380.622 -245.393 330.546C-150.393 288.826 -125.354 116.524 -20.1844 131.267C89.6031 146.657 88.7819 317.926 173.426 389.258C242.747 447.676 367.247 425.434 417.22 499.876C467.119 574.21 432.291 670.228 419.678 756.093C406.916 842.973 390.376 927.95 343.457 1002.03Z" stroke="white" stroke-width="3"/>
<path opacity="0.2575" fill-rule="evenodd" clip-rule="evenodd" d="M332.711 990.829C275.438 1074.34 217.367 1189.26 112.214 1193.59C3.30868 1198.08 -57.4262 1064.06 -153.63 1010.87C-228.713 969.364 -336.154 984.239 -387.896 917.11C-439.61 850.017 -382.713 753.993 -411.921 675.772C-456.494 556.398 -654.066 460.852 -600.221 348.477C-547.635 238.733 -348.119 346.867 -232.213 300.728C-135.646 262.286 -104.359 91.1449 0.342223 109.407C109.641 128.47 102.624 299.397 184.74 373.451C251.991 434.099 377.373 416.095 424.683 492.085C471.924 567.965 433.601 662.632 417.875 747.914C401.962 834.205 382.338 918.468 332.711 990.829Z" stroke="white" stroke-width="3"/>
<path opacity="0.21625" fill-rule="evenodd" clip-rule="evenodd" d="M322.363 979.287C262.035 1060.71 199.771 1173.46 94.396 1174.24C-14.7391 1175.05 -70.6637 1039.23 -165.003 982.899C-238.631 938.935 -346.676 950.16 -396.022 881.41C-445.341 812.696 -384.936 718.767 -411.332 639.705C-451.615 519.048 -645.853 417.016 -587.909 306.663C-531.322 198.893 -335.594 313.555 -217.948 271.408C-119.93 236.293 -82.4335 66.5203 21.6722 88.2782C130.349 110.991 117.145 281.368 196.633 358.054C261.732 420.858 387.842 407.115 432.433 484.56C476.959 561.893 435.188 655.095 416.367 739.69C397.323 825.285 374.639 908.732 322.363 979.287Z" stroke="white" stroke-width="3"/>
<path opacity="0.175" fill-rule="evenodd" clip-rule="evenodd" d="M312.427 967.418C249.116 1046.66 182.735 1157.1 77.2666 1154.33C-31.9651 1151.46 -83.0113 1014 -175.371 954.593C-247.455 908.227 -355.972 915.788 -402.862 845.501C-449.726 775.251 -385.886 683.531 -409.439 603.724C-445.382 481.93 -636.049 373.537 -574.078 265.34C-513.557 159.676 -321.856 280.726 -202.613 242.623C-103.264 210.876 -59.6034 42.6799 43.7796 67.9076C151.702 94.243 132.327 263.861 209.09 343.087C271.957 407.97 398.643 398.503 440.46 477.31C482.216 556.002 437.048 647.624 415.155 731.429C393.003 816.226 367.287 898.755 312.427 967.418Z" stroke="white" stroke-width="3"/>
<path opacity="0.13375" fill-rule="evenodd" clip-rule="evenodd" d="M302.914 955.235C236.697 1032.2 166.28 1140.2 60.847 1133.88C-48.3483 1127.33 -94.4539 988.401 -184.722 925.988C-255.173 877.277 -364.031 881.167 -408.407 809.427C-452.759 737.727 -385.562 648.327 -406.242 567.873C-437.803 445.091 -624.667 330.469 -558.743 224.56C-494.363 121.13 -306.922 248.421 -186.227 214.407C-85.6683 186.069 -35.8968 19.6531 66.6376 48.3199C173.674 78.2453 148.151 246.899 222.097 328.567C282.656 395.451 409.762 390.272 448.754 470.344C487.689 550.299 439.179 640.23 414.241 723.144C389.009 807.037 360.291 888.548 302.914 955.235Z" stroke="white" stroke-width="3"/>
<path opacity="0.0925" fill-rule="evenodd" clip-rule="evenodd" d="M293.835 942.755C224.794 1017.34 150.426 1122.77 45.1571 1112.91C-63.8688 1102.69 -104.978 962.463 -193.044 897.121C-261.776 846.125 -370.842 846.337 -412.651 773.234C-454.437 700.169 -383.964 613.199 -401.747 532.195C-428.886 408.575 -611.719 287.863 -541.924 184.371C-473.763 83.3021 -290.81 216.678 -168.81 186.796C-67.1645 161.9 -11.3425 -2.5321 90.2182 29.5388C196.238 63.0178 164.599 230.501 235.636 314.512C293.813 383.315 421.185 382.431 457.305 463.67C493.372 544.791 441.579 632.922 413.627 714.842C385.344 797.731 353.66 878.124 293.835 942.755Z" stroke="white" stroke-width="3"/>
<path opacity="0.05125" fill-rule="evenodd" clip-rule="evenodd" d="M285.202 929.991C213.421 1002.11 135.193 1104.84 30.2159 1091.45C-78.5077 1077.57 -114.57 936.217 -200.326 868.027C-267.257 814.807 -376.398 811.342 -415.588 736.963C-454.757 662.624 -381.095 578.189 -395.959 496.735C-418.643 372.426 -597.223 245.773 -523.641 144.824C-451.782 46.238 -273.54 185.537 -150.384 159.823C-47.775 138.399 14.0293 -23.849 114.493 11.587C219.367 48.5788 181.65 214.688 249.692 300.94C305.417 371.577 432.899 374.989 466.103 457.297C499.258 539.485 444.245 625.708 413.313 706.535C382.014 788.319 347.403 867.496 285.202 929.991Z" stroke="white" stroke-width="3"/>
<path opacity="0.01" fill-rule="evenodd" clip-rule="evenodd" d="M277.026 916.961C202.591 986.53 120.599 1086.44 16.0413 1069.52C-92.2476 1052.01 -123.219 909.698 -206.562 838.742C-271.609 783.363 -380.692 776.225 -417.216 700.661C-453.72 625.139 -376.958 543.342 -388.885 461.536C-407.086 336.691 -581.195 204.25 -503.916 105.967C-428.447 9.98466 -255.134 155.037 -130.971 133.522C-27.5241 115.597 40.1873 -44.2695 139.431 -5.51172C243.032 34.9478 199.284 199.481 264.248 287.868C317.451 360.254 444.889 367.958 475.136 451.234C505.339 534.388 447.173 618.598 413.298 698.234C379.021 778.813 341.525 856.677 277.026 916.961Z" stroke="white" stroke-width="3"/>
</g>
<defs>
<clipPath id="clip0_165_34">
<rect width="520" height="616" fill="white" transform="translate(-10)"/>
</clipPath>
</defs>
</svg>
