<svg width="18" height="18" viewBox="0 0 18 18" fill="none" xmlns="http://www.w3.org/2000/svg">
<path d="M17.5045 15.1195L11.385 9L17.5045 2.88052C18.1652 2.21984 18.1652 1.15619 17.5045 0.49551C16.8438 -0.16517 15.7802 -0.16517 15.1195 0.49551L9 6.61499L2.88052 0.49551C2.21984 -0.16517 1.15619 -0.16517 0.49551 0.49551C-0.16517 1.15619 -0.16517 2.21984 0.49551 2.88052L6.61499 9L0.49551 15.1195C-0.16517 15.7802 -0.16517 16.8438 0.49551 17.5045C1.15619 18.1652 2.21984 18.1652 2.88052 17.5045L9 11.385L15.1195 17.5045C15.7802 18.1652 16.8438 18.1652 17.5045 17.5045C18.1605 16.8438 18.1605 15.7755 17.5045 15.1195Z" fill="white" fill-opacity="0.8"/>
</svg>
