<svg width="154" height="83" viewBox="0 0 154 83" fill="none" xmlns="http://www.w3.org/2000/svg">
<path d="M112.501 6.78847C112.752 12.1513 117.126 16.3963 122.494 16.4868L129.464 16.6042L122.494 16.709C117.126 16.7897 112.744 21.0267 112.483 26.3891C112.231 21.0263 107.857 16.7813 102.489 16.6908L95.5192 16.5733L102.489 16.4686C107.857 16.3879 112.239 12.1509 112.501 6.78847Z" fill="white"/>
<path d="M125.497 1.78028C125.614 4.78165 128.05 7.17142 131.053 7.23125L133.468 7.27935L131.053 7.32305C128.05 7.37741 125.61 9.76273 125.487 12.7639C125.369 9.76251 122.933 7.37275 119.93 7.31292L117.515 7.26481L119.93 7.22111C122.933 7.16676 125.373 4.78143 125.497 1.78028Z" fill="white"/>
<path d="M31.0711 56.7412C31.6978 63.2881 37.3175 68.2127 43.89 67.9747L49.2939 67.779L43.9013 68.1785C37.3424 68.6644 32.2981 74.177 32.3948 80.7531C31.7681 74.2062 26.1484 69.2815 19.5759 69.5196L14.1721 69.7152L19.5647 69.3157C26.1235 68.8298 31.1678 63.3173 31.0711 56.7412Z" fill="white"/>
<path d="M140.307 24.1979C141.754 26.6715 141.514 29.5829 139.667 32.7821C137.822 35.9763 134.411 39.389 129.68 42.8123C120.224 49.6559 105.584 56.4786 87.9987 61.6417C70.4136 66.8048 53.2532 69.3188 39.7357 69.2206C32.974 69.1715 27.155 68.4688 22.6619 67.1355C18.1616 65.8 15.0848 63.8625 13.6378 61.3889C12.1908 58.9154 12.431 56.0039 14.2785 52.8047C16.1231 49.6106 19.5345 46.1978 24.2649 42.7745C33.7216 35.931 48.3614 29.1082 65.9465 23.9451C83.5315 18.782 100.692 16.268 114.209 16.3662C120.971 16.4153 126.79 17.118 131.283 18.4514C135.783 19.7868 138.86 21.7243 140.307 24.1979Z" stroke="white" stroke-width="1.0073"/>
<path d="M42.9501 45.613C42.9501 46.6797 43.1501 47.5597 43.5501 48.253C43.9501 48.9197 44.5367 49.6397 45.3101 50.413C45.8434 50.9197 46.2434 51.3863 46.5101 51.813C46.8034 52.213 46.9501 52.6797 46.9501 53.213C46.9501 54.3063 46.5634 55.173 45.7901 55.813C45.0434 56.453 43.9901 56.773 42.6301 56.773C40.9234 56.773 39.3367 56.2663 37.8701 55.253C36.4301 54.213 35.3767 52.4663 34.7101 50.013L30.9501 35.973C29.9901 32.4797 28.3767 30.733 26.1101 30.733C25.6301 30.733 25.2434 30.8797 24.9501 31.173C24.6567 31.4397 24.5101 31.8263 24.5101 32.333C24.5101 32.813 24.6034 33.2263 24.7901 33.573C24.9767 33.9197 25.2701 34.333 25.6701 34.813C26.3101 35.5597 26.8034 36.333 27.1501 37.133C27.5234 37.933 27.7101 39.0663 27.7101 40.533L27.7101 55.573L29.9101 55.973C30.1767 55.9997 30.3101 56.133 30.3101 56.373C30.3101 56.6397 30.1767 56.773 29.9101 56.773L24.3101 56.773C24.0434 56.773 23.9101 56.6397 23.9101 56.373C23.9101 56.133 24.0434 55.9997 24.3101 55.973L26.5101 55.573L26.5101 39.933C26.5101 38.8663 26.3101 37.9997 25.9101 37.333C25.5101 36.6397 24.9234 35.9063 24.1501 35.133C23.6167 34.6263 23.2034 34.173 22.9101 33.773C22.6434 33.3463 22.5101 32.8663 22.5101 32.333C22.5101 31.2397 22.8834 30.373 23.6301 29.733C24.4034 29.093 25.4701 28.773 26.8301 28.773C28.5634 28.773 30.1767 29.293 31.6701 30.333C33.1901 31.373 34.2834 33.1063 34.9501 35.533L38.7101 49.573C39.6701 53.0663 41.2167 54.813 43.3501 54.813C43.8301 54.813 44.2167 54.6797 44.5101 54.413C44.8034 54.1197 44.9501 53.7197 44.9501 53.213C44.9501 52.733 44.8567 52.3197 44.6701 51.973C44.4834 51.6263 44.1901 51.213 43.7901 50.733C43.1501 49.9863 42.6434 49.213 42.2701 48.413C41.9234 47.613 41.7501 46.4797 41.7501 45.013L41.7501 29.973L39.5501 29.573C39.2834 29.5463 39.1501 29.413 39.1501 29.173C39.1501 28.9063 39.2834 28.773 39.5501 28.773L45.1501 28.773C45.4167 28.773 45.5501 28.9063 45.5501 29.173C45.5501 29.413 45.4167 29.5463 45.1501 29.573L42.9501 29.973L42.9501 45.613ZM73.1076 50.733C72.6809 52.5997 71.5742 54.0797 69.7876 55.173C68.0276 56.2397 65.7209 56.773 62.8676 56.773C60.6542 56.773 58.6409 56.453 56.8276 55.813C55.0409 55.173 53.6142 54.1997 52.5476 52.893C51.4809 51.5597 50.9476 49.933 50.9476 48.013C50.9476 45.9597 51.6676 44.373 53.1076 43.253C54.5742 42.1063 56.4942 41.533 58.8676 41.533C60.6542 41.533 62.5342 41.8663 64.5076 42.533C65.8676 42.9863 66.9876 43.213 67.8676 43.213C68.9876 43.213 69.7076 42.9597 70.0276 42.453C70.3742 41.9197 70.5476 41.3997 70.5476 40.893C70.5476 40.3863 70.3742 39.8663 70.0276 39.333C69.7076 38.7997 69.0009 38.533 67.9076 38.533C66.9742 38.533 65.8409 38.773 64.5076 39.253C62.6409 39.9463 60.7876 40.293 58.9476 40.293C57.0542 40.293 55.5076 39.8797 54.3076 39.053C53.1342 38.2263 52.5476 36.9997 52.5476 35.373C52.5476 33.8797 53.0142 32.6397 53.9476 31.653C54.8809 30.6663 56.0676 29.9463 57.5076 29.493C58.9742 29.013 60.4942 28.773 62.0676 28.773C62.9742 28.773 63.9342 28.8663 64.9476 29.053C65.1876 29.0797 65.5342 29.1197 65.9876 29.173C66.4409 29.2263 66.8409 29.253 67.1876 29.253C68.4942 29.253 69.6276 28.8263 70.5876 27.973L72.5476 30.933C71.6142 31.653 70.6276 32.013 69.5876 32.013C69.0276 32.013 68.4809 31.933 67.9476 31.773C67.4142 31.5863 66.7609 31.333 65.9876 31.013C65.1876 30.6663 64.4809 30.413 63.8676 30.253C63.2809 30.0663 62.6809 29.973 62.0676 29.973C60.9209 29.973 59.9209 30.2263 59.0676 30.733C58.2409 31.2397 57.6009 31.893 57.1476 32.693C56.7209 33.4663 56.5076 34.2797 56.5076 35.133C56.5076 36.333 56.8542 37.1997 57.5476 37.733C58.2676 38.2663 59.2942 38.533 60.6276 38.533C61.7742 38.533 63.0676 38.373 64.5076 38.053C65.8409 37.7863 67.0009 37.653 67.9876 37.653C69.8542 37.653 71.0809 38.013 71.6676 38.733C72.2542 39.453 72.5476 40.173 72.5476 40.893C72.5476 41.613 72.2542 42.3463 71.6676 43.093C71.0809 43.813 69.8676 44.173 68.0276 44.173C66.9609 44.173 65.7876 44.0263 64.5076 43.733C63.0942 43.4397 61.8809 43.293 60.8676 43.293C58.9209 43.293 57.4409 43.7597 56.4276 44.693C55.4142 45.5997 54.9076 46.9197 54.9076 48.653C54.9076 49.7997 55.2009 50.893 55.7876 51.933C56.4009 52.9463 57.2942 53.7863 58.4676 54.453C59.6676 55.1197 61.1342 55.493 62.8676 55.573C64.6276 55.573 65.9876 55.093 66.9476 54.133C67.9342 53.1463 68.6542 51.7463 69.1076 49.933L73.1076 50.733ZM103.438 28.773C103.705 28.773 103.838 28.9063 103.838 29.173C103.838 29.413 103.705 29.5463 103.438 29.573L101.198 29.973L100.078 32.933C98.3979 37.3597 97.1979 40.573 96.4779 42.573C95.7579 44.573 95.2246 46.3197 94.8779 47.813C94.5312 49.3063 94.3846 50.6397 94.4379 51.813C94.5179 53.5997 94.0246 54.8797 92.9579 55.653C91.8912 56.3997 90.6246 56.773 89.1579 56.773C87.9312 56.773 86.9446 56.413 86.1979 55.693C85.4779 54.973 85.1179 53.933 85.1179 52.573C85.1179 52.1463 85.1579 51.7597 85.2379 51.413C85.3179 50.693 85.3579 50.2797 85.3579 50.173C85.3579 48.9997 84.8912 47.293 83.9579 45.053L78.1579 29.973L75.9179 29.573C75.6512 29.5463 75.5179 29.413 75.5179 29.173C75.5179 28.9063 75.6512 28.773 75.9179 28.773L81.1979 28.773C81.4646 28.773 81.5979 28.9063 81.5979 29.173C81.5979 29.413 81.4646 29.5463 81.1979 29.573L79.3579 29.893L84.9579 44.613C85.6246 46.1863 86.0779 47.413 86.3179 48.293C86.5579 49.1463 86.6779 49.853 86.6779 50.413C86.6779 50.6263 86.6512 50.9463 86.5979 51.373C86.5446 51.7997 86.5179 52.1597 86.5179 52.453C86.5179 53.413 86.7446 54.0797 87.1979 54.453C87.6779 54.8263 88.1979 55.013 88.7579 55.013C89.5846 55.013 90.2779 54.7997 90.8379 54.373C91.4246 53.9463 91.7179 53.3063 91.7179 52.453C91.7179 52.0797 91.6912 51.7997 91.6379 51.613C91.4512 50.6263 91.3579 49.7863 91.3579 49.093C91.3579 47.493 91.6112 45.7997 92.1179 44.013C92.6512 42.1997 93.5979 39.413 94.9579 35.653L97.0379 29.893L95.1579 29.573C94.8912 29.5463 94.7579 29.413 94.7579 29.173C94.7579 28.9063 94.8912 28.773 95.1579 28.773L103.438 28.773ZM115.841 55.973C116.108 55.9997 116.241 56.133 116.241 56.373C116.241 56.6397 116.108 56.773 115.841 56.773L107.441 56.773C107.175 56.773 107.041 56.6397 107.041 56.373C107.041 56.133 107.175 55.9997 107.441 55.973L109.641 55.573L109.641 48.013C109.641 46.7863 109.508 45.853 109.241 45.213C108.975 44.573 108.588 43.9463 108.081 43.333C107.735 42.933 107.468 42.573 107.281 42.253C107.121 41.9063 107.041 41.453 107.041 40.893C107.041 40.3597 107.215 39.7863 107.561 39.173C107.908 38.5597 108.601 38.1197 109.641 37.853L109.641 29.973L107.441 29.573C107.175 29.5463 107.041 29.413 107.041 29.173C107.041 28.9063 107.175 28.773 107.441 28.773L115.841 28.773C116.108 28.773 116.241 28.9063 116.241 29.173C116.241 29.413 116.108 29.5463 115.841 29.573L113.641 29.973L113.641 38.813C112.788 38.5997 112.121 38.493 111.641 38.493C110.575 38.493 109.868 38.7597 109.521 39.293C109.201 39.8263 109.041 40.3597 109.041 40.893C109.041 41.5063 109.201 41.9997 109.521 42.373C109.841 42.7197 110.348 43.133 111.041 43.613C111.895 44.2263 112.535 44.813 112.961 45.373C113.415 45.9063 113.641 46.6797 113.641 47.693L113.641 55.573L115.841 55.973ZM139.604 54.733C138.671 55.7197 137.698 56.3997 136.684 56.773C135.698 57.173 134.618 57.373 133.444 57.373C132.884 57.373 132.244 57.333 131.524 57.253C130.831 57.173 130.364 57.1197 130.124 57.093C128.631 56.8797 127.511 56.773 126.764 56.773L120.644 56.773C120.378 56.773 120.244 56.6397 120.244 56.373C120.244 56.133 120.378 55.9997 120.644 55.973L122.844 55.573L122.844 48.013C122.844 46.7863 122.711 45.853 122.444 45.213C122.178 44.573 121.791 43.9463 121.284 43.333C120.938 42.933 120.671 42.573 120.484 42.253C120.324 41.9063 120.244 41.453 120.244 40.893C120.244 40.3597 120.418 39.7863 120.764 39.173C121.111 38.5597 121.804 38.1197 122.844 37.853L122.844 29.973L120.644 29.573C120.378 29.5463 120.244 29.413 120.244 29.173C120.244 28.9063 120.378 28.773 120.644 28.773L129.044 28.773C129.311 28.773 129.444 28.9063 129.444 29.173C129.444 29.413 129.311 29.5463 129.044 29.573L126.844 29.973L126.844 38.813C125.991 38.5997 125.324 38.493 124.844 38.493C123.778 38.493 123.071 38.7597 122.724 39.293C122.404 39.8263 122.244 40.3597 122.244 40.893C122.244 41.5063 122.404 41.9997 122.724 42.373C123.044 42.7197 123.551 43.133 124.244 43.613C125.098 44.2263 125.738 44.813 126.164 45.373C126.618 45.9063 126.844 46.6797 126.844 47.693L126.844 55.573C129.058 55.573 130.671 55.5197 131.684 55.413C132.698 55.3063 133.671 54.9863 134.604 54.453C135.538 53.9197 136.551 53.0263 137.644 51.773L139.604 54.733Z" fill="white"/>
</svg>
